# MagicaVoxel @ Ephtracy

# material
mtllib SmallTree3.mtl
usemtl palette

# normals
vn -1 0 0
vn 1 0 0
vn 0 0 1
vn 0 0 -1
vn 0 -1 0
vn 0 1 0

# texcoords
vt 0.369141 0.5
vt 0.533203 0.5
vt 0.896484 0.5

# verts
v -2.5 2 -0.5
v -2.5 2 -1.5
v -2.5 3 1.5
v -2.5 3 0.5
v -2.5 3 -0.5
v -2.5 3 -1.5
v -2.5 5 1.5
v -2.5 5 0.5
v -2.5 5 -0.5
v -2.5 5 -1.5
v -1.5 2 2.5
v -1.5 2 1.5
v -1.5 3 2.5
v -1.5 3 1.5
v -1.5 3 -1.5
v -1.5 3 -2.5
v -1.5 4 0.5
v -1.5 4 -0.5
v -1.5 5 2.5
v -1.5 5 1.5
v -1.5 5 0.5
v -1.5 5 -0.5
v -1.5 5 -1.5
v -1.5 5 -2.5
v -0.5 0 0.5
v -0.5 0 -0.5
v -0.5 1 0.5
v -0.5 1 -0.5
v -0.5 2 0.5
v -0.5 2 -0.5
v -0.5 4 0.5
v -0.5 4 -0.5
v 0.5 2 -1.5
v 0.5 2 -2.5
v 0.5 3 2.5
v 0.5 3 1.5
v 0.5 3 -1.5
v 0.5 3 -2.5
v 0.5 4 1.5
v 0.5 4 0.5
v 0.5 4 -0.5
v 0.5 4 -1.5
v 0.5 5 2.5
v 0.5 5 0.5
v 0.5 5 -0.5
v 0.5 5 -2.5
v 1.5 2 1.5
v 1.5 2 0.5
v 1.5 3 1.5
v 1.5 3 0.5
v 1.5 3 -0.5
v 1.5 3 -1.5
v 1.5 4 1.5
v 1.5 4 0.5
v 1.5 4 -0.5
v 1.5 4 -1.5
v -1.5 2 -0.5
v -1.5 2 -1.5
v -1.5 3 1.5
v -1.5 3 0.5
v -1.5 3 -0.5
v -1.5 3 -1.5
v -1.5 4 1.5
v -1.5 4 0.5
v -1.5 4 -0.5
v -1.5 4 -1.5
v -0.5 2 2.5
v -0.5 2 1.5
v -0.5 3 2.5
v -0.5 3 1.5
v -0.5 3 -1.5
v -0.5 3 -2.5
v -0.5 4 1.5
v -0.5 4 0.5
v -0.5 4 -0.5
v -0.5 4 -1.5
v -0.5 5 2.5
v -0.5 5 0.5
v -0.5 5 -0.5
v -0.5 5 -2.5
v 0.5 0 0.5
v 0.5 0 -0.5
v 0.5 1 0.5
v 0.5 1 -0.5
v 0.5 2 0.5
v 0.5 2 -0.5
v 0.5 4 0.5
v 0.5 4 -0.5
v 1.5 2 -1.5
v 1.5 2 -2.5
v 1.5 3 2.5
v 1.5 3 1.5
v 1.5 3 -1.5
v 1.5 3 -2.5
v 1.5 4 0.5
v 1.5 4 -0.5
v 1.5 5 2.5
v 1.5 5 1.5
v 1.5 5 0.5
v 1.5 5 -0.5
v 1.5 5 -1.5
v 1.5 5 -2.5
v 2.5 2 1.5
v 2.5 2 0.5
v 2.5 3 1.5
v 2.5 3 0.5
v 2.5 3 -0.5
v 2.5 3 -1.5
v 2.5 5 1.5
v 2.5 5 0.5
v 2.5 5 -0.5
v 2.5 5 -1.5
v -1.5 2 2.5
v -1.5 3 2.5
v -1.5 5 2.5
v -0.5 2 2.5
v -0.5 3 2.5
v -0.5 5 2.5
v 0.5 3 2.5
v 0.5 5 2.5
v 1.5 3 2.5
v 1.5 5 2.5
v -2.5 3 1.5
v -2.5 5 1.5
v -1.5 3 1.5
v -1.5 5 1.5
v 1.5 2 1.5
v 1.5 3 1.5
v 1.5 5 1.5
v 2.5 2 1.5
v 2.5 3 1.5
v 2.5 5 1.5
v -0.5 0 0.5
v -0.5 1 0.5
v -0.5 2 0.5
v -0.5 4 0.5
v -0.5 5 0.5
v 0.5 0 0.5
v 0.5 1 0.5
v 0.5 2 0.5
v 0.5 4 0.5
v 0.5 5 0.5
v -2.5 2 -0.5
v -2.5 3 -0.5
v -2.5 5 -0.5
v -1.5 2 -0.5
v -1.5 3 -0.5
v -1.5 4 -0.5
v -1.5 5 -0.5
v 1.5 3 -0.5
v 1.5 4 -0.5
v 1.5 5 -0.5
v 2.5 3 -0.5
v 2.5 5 -0.5
v -1.5 3 -1.5
v -1.5 4 -1.5
v -0.5 3 -1.5
v -0.5 4 -1.5
v 0.5 2 -1.5
v 0.5 3 -1.5
v 0.5 4 -1.5
v 1.5 2 -1.5
v 1.5 3 -1.5
v 1.5 4 -1.5
v -1.5 2 1.5
v -1.5 3 1.5
v -1.5 4 1.5
v -0.5 2 1.5
v -0.5 3 1.5
v -0.5 4 1.5
v 0.5 3 1.5
v 0.5 4 1.5
v 1.5 3 1.5
v 1.5 4 1.5
v -2.5 3 0.5
v -2.5 5 0.5
v -1.5 3 0.5
v -1.5 4 0.5
v -1.5 5 0.5
v 1.5 2 0.5
v 1.5 3 0.5
v 1.5 4 0.5
v 1.5 5 0.5
v 2.5 2 0.5
v 2.5 3 0.5
v 2.5 5 0.5
v -0.5 0 -0.5
v -0.5 1 -0.5
v -0.5 2 -0.5
v -0.5 4 -0.5
v -0.5 5 -0.5
v 0.5 0 -0.5
v 0.5 1 -0.5
v 0.5 2 -0.5
v 0.5 4 -0.5
v 0.5 5 -0.5
v -2.5 2 -1.5
v -2.5 3 -1.5
v -2.5 5 -1.5
v -1.5 2 -1.5
v -1.5 3 -1.5
v -1.5 5 -1.5
v 1.5 3 -1.5
v 1.5 5 -1.5
v 2.5 3 -1.5
v 2.5 5 -1.5
v -1.5 3 -2.5
v -1.5 5 -2.5
v -0.5 3 -2.5
v -0.5 5 -2.5
v 0.5 2 -2.5
v 0.5 3 -2.5
v 0.5 5 -2.5
v 1.5 2 -2.5
v 1.5 3 -2.5
v 1.5 5 -2.5
v -0.5 0 0.5
v 0.5 0 0.5
v -0.5 0 -0.5
v 0.5 0 -0.5
v -1.5 2 2.5
v -0.5 2 2.5
v -1.5 2 1.5
v -0.5 2 1.5
v 1.5 2 1.5
v 2.5 2 1.5
v 1.5 2 0.5
v 2.5 2 0.5
v -2.5 2 -0.5
v -1.5 2 -0.5
v -2.5 2 -1.5
v -1.5 2 -1.5
v 0.5 2 -1.5
v 1.5 2 -1.5
v 0.5 2 -2.5
v 1.5 2 -2.5
v 0.5 3 2.5
v 1.5 3 2.5
v -2.5 3 1.5
v -1.5 3 1.5
v 0.5 3 1.5
v 1.5 3 1.5
v -2.5 3 0.5
v -1.5 3 0.5
v 1.5 3 -0.5
v 2.5 3 -0.5
v -1.5 3 -1.5
v -0.5 3 -1.5
v 1.5 3 -1.5
v 2.5 3 -1.5
v -1.5 3 -2.5
v -0.5 3 -2.5
v -1.5 4 1.5
v -0.5 4 1.5
v 0.5 4 1.5
v 1.5 4 1.5
v -1.5 4 0.5
v -0.5 4 0.5
v 0.5 4 0.5
v 1.5 4 0.5
v -1.5 4 -0.5
v -0.5 4 -0.5
v 0.5 4 -0.5
v 1.5 4 -0.5
v -1.5 4 -1.5
v -0.5 4 -1.5
v 0.5 4 -1.5
v 1.5 4 -1.5
v -1.5 5 2.5
v -0.5 5 2.5
v 0.5 5 2.5
v 1.5 5 2.5
v -2.5 5 1.5
v -1.5 5 1.5
v 1.5 5 1.5
v 2.5 5 1.5
v -2.5 5 0.5
v -1.5 5 0.5
v -0.5 5 0.5
v 0.5 5 0.5
v 1.5 5 0.5
v 2.5 5 0.5
v -2.5 5 -0.5
v -1.5 5 -0.5
v -0.5 5 -0.5
v 0.5 5 -0.5
v 1.5 5 -0.5
v 2.5 5 -0.5
v -2.5 5 -1.5
v -1.5 5 -1.5
v 1.5 5 -1.5
v 2.5 5 -1.5
v -1.5 5 -2.5
v -0.5 5 -2.5
v 0.5 5 -2.5
v 1.5 5 -2.5

# faces
f 5/2/1 2/2/1 1/2/1
f 6/2/1 2/2/1 5/2/1
f 7/3/1 4/3/1 3/3/1
f 8/3/1 4/3/1 7/3/1
f 9/3/1 6/3/1 5/3/1
f 10/3/1 6/3/1 9/3/1
f 13/2/1 12/2/1 11/2/1
f 14/2/1 12/2/1 13/2/1
f 19/3/1 14/3/1 13/3/1
f 20/3/1 14/3/1 19/3/1
f 21/3/1 18/3/1 17/3/1
f 22/3/1 18/3/1 21/3/1
f 23/3/1 16/3/1 15/3/1
f 24/3/1 16/3/1 23/3/1
f 27/1/1 26/1/1 25/1/1
f 28/1/1 26/1/1 27/1/1
f 29/2/1 28/2/1 27/2/1
f 30/2/1 28/2/1 29/2/1
f 31/1/1 30/1/1 29/1/1
f 32/1/1 30/1/1 31/1/1
f 37/2/1 34/2/1 33/2/1
f 38/2/1 34/2/1 37/2/1
f 39/3/1 36/3/1 35/3/1
f 42/3/1 38/3/1 37/3/1
f 43/3/1 40/3/1 39/3/1
f 43/3/1 39/3/1 35/3/1
f 44/3/1 40/3/1 43/3/1
f 45/3/1 42/3/1 41/3/1
f 46/3/1 38/3/1 42/3/1
f 46/3/1 42/3/1 45/3/1
f 49/2/1 48/2/1 47/2/1
f 50/2/1 48/2/1 49/2/1
f 53/3/1 50/3/1 49/3/1
f 54/3/1 50/3/1 53/3/1
f 55/3/1 52/3/1 51/3/1
f 56/3/1 52/3/1 55/3/1
f 57/2/2 58/2/2 61/2/2
f 61/2/2 58/2/2 62/2/2
f 59/3/2 60/3/2 63/3/2
f 63/3/2 60/3/2 64/3/2
f 61/3/2 62/3/2 65/3/2
f 65/3/2 62/3/2 66/3/2
f 67/2/2 68/2/2 69/2/2
f 69/2/2 68/2/2 70/2/2
f 69/3/2 70/3/2 73/3/2
f 71/3/2 72/3/2 76/3/2
f 73/3/2 74/3/2 77/3/2
f 69/3/2 73/3/2 77/3/2
f 77/3/2 74/3/2 78/3/2
f 75/3/2 76/3/2 79/3/2
f 76/3/2 72/3/2 80/3/2
f 79/3/2 76/3/2 80/3/2
f 81/1/2 82/1/2 83/1/2
f 83/1/2 82/1/2 84/1/2
f 83/2/2 84/2/2 85/2/2
f 85/2/2 84/2/2 86/2/2
f 85/1/2 86/1/2 87/1/2
f 87/1/2 86/1/2 88/1/2
f 89/2/2 90/2/2 93/2/2
f 93/2/2 90/2/2 94/2/2
f 91/3/2 92/3/2 97/3/2
f 97/3/2 92/3/2 98/3/2
f 95/3/2 96/3/2 99/3/2
f 99/3/2 96/3/2 100/3/2
f 93/3/2 94/3/2 101/3/2
f 101/3/2 94/3/2 102/3/2
f 103/2/2 104/2/2 105/2/2
f 105/2/2 104/2/2 106/2/2
f 105/3/2 106/3/2 109/3/2
f 109/3/2 106/3/2 110/3/2
f 107/3/2 108/3/2 111/3/2
f 111/3/2 108/3/2 112/3/2
f 116/2/3 114/2/3 113/2/3
f 117/3/3 115/3/3 114/3/3
f 117/2/3 114/2/3 116/2/3
f 118/3/3 115/3/3 117/3/3
f 121/3/3 120/3/3 119/3/3
f 122/3/3 120/3/3 121/3/3
f 125/3/3 124/3/3 123/3/3
f 126/3/3 124/3/3 125/3/3
f 130/2/3 128/2/3 127/2/3
f 131/3/3 129/3/3 128/3/3
f 131/2/3 128/2/3 130/2/3
f 132/3/3 129/3/3 131/3/3
f 138/1/3 134/1/3 133/1/3
f 139/2/3 135/2/3 134/2/3
f 139/1/3 134/1/3 138/1/3
f 140/1/3 136/1/3 135/1/3
f 140/2/3 135/2/3 139/2/3
f 141/3/3 137/3/3 136/3/3
f 141/1/3 136/1/3 140/1/3
f 142/3/3 137/3/3 141/3/3
f 146/2/3 144/2/3 143/2/3
f 147/3/3 145/3/3 144/3/3
f 147/2/3 144/2/3 146/2/3
f 148/3/3 145/3/3 147/3/3
f 149/3/3 145/3/3 148/3/3
f 153/3/3 151/3/3 150/3/3
f 153/3/3 152/3/3 151/3/3
f 154/3/3 152/3/3 153/3/3
f 157/3/3 156/3/3 155/3/3
f 158/3/3 156/3/3 157/3/3
f 162/2/3 160/2/3 159/2/3
f 163/3/3 161/3/3 160/3/3
f 163/2/3 160/2/3 162/2/3
f 164/3/3 161/3/3 163/3/3
f 165/2/4 166/2/4 168/2/4
f 166/3/4 167/3/4 169/3/4
f 168/2/4 166/2/4 169/2/4
f 169/3/4 167/3/4 170/3/4
f 171/3/4 172/3/4 173/3/4
f 173/3/4 172/3/4 174/3/4
f 175/3/4 176/3/4 177/3/4
f 177/3/4 176/3/4 178/3/4
f 178/3/4 176/3/4 179/3/4
f 180/2/4 181/2/4 184/2/4
f 182/3/4 183/3/4 185/3/4
f 184/2/4 181/2/4 185/2/4
f 181/3/4 182/3/4 185/3/4
f 185/3/4 183/3/4 186/3/4
f 187/1/4 188/1/4 192/1/4
f 188/2/4 189/2/4 193/2/4
f 192/1/4 188/1/4 193/1/4
f 189/1/4 190/1/4 194/1/4
f 193/2/4 189/2/4 194/2/4
f 190/3/4 191/3/4 195/3/4
f 194/1/4 190/1/4 195/1/4
f 195/3/4 191/3/4 196/3/4
f 197/2/4 198/2/4 200/2/4
f 198/3/4 199/3/4 201/3/4
f 200/2/4 198/2/4 201/2/4
f 201/3/4 199/3/4 202/3/4
f 203/3/4 204/3/4 205/3/4
f 205/3/4 204/3/4 206/3/4
f 207/3/4 208/3/4 209/3/4
f 209/3/4 208/3/4 210/3/4
f 211/2/4 212/2/4 214/2/4
f 212/3/4 213/3/4 215/3/4
f 214/2/4 212/2/4 215/2/4
f 215/3/4 213/3/4 216/3/4
f 219/1/5 218/1/5 217/1/5
f 220/1/5 218/1/5 219/1/5
f 223/2/5 222/2/5 221/2/5
f 224/2/5 222/2/5 223/2/5
f 227/2/5 226/2/5 225/2/5
f 228/2/5 226/2/5 227/2/5
f 231/2/5 230/2/5 229/2/5
f 232/2/5 230/2/5 231/2/5
f 235/2/5 234/2/5 233/2/5
f 236/2/5 234/2/5 235/2/5
f 241/3/5 238/3/5 237/3/5
f 242/3/5 238/3/5 241/3/5
f 243/3/5 240/3/5 239/3/5
f 244/3/5 240/3/5 243/3/5
f 249/3/5 246/3/5 245/3/5
f 250/3/5 246/3/5 249/3/5
f 251/3/5 248/3/5 247/3/5
f 252/3/5 248/3/5 251/3/5
f 257/3/5 254/3/5 253/3/5
f 258/3/5 254/3/5 257/3/5
f 259/3/5 256/3/5 255/3/5
f 260/3/5 256/3/5 259/3/5
f 261/3/5 258/3/5 257/3/5
f 262/3/5 258/3/5 261/3/5
f 263/3/5 260/3/5 259/3/5
f 264/3/5 260/3/5 263/3/5
f 265/3/5 262/3/5 261/3/5
f 266/3/5 262/3/5 265/3/5
f 267/3/5 264/3/5 263/3/5
f 268/3/5 264/3/5 267/3/5
f 269/3/6 270/3/6 274/3/6
f 271/3/6 272/3/6 275/3/6
f 273/3/6 274/3/6 277/3/6
f 274/3/6 270/3/6 278/3/6
f 277/3/6 274/3/6 278/3/6
f 278/3/6 270/3/6 279/3/6
f 275/3/6 276/3/6 280/3/6
f 271/3/6 275/3/6 280/3/6
f 280/3/6 276/3/6 281/3/6
f 281/3/6 276/3/6 282/3/6
f 278/3/6 279/3/6 284/3/6
f 280/3/6 281/3/6 284/3/6
f 279/3/6 280/3/6 284/3/6
f 284/3/6 281/3/6 285/3/6
f 285/3/6 281/3/6 286/3/6
f 286/3/6 281/3/6 287/3/6
f 283/3/6 284/3/6 289/3/6
f 284/3/6 285/3/6 289/3/6
f 289/3/6 285/3/6 290/3/6
f 287/3/6 288/3/6 291/3/6
f 286/3/6 287/3/6 291/3/6
f 291/3/6 288/3/6 292/3/6
f 290/3/6 285/3/6 293/3/6
f 293/3/6 285/3/6 294/3/6
f 286/3/6 291/3/6 295/3/6
f 295/3/6 291/3/6 296/3/6
