# MagicaVoxel @ Ephtracy

# material
mtllib CONST_APRIX01.mtl
usemtl palette

# normals
vn -1 0 0
vn 1 0 0
vn 0 0 1
vn 0 0 -1
vn 0 -1 0
vn 0 1 0

# texcoords
vt 0.716797 0.5
vt 0.775391 0.5
vt 0.958984 0.5
vt 0.962891 0.5

# verts
v -50 40 -0
v -50 40 -1
v -50 60 -0
v -50 60 -1
v -47 42 1
v -47 42 -0
v -47 58 1
v -47 58 -0
v -36 42 1
v -36 42 -0
v -36 48 1
v -36 48 -0
v -36 51 1
v -36 51 -0
v -36 56 1
v -36 56 -0
v -30 40 1
v -30 40 -0
v -30 60 1
v -30 60 -0
v -29 41 2
v -29 41 1
v -29 59 2
v -29 59 1
v -16 50 2
v -16 50 1
v -16 55 2
v -16 55 1
v -9 41 1
v -9 41 -0
v -9 58 1
v -9 58 -0
v -2 41 1
v -2 41 -0
v -2 47 1
v -2 47 -0
v 6 50 1
v 6 50 -0
v 6 56 1
v 6 56 -0
v 11 41 1
v 11 41 -0
v 11 45 1
v 11 45 -0
v 11 55 1
v 11 55 -0
v 11 59 1
v 11 59 -0
v 18 45 1
v 18 45 -0
v 18 55 1
v 18 55 -0
v 31 41 1
v 31 41 -0
v 31 45 1
v 31 45 -0
v 31 55 1
v 31 55 -0
v 31 59 1
v 31 59 -0
v 34 45 1
v 34 45 -0
v 34 47 1
v 34 47 -0
v 34 53 1
v 34 53 -0
v 34 55 1
v 34 55 -0
v 36 47 1
v 36 47 -0
v 36 53 1
v 36 53 -0
v 42 44 1
v 42 44 -0
v 42 46 1
v 42 46 -0
v 42 54 1
v 42 54 -0
v 42 56 1
v 42 56 -0
v 46 41 1
v 46 41 -0
v 46 44 1
v 46 44 -0
v 46 56 1
v 46 56 -0
v 46 59 1
v 46 59 -0
v -43 42 1
v -43 42 -0
v -43 48 1
v -43 48 -0
v -43 51 1
v -43 51 -0
v -43 56 1
v -43 56 -0
v -32 42 1
v -32 42 -0
v -32 58 1
v -32 58 -0
v -22 41 2
v -22 41 1
v -22 48 2
v -22 48 1
v -22 50 2
v -22 50 1
v -22 55 2
v -22 55 1
v -11 48 2
v -11 48 1
v -11 59 2
v -11 59 1
v -10 40 1
v -10 40 -0
v -10 60 1
v -10 60 -0
v -6 41 1
v -6 41 -0
v -6 47 1
v -6 47 -0
v -3 50 1
v -3 50 -0
v -3 56 1
v -3 56 -0
v 1 44 1
v 1 44 -0
v 1 48 1
v 1 48 -0
v 9 41 1
v 9 41 -0
v 9 44 1
v 9 44 -0
v 9 48 1
v 9 48 -0
v 9 58 1
v 9 58 -0
v 23 45 1
v 23 45 -0
v 23 55 1
v 23 55 -0
v 29 41 1
v 29 41 -0
v 29 45 1
v 29 45 -0
v 29 55 1
v 29 55 -0
v 29 59 1
v 29 59 -0
v 34 41 1
v 34 41 -0
v 34 44 1
v 34 44 -0
v 34 56 1
v 34 56 -0
v 34 59 1
v 34 59 -0
v 38 44 1
v 38 44 -0
v 38 46 1
v 38 46 -0
v 38 54 1
v 38 54 -0
v 38 56 1
v 38 56 -0
v 44 47 1
v 44 47 -0
v 44 53 1
v 44 53 -0
v 46 45 1
v 46 45 -0
v 46 47 1
v 46 47 -0
v 46 53 1
v 46 53 -0
v 46 55 1
v 46 55 -0
v 49 41 1
v 49 41 -0
v 49 45 1
v 49 45 -0
v 49 55 1
v 49 55 -0
v 49 59 1
v 49 59 -0
v 50 40 -0
v 50 40 -1
v 50 60 -0
v 50 60 -1
v -29 41 2
v -29 59 2
v -22 41 2
v -22 48 2
v -22 50 2
v -22 55 2
v -16 50 2
v -16 55 2
v -11 48 2
v -11 59 2
v -47 42 1
v -47 58 1
v -43 42 1
v -43 48 1
v -43 51 1
v -43 56 1
v -36 42 1
v -36 48 1
v -36 51 1
v -36 56 1
v -32 42 1
v -32 58 1
v -30 40 1
v -30 60 1
v -29 41 1
v -29 59 1
v -22 41 1
v -22 48 1
v -22 50 1
v -22 55 1
v -16 50 1
v -16 55 1
v -11 48 1
v -11 59 1
v -10 40 1
v -10 60 1
v -9 41 1
v -9 58 1
v -6 41 1
v -6 47 1
v -3 50 1
v -3 56 1
v -2 41 1
v -2 47 1
v 1 44 1
v 1 48 1
v 6 50 1
v 6 56 1
v 9 41 1
v 9 44 1
v 9 48 1
v 9 58 1
v 11 41 1
v 11 45 1
v 11 55 1
v 11 59 1
v 18 45 1
v 18 55 1
v 23 45 1
v 23 55 1
v 29 41 1
v 29 45 1
v 29 55 1
v 29 59 1
v 31 41 1
v 31 45 1
v 31 55 1
v 31 59 1
v 34 41 1
v 34 44 1
v 34 45 1
v 34 47 1
v 34 53 1
v 34 55 1
v 34 56 1
v 34 59 1
v 36 47 1
v 36 53 1
v 38 44 1
v 38 46 1
v 38 54 1
v 38 56 1
v 42 44 1
v 42 46 1
v 42 54 1
v 42 56 1
v 44 47 1
v 44 53 1
v 46 41 1
v 46 44 1
v 46 45 1
v 46 47 1
v 46 53 1
v 46 55 1
v 46 56 1
v 46 59 1
v 49 41 1
v 49 45 1
v 49 55 1
v 49 59 1
v -50 40 -0
v -50 60 -0
v -47 42 -0
v -47 58 -0
v -43 42 -0
v -43 48 -0
v -43 51 -0
v -43 56 -0
v -36 42 -0
v -36 48 -0
v -36 51 -0
v -36 56 -0
v -32 42 -0
v -32 58 -0
v -30 40 -0
v -30 60 -0
v -10 40 -0
v -10 60 -0
v -9 41 -0
v -9 58 -0
v -6 41 -0
v -6 47 -0
v -3 50 -0
v -3 56 -0
v -2 41 -0
v -2 47 -0
v 1 44 -0
v 1 48 -0
v 6 50 -0
v 6 56 -0
v 9 41 -0
v 9 44 -0
v 9 48 -0
v 9 58 -0
v 10 40 -0
v 10 60 -0
v 11 41 -0
v 11 45 -0
v 11 55 -0
v 11 59 -0
v 18 45 -0
v 18 55 -0
v 23 45 -0
v 23 55 -0
v 29 41 -0
v 29 45 -0
v 29 55 -0
v 29 59 -0
v 30 40 -0
v 30 60 -0
v 31 41 -0
v 31 45 -0
v 31 55 -0
v 31 59 -0
v 34 41 -0
v 34 44 -0
v 34 45 -0
v 34 47 -0
v 34 53 -0
v 34 55 -0
v 34 56 -0
v 34 59 -0
v 36 47 -0
v 36 53 -0
v 38 44 -0
v 38 46 -0
v 38 54 -0
v 38 56 -0
v 42 44 -0
v 42 46 -0
v 42 54 -0
v 42 56 -0
v 44 47 -0
v 44 53 -0
v 46 41 -0
v 46 44 -0
v 46 45 -0
v 46 47 -0
v 46 53 -0
v 46 55 -0
v 46 56 -0
v 46 59 -0
v 49 41 -0
v 49 45 -0
v 49 55 -0
v 49 59 -0
v 50 40 -0
v 50 60 -0
v -50 40 -1
v -50 60 -1
v -29 40 -1
v -29 60 -1
v -10 40 -1
v -10 60 -1
v 10 40 -1
v 10 60 -1
v 30 40 -1
v 30 60 -1
v 50 40 -1
v 50 60 -1
v -30 40 1
v -10 40 1
v -50 40 -0
v -30 40 -0
v -29 40 -0
v -10 40 -0
v 10 40 -0
v 30 40 -0
v 50 40 -0
v -50 40 -1
v -29 40 -1
v -10 40 -1
v 10 40 -1
v 30 40 -1
v 50 40 -1
v -29 41 2
v -22 41 2
v -29 41 1
v -22 41 1
v -9 41 1
v -6 41 1
v -2 41 1
v 9 41 1
v 11 41 1
v 29 41 1
v 31 41 1
v 34 41 1
v 46 41 1
v 49 41 1
v -9 41 -0
v -6 41 -0
v -2 41 -0
v 9 41 -0
v 11 41 -0
v 29 41 -0
v 31 41 -0
v 34 41 -0
v 46 41 -0
v 49 41 -0
v -47 42 1
v -43 42 1
v -36 42 1
v -32 42 1
v -47 42 -0
v -43 42 -0
v -36 42 -0
v -32 42 -0
v 34 44 1
v 38 44 1
v 42 44 1
v 46 44 1
v 34 44 -0
v 38 44 -0
v 42 44 -0
v 46 44 -0
v 38 46 1
v 42 46 1
v 38 46 -0
v 42 46 -0
v -6 47 1
v -2 47 1
v -6 47 -0
v -2 47 -0
v -22 48 2
v -11 48 2
v -43 48 1
v -36 48 1
v -22 48 1
v -11 48 1
v 1 48 1
v 9 48 1
v -43 48 -0
v -36 48 -0
v 1 48 -0
v 9 48 -0
v 34 53 1
v 36 53 1
v 44 53 1
v 46 53 1
v 34 53 -0
v 36 53 -0
v 44 53 -0
v 46 53 -0
v -22 55 2
v -16 55 2
v -22 55 1
v -16 55 1
v 11 55 1
v 18 55 1
v 23 55 1
v 29 55 1
v 31 55 1
v 34 55 1
v 46 55 1
v 49 55 1
v 11 55 -0
v 18 55 -0
v 23 55 -0
v 29 55 -0
v 31 55 -0
v 34 55 -0
v 46 55 -0
v 49 55 -0
v -43 56 1
v -36 56 1
v -3 56 1
v 6 56 1
v -43 56 -0
v -36 56 -0
v -3 56 -0
v 6 56 -0
v 1 44 1
v 9 44 1
v 1 44 -0
v 9 44 -0
v 11 45 1
v 18 45 1
v 23 45 1
v 29 45 1
v 31 45 1
v 34 45 1
v 46 45 1
v 49 45 1
v 11 45 -0
v 18 45 -0
v 23 45 -0
v 29 45 -0
v 31 45 -0
v 34 45 -0
v 46 45 -0
v 49 45 -0
v 34 47 1
v 36 47 1
v 44 47 1
v 46 47 1
v 34 47 -0
v 36 47 -0
v 44 47 -0
v 46 47 -0
v -22 50 2
v -16 50 2
v -22 50 1
v -16 50 1
v -3 50 1
v 6 50 1
v -3 50 -0
v 6 50 -0
v -43 51 1
v -36 51 1
v -43 51 -0
v -36 51 -0
v 38 54 1
v 42 54 1
v 38 54 -0
v 42 54 -0
v 34 56 1
v 38 56 1
v 42 56 1
v 46 56 1
v 34 56 -0
v 38 56 -0
v 42 56 -0
v 46 56 -0
v -47 58 1
v -32 58 1
v -9 58 1
v 9 58 1
v -47 58 -0
v -32 58 -0
v -9 58 -0
v 9 58 -0
v -29 59 2
v -11 59 2
v -29 59 1
v -11 59 1
v 11 59 1
v 29 59 1
v 31 59 1
v 34 59 1
v 46 59 1
v 49 59 1
v 11 59 -0
v 29 59 -0
v 31 59 -0
v 34 59 -0
v 46 59 -0
v 49 59 -0
v -30 60 1
v -10 60 1
v -50 60 -0
v -30 60 -0
v -29 60 -0
v -10 60 -0
v 10 60 -0
v 30 60 -0
v 50 60 -0
v -50 60 -1
v -29 60 -1
v -10 60 -1
v 10 60 -1
v 30 60 -1
v 50 60 -1

# faces
f 3/1/1 2/1/1 1/1/1
f 4/1/1 2/1/1 3/1/1
f 7/2/1 6/2/1 5/2/1
f 8/2/1 6/2/1 7/2/1
f 11/2/1 10/2/1 9/2/1
f 12/2/1 10/2/1 11/2/1
f 15/2/1 14/2/1 13/2/1
f 16/2/1 14/2/1 15/2/1
f 19/3/1 18/3/1 17/3/1
f 20/3/1 18/3/1 19/3/1
f 23/4/1 22/4/1 21/4/1
f 24/4/1 22/4/1 23/4/1
f 27/4/1 26/4/1 25/4/1
f 28/4/1 26/4/1 27/4/1
f 31/2/1 30/2/1 29/2/1
f 32/2/1 30/2/1 31/2/1
f 35/2/1 34/2/1 33/2/1
f 36/2/1 34/2/1 35/2/1
f 39/2/1 38/2/1 37/2/1
f 40/2/1 38/2/1 39/2/1
f 43/4/1 42/4/1 41/4/1
f 44/4/1 42/4/1 43/4/1
f 47/4/1 46/4/1 45/4/1
f 48/4/1 46/4/1 47/4/1
f 51/4/1 50/4/1 49/4/1
f 52/4/1 50/4/1 51/4/1
f 55/2/1 54/2/1 53/2/1
f 56/2/1 54/2/1 55/2/1
f 59/2/1 58/2/1 57/2/1
f 60/2/1 58/2/1 59/2/1
f 63/2/1 62/2/1 61/2/1
f 64/2/1 62/2/1 63/2/1
f 67/2/1 66/2/1 65/2/1
f 68/2/1 66/2/1 67/2/1
f 71/2/1 70/2/1 69/2/1
f 72/2/1 70/2/1 71/2/1
f 75/2/1 74/2/1 73/2/1
f 76/2/1 74/2/1 75/2/1
f 79/2/1 78/2/1 77/2/1
f 80/2/1 78/2/1 79/2/1
f 83/2/1 82/2/1 81/2/1
f 84/2/1 82/2/1 83/2/1
f 87/2/1 86/2/1 85/2/1
f 88/2/1 86/2/1 87/2/1
f 89/2/2 90/2/2 91/2/2
f 91/2/2 90/2/2 92/2/2
f 93/2/2 94/2/2 95/2/2
f 95/2/2 94/2/2 96/2/2
f 97/2/2 98/2/2 99/2/2
f 99/2/2 98/2/2 100/2/2
f 101/4/2 102/4/2 103/4/2
f 103/4/2 102/4/2 104/4/2
f 105/4/2 106/4/2 107/4/2
f 107/4/2 106/4/2 108/4/2
f 109/4/2 110/4/2 111/4/2
f 111/4/2 110/4/2 112/4/2
f 113/3/2 114/3/2 115/3/2
f 115/3/2 114/3/2 116/3/2
f 117/2/2 118/2/2 119/2/2
f 119/2/2 118/2/2 120/2/2
f 121/2/2 122/2/2 123/2/2
f 123/2/2 122/2/2 124/2/2
f 125/2/2 126/2/2 127/2/2
f 127/2/2 126/2/2 128/2/2
f 129/2/2 130/2/2 131/2/2
f 131/2/2 130/2/2 132/2/2
f 133/2/2 134/2/2 135/2/2
f 135/2/2 134/2/2 136/2/2
f 137/4/2 138/4/2 139/4/2
f 139/4/2 138/4/2 140/4/2
f 141/4/2 142/4/2 143/4/2
f 143/4/2 142/4/2 144/4/2
f 145/4/2 146/4/2 147/4/2
f 147/4/2 146/4/2 148/4/2
f 149/2/2 150/2/2 151/2/2
f 151/2/2 150/2/2 152/2/2
f 153/2/2 154/2/2 155/2/2
f 155/2/2 154/2/2 156/2/2
f 157/2/2 158/2/2 159/2/2
f 159/2/2 158/2/2 160/2/2
f 161/2/2 162/2/2 163/2/2
f 163/2/2 162/2/2 164/2/2
f 165/2/2 166/2/2 167/2/2
f 167/2/2 166/2/2 168/2/2
f 169/2/2 170/2/2 171/2/2
f 171/2/2 170/2/2 172/2/2
f 173/2/2 174/2/2 175/2/2
f 175/2/2 174/2/2 176/2/2
f 177/2/2 178/2/2 179/2/2
f 179/2/2 178/2/2 180/2/2
f 181/2/2 182/2/2 183/2/2
f 183/2/2 182/2/2 184/2/2
f 185/1/2 186/1/2 187/1/2
f 187/1/2 186/1/2 188/1/2
f 191/4/3 190/4/3 189/4/3
f 192/4/3 190/4/3 191/4/3
f 193/4/3 190/4/3 192/4/3
f 194/4/3 190/4/3 193/4/3
f 195/4/3 193/4/3 192/4/3
f 196/4/3 190/4/3 194/4/3
f 197/4/3 195/4/3 192/4/3
f 197/4/3 196/4/3 195/4/3
f 198/4/3 190/4/3 196/4/3
f 198/4/3 196/4/3 197/4/3
f 201/2/3 200/2/3 199/2/3
f 202/2/3 200/2/3 201/2/3
f 203/2/3 200/2/3 202/2/3
f 204/2/3 200/2/3 203/2/3
f 206/2/3 203/2/3 202/2/3
f 207/2/3 203/2/3 206/2/3
f 208/2/3 200/2/3 204/2/3
f 209/2/3 207/2/3 206/2/3
f 209/2/3 208/2/3 207/2/3
f 209/2/3 206/2/3 205/2/3
f 210/2/3 200/2/3 208/2/3
f 210/2/3 208/2/3 209/2/3
f 213/3/3 212/3/3 211/3/3
f 214/3/3 212/3/3 213/3/3
f 215/3/3 213/3/3 211/3/3
f 219/3/3 218/3/3 217/3/3
f 220/3/3 218/3/3 219/3/3
f 221/3/3 216/3/3 215/3/3
f 222/3/3 212/3/3 214/3/3
f 223/3/3 221/3/3 215/3/3
f 223/3/3 222/3/3 221/3/3
f 223/3/3 215/3/3 211/3/3
f 224/3/3 212/3/3 222/3/3
f 224/3/3 222/3/3 223/3/3
f 227/2/3 226/2/3 225/2/3
f 228/2/3 226/2/3 227/2/3
f 229/2/3 226/2/3 228/2/3
f 230/2/3 226/2/3 229/2/3
f 232/2/3 229/2/3 228/2/3
f 233/2/3 232/2/3 231/2/3
f 234/2/3 229/2/3 232/2/3
f 234/2/3 232/2/3 233/2/3
f 235/2/3 229/2/3 234/2/3
f 236/2/3 226/2/3 230/2/3
f 237/2/3 233/2/3 231/2/3
f 238/2/3 233/2/3 237/2/3
f 239/2/3 235/2/3 234/2/3
f 239/2/3 236/2/3 235/2/3
f 240/2/3 226/2/3 236/2/3
f 240/2/3 236/2/3 239/2/3
f 245/4/3 242/4/3 241/4/3
f 246/4/3 244/4/3 243/4/3
f 247/4/3 245/4/3 241/4/3
f 247/4/3 246/4/3 245/4/3
f 248/4/3 244/4/3 246/4/3
f 248/4/3 246/4/3 247/4/3
f 249/4/3 247/4/3 241/4/3
f 250/4/3 247/4/3 249/4/3
f 251/4/3 244/4/3 248/4/3
f 252/4/3 244/4/3 251/4/3
f 257/2/3 254/2/3 253/2/3
f 258/2/3 254/2/3 257/2/3
f 259/2/3 254/2/3 258/2/3
f 262/2/3 256/2/3 255/2/3
f 263/2/3 256/2/3 262/2/3
f 264/2/3 256/2/3 263/2/3
f 265/2/3 260/2/3 259/2/3
f 265/2/3 259/2/3 258/2/3
f 266/2/3 263/2/3 262/2/3
f 266/2/3 262/2/3 261/2/3
f 267/2/3 265/2/3 258/2/3
f 267/2/3 266/2/3 265/2/3
f 268/2/3 266/2/3 267/2/3
f 269/2/3 263/2/3 266/2/3
f 269/2/3 266/2/3 268/2/3
f 270/2/3 263/2/3 269/2/3
f 272/2/3 269/2/3 268/2/3
f 273/2/3 269/2/3 272/2/3
f 275/2/3 272/2/3 271/2/3
f 275/2/3 274/2/3 273/2/3
f 275/2/3 273/2/3 272/2/3
f 276/2/3 274/2/3 275/2/3
f 278/2/3 275/2/3 271/2/3
f 279/2/3 275/2/3 278/2/3
f 280/2/3 275/2/3 279/2/3
f 281/2/3 274/2/3 276/2/3
f 282/2/3 274/2/3 281/2/3
f 283/2/3 274/2/3 282/2/3
f 285/2/3 278/2/3 277/2/3
f 285/2/3 279/2/3 278/2/3
f 286/2/3 279/2/3 285/2/3
f 287/2/3 283/2/3 282/2/3
f 287/2/3 284/2/3 283/2/3
f 288/2/3 284/2/3 287/2/3
f 291/1/3 290/1/3 289/1/3
f 292/1/3 290/1/3 291/1/3
f 293/1/3 291/1/3 289/1/3
f 297/1/3 293/1/3 289/1/3
f 297/1/3 294/1/3 293/1/3
f 298/1/3 294/1/3 297/1/3
f 299/1/3 296/1/3 295/1/3
f 300/1/3 296/1/3 299/1/3
f 301/1/3 297/1/3 289/1/3
f 302/1/3 290/1/3 292/1/3
f 303/1/3 301/1/3 289/1/3
f 303/1/3 302/1/3 301/1/3
f 304/1/3 290/1/3 302/1/3
f 304/1/3 302/1/3 303/1/3
f 307/1/3 306/1/3 305/1/3
f 308/1/3 306/1/3 307/1/3
f 309/1/3 307/1/3 305/1/3
f 313/1/3 309/1/3 305/1/3
f 313/1/3 310/1/3 309/1/3
f 314/1/3 310/1/3 313/1/3
f 317/1/3 312/1/3 311/1/3
f 318/1/3 312/1/3 317/1/3
f 319/1/3 313/1/3 305/1/3
f 320/1/3 316/1/3 315/1/3
f 321/1/3 316/1/3 320/1/3
f 322/1/3 306/1/3 308/1/3
f 323/1/3 321/1/3 320/1/3
f 323/1/3 322/1/3 321/1/3
f 323/1/3 319/1/3 305/1/3
f 323/1/3 320/1/3 319/1/3
f 324/1/3 306/1/3 322/1/3
f 324/1/3 322/1/3 323/1/3
f 325/3/3 324/3/3 323/3/3
f 326/3/3 324/3/3 325/3/3
f 327/3/3 324/3/3 326/3/3
f 328/3/3 324/3/3 327/3/3
f 329/3/3 327/3/3 326/3/3
f 330/3/3 327/3/3 329/3/3
f 333/3/3 325/3/3 323/3/3
f 334/3/3 332/3/3 331/3/3
f 335/3/3 332/3/3 334/3/3
f 336/3/3 324/3/3 328/3/3
f 337/3/3 333/3/3 323/3/3
f 337/3/3 336/3/3 335/3/3
f 337/3/3 335/3/3 334/3/3
f 337/3/3 334/3/3 333/3/3
f 338/3/3 324/3/3 336/3/3
f 338/3/3 336/3/3 337/3/3
f 339/1/3 338/1/3 337/1/3
f 340/1/3 338/1/3 339/1/3
f 341/1/3 338/1/3 340/1/3
f 342/1/3 338/1/3 341/1/3
f 343/1/3 339/1/3 337/1/3
f 345/1/3 341/1/3 340/1/3
f 346/1/3 341/1/3 345/1/3
f 347/1/3 341/1/3 346/1/3
f 348/1/3 341/1/3 347/1/3
f 350/1/3 338/1/3 342/1/3
f 351/1/3 347/1/3 346/1/3
f 352/1/3 347/1/3 351/1/3
f 353/1/3 344/1/3 343/1/3
f 356/1/3 350/1/3 349/1/3
f 357/1/3 353/1/3 343/1/3
f 357/1/3 354/1/3 353/1/3
f 358/1/3 354/1/3 357/1/3
f 359/1/3 356/1/3 355/1/3
f 360/1/3 350/1/3 356/1/3
f 360/1/3 356/1/3 359/1/3
f 363/1/3 343/1/3 337/1/3
f 363/1/3 357/1/3 343/1/3
f 364/1/3 357/1/3 363/1/3
f 366/1/3 362/1/3 361/1/3
f 367/1/3 362/1/3 366/1/3
f 369/1/3 350/1/3 360/1/3
f 370/1/3 338/1/3 350/1/3
f 370/1/3 350/1/3 369/1/3
f 371/1/3 363/1/3 337/1/3
f 372/1/3 368/1/3 367/1/3
f 372/1/3 367/1/3 366/1/3
f 372/1/3 366/1/3 365/1/3
f 373/1/3 368/1/3 372/1/3
f 374/1/3 338/1/3 370/1/3
f 375/1/3 371/1/3 337/1/3
f 375/1/3 374/1/3 373/1/3
f 375/1/3 373/1/3 372/1/3
f 375/1/3 372/1/3 371/1/3
f 376/1/3 338/1/3 374/1/3
f 376/1/3 374/1/3 375/1/3
f 377/1/4 378/1/4 379/1/4
f 379/1/4 378/1/4 380/1/4
f 379/3/4 380/3/4 381/3/4
f 381/3/4 380/3/4 382/3/4
f 381/1/4 382/1/4 383/1/4
f 383/1/4 382/1/4 384/1/4
f 383/3/4 384/3/4 385/3/4
f 385/3/4 384/3/4 386/3/4
f 385/1/4 386/1/4 387/1/4
f 387/1/4 386/1/4 388/1/4
f 392/3/5 390/3/5 389/3/5
f 393/3/5 390/3/5 392/3/5
f 394/3/5 390/3/5 393/3/5
f 398/1/5 392/1/5 391/1/5
f 398/1/5 393/1/5 392/1/5
f 399/3/5 394/3/5 393/3/5
f 399/1/5 393/1/5 398/1/5
f 400/1/5 395/1/5 394/1/5
f 400/3/5 394/3/5 399/3/5
f 401/3/5 396/3/5 395/3/5
f 401/1/5 395/1/5 400/1/5
f 402/1/5 397/1/5 396/1/5
f 402/3/5 396/3/5 401/3/5
f 403/1/5 397/1/5 402/1/5
f 406/4/5 405/4/5 404/4/5
f 407/4/5 405/4/5 406/4/5
f 418/2/5 409/2/5 408/2/5
f 419/2/5 409/2/5 418/2/5
f 420/2/5 411/2/5 410/2/5
f 421/2/5 411/2/5 420/2/5
f 422/4/5 413/4/5 412/4/5
f 423/4/5 413/4/5 422/4/5
f 424/2/5 415/2/5 414/2/5
f 425/2/5 415/2/5 424/2/5
f 426/2/5 417/2/5 416/2/5
f 427/2/5 417/2/5 426/2/5
f 432/2/5 429/2/5 428/2/5
f 433/2/5 429/2/5 432/2/5
f 434/2/5 431/2/5 430/2/5
f 435/2/5 431/2/5 434/2/5
f 440/2/5 437/2/5 436/2/5
f 441/2/5 437/2/5 440/2/5
f 442/2/5 439/2/5 438/2/5
f 443/2/5 439/2/5 442/2/5
f 446/2/5 445/2/5 444/2/5
f 447/2/5 445/2/5 446/2/5
f 450/2/5 449/2/5 448/2/5
f 451/2/5 449/2/5 450/2/5
f 456/4/5 453/4/5 452/4/5
f 457/4/5 453/4/5 456/4/5
f 460/2/5 455/2/5 454/2/5
f 461/2/5 455/2/5 460/2/5
f 462/2/5 459/2/5 458/2/5
f 463/2/5 459/2/5 462/2/5
f 468/2/5 465/2/5 464/2/5
f 469/2/5 465/2/5 468/2/5
f 470/2/5 467/2/5 466/2/5
f 471/2/5 467/2/5 470/2/5
f 474/4/5 473/4/5 472/4/5
f 475/4/5 473/4/5 474/4/5
f 484/4/5 477/4/5 476/4/5
f 485/4/5 477/4/5 484/4/5
f 486/4/5 479/4/5 478/4/5
f 487/4/5 479/4/5 486/4/5
f 488/2/5 481/2/5 480/2/5
f 489/2/5 481/2/5 488/2/5
f 490/2/5 483/2/5 482/2/5
f 491/2/5 483/2/5 490/2/5
f 496/2/5 493/2/5 492/2/5
f 497/2/5 493/2/5 496/2/5
f 498/2/5 495/2/5 494/2/5
f 499/2/5 495/2/5 498/2/5
f 500/2/6 501/2/6 502/2/6
f 502/2/6 501/2/6 503/2/6
f 504/4/6 505/4/6 512/4/6
f 512/4/6 505/4/6 513/4/6
f 506/4/6 507/4/6 514/4/6
f 514/4/6 507/4/6 515/4/6
f 508/2/6 509/2/6 516/2/6
f 516/2/6 509/2/6 517/2/6
f 510/2/6 511/2/6 518/2/6
f 518/2/6 511/2/6 519/2/6
f 520/2/6 521/2/6 524/2/6
f 524/2/6 521/2/6 525/2/6
f 522/2/6 523/2/6 526/2/6
f 526/2/6 523/2/6 527/2/6
f 528/4/6 529/4/6 530/4/6
f 530/4/6 529/4/6 531/4/6
f 532/2/6 533/2/6 534/2/6
f 534/2/6 533/2/6 535/2/6
f 536/2/6 537/2/6 538/2/6
f 538/2/6 537/2/6 539/2/6
f 540/2/6 541/2/6 542/2/6
f 542/2/6 541/2/6 543/2/6
f 544/2/6 545/2/6 548/2/6
f 548/2/6 545/2/6 549/2/6
f 546/2/6 547/2/6 550/2/6
f 550/2/6 547/2/6 551/2/6
f 552/2/6 553/2/6 556/2/6
f 556/2/6 553/2/6 557/2/6
f 554/2/6 555/2/6 558/2/6
f 558/2/6 555/2/6 559/2/6
f 560/4/6 561/4/6 562/4/6
f 562/4/6 561/4/6 563/4/6
f 564/4/6 565/4/6 570/4/6
f 570/4/6 565/4/6 571/4/6
f 566/2/6 567/2/6 572/2/6
f 572/2/6 567/2/6 573/2/6
f 568/2/6 569/2/6 574/2/6
f 574/2/6 569/2/6 575/2/6
f 576/3/6 577/3/6 579/3/6
f 579/3/6 577/3/6 580/3/6
f 580/3/6 577/3/6 581/3/6
f 578/1/6 579/1/6 585/1/6
f 579/1/6 580/1/6 585/1/6
f 580/3/6 581/3/6 586/3/6
f 585/1/6 580/1/6 586/1/6
f 581/1/6 582/1/6 587/1/6
f 586/3/6 581/3/6 587/3/6
f 582/3/6 583/3/6 588/3/6
f 587/1/6 582/1/6 588/1/6
f 583/1/6 584/1/6 589/1/6
f 588/3/6 583/3/6 589/3/6
f 589/1/6 584/1/6 590/1/6
