# MagicaVoxel @ Ephtracy

# material
mtllib Others.mtl
usemtl palette

# normals
vn -1 0 0
vn 1 0 0
vn 0 0 1
vn 0 0 -1
vn 0 -1 0
vn 0 1 0

# texcoords
vt 0.841797 0.5
vt 0.904297 0.5

# verts
v -2.5 0 2.5
v -2.5 0 1.5
v -2.5 0 0.5
v -2.5 0 -0.5
v -2.5 0 -1.5
v -2.5 0 -2.5
v -2.5 1 2.5
v -2.5 1 1.5
v -2.5 1 0.5
v -2.5 1 -0.5
v -2.5 1 -1.5
v -2.5 1 -2.5
v -2.5 2 2.5
v -2.5 2 1.5
v -2.5 2 0.5
v -2.5 2 -0.5
v -2.5 2 -1.5
v -2.5 2 -2.5
v -0.5 0 2.5
v -0.5 0 1.5
v -0.5 0 0.5
v -0.5 0 -0.5
v -0.5 0 -1.5
v -0.5 0 -2.5
v -0.5 1 2.5
v -0.5 1 1.5
v -0.5 1 0.5
v -0.5 1 -0.5
v -0.5 1 -1.5
v -0.5 1 -2.5
v -0.5 2 2.5
v -0.5 2 1.5
v -0.5 2 0.5
v -0.5 2 -0.5
v -0.5 2 -1.5
v -0.5 2 -2.5
v 1.5 0 2.5
v 1.5 0 1.5
v 1.5 0 0.5
v 1.5 0 -0.5
v 1.5 0 -1.5
v 1.5 0 -2.5
v 1.5 1 2.5
v 1.5 1 1.5
v 1.5 1 0.5
v 1.5 1 -0.5
v 1.5 1 -1.5
v 1.5 1 -2.5
v 1.5 2 2.5
v 1.5 2 1.5
v 1.5 2 0.5
v 1.5 2 -0.5
v 1.5 2 -1.5
v 1.5 2 -2.5
v -1.5 0 2.5
v -1.5 0 1.5
v -1.5 0 0.5
v -1.5 0 -0.5
v -1.5 0 -1.5
v -1.5 0 -2.5
v -1.5 1 2.5
v -1.5 1 1.5
v -1.5 1 0.5
v -1.5 1 -0.5
v -1.5 1 -1.5
v -1.5 1 -2.5
v -1.5 2 2.5
v -1.5 2 1.5
v -1.5 2 0.5
v -1.5 2 -0.5
v -1.5 2 -1.5
v -1.5 2 -2.5
v 0.5 0 2.5
v 0.5 0 1.5
v 0.5 0 0.5
v 0.5 0 -0.5
v 0.5 0 -1.5
v 0.5 0 -2.5
v 0.5 1 2.5
v 0.5 1 1.5
v 0.5 1 0.5
v 0.5 1 -0.5
v 0.5 1 -1.5
v 0.5 1 -2.5
v 0.5 2 2.5
v 0.5 2 1.5
v 0.5 2 0.5
v 0.5 2 -0.5
v 0.5 2 -1.5
v 0.5 2 -2.5
v 2.5 0 2.5
v 2.5 0 1.5
v 2.5 0 0.5
v 2.5 0 -0.5
v 2.5 0 -1.5
v 2.5 0 -2.5
v 2.5 1 2.5
v 2.5 1 1.5
v 2.5 1 0.5
v 2.5 1 -0.5
v 2.5 1 -1.5
v 2.5 1 -2.5
v 2.5 2 2.5
v 2.5 2 1.5
v 2.5 2 0.5
v 2.5 2 -0.5
v 2.5 2 -1.5
v 2.5 2 -2.5
v -2.5 0 2.5
v -2.5 1 2.5
v -2.5 2 2.5
v -1.5 0 2.5
v -1.5 1 2.5
v -1.5 2 2.5
v -0.5 0 2.5
v -0.5 1 2.5
v -0.5 2 2.5
v 0.5 0 2.5
v 0.5 1 2.5
v 0.5 2 2.5
v 1.5 0 2.5
v 1.5 1 2.5
v 1.5 2 2.5
v 2.5 0 2.5
v 2.5 1 2.5
v 2.5 2 2.5
v -2.5 0 0.5
v -2.5 1 0.5
v -2.5 2 0.5
v -1.5 0 0.5
v -1.5 1 0.5
v -1.5 2 0.5
v -0.5 0 0.5
v -0.5 1 0.5
v -0.5 2 0.5
v 0.5 0 0.5
v 0.5 1 0.5
v 0.5 2 0.5
v 1.5 0 0.5
v 1.5 1 0.5
v 1.5 2 0.5
v 2.5 0 0.5
v 2.5 1 0.5
v 2.5 2 0.5
v -2.5 0 -1.5
v -2.5 1 -1.5
v -2.5 2 -1.5
v -1.5 0 -1.5
v -1.5 1 -1.5
v -1.5 2 -1.5
v -0.5 0 -1.5
v -0.5 1 -1.5
v -0.5 2 -1.5
v 0.5 0 -1.5
v 0.5 1 -1.5
v 0.5 2 -1.5
v 1.5 0 -1.5
v 1.5 1 -1.5
v 1.5 2 -1.5
v 2.5 0 -1.5
v 2.5 1 -1.5
v 2.5 2 -1.5
v -2.5 0 1.5
v -2.5 1 1.5
v -2.5 2 1.5
v -1.5 0 1.5
v -1.5 1 1.5
v -1.5 2 1.5
v -0.5 0 1.5
v -0.5 1 1.5
v -0.5 2 1.5
v 0.5 0 1.5
v 0.5 1 1.5
v 0.5 2 1.5
v 1.5 0 1.5
v 1.5 1 1.5
v 1.5 2 1.5
v 2.5 0 1.5
v 2.5 1 1.5
v 2.5 2 1.5
v -2.5 0 -0.5
v -2.5 1 -0.5
v -2.5 2 -0.5
v -1.5 0 -0.5
v -1.5 1 -0.5
v -1.5 2 -0.5
v -0.5 0 -0.5
v -0.5 1 -0.5
v -0.5 2 -0.5
v 0.5 0 -0.5
v 0.5 1 -0.5
v 0.5 2 -0.5
v 1.5 0 -0.5
v 1.5 1 -0.5
v 1.5 2 -0.5
v 2.5 0 -0.5
v 2.5 1 -0.5
v 2.5 2 -0.5
v -2.5 0 -2.5
v -2.5 1 -2.5
v -2.5 2 -2.5
v -1.5 0 -2.5
v -1.5 1 -2.5
v -1.5 2 -2.5
v -0.5 0 -2.5
v -0.5 1 -2.5
v -0.5 2 -2.5
v 0.5 0 -2.5
v 0.5 1 -2.5
v 0.5 2 -2.5
v 1.5 0 -2.5
v 1.5 1 -2.5
v 1.5 2 -2.5
v 2.5 0 -2.5
v 2.5 1 -2.5
v 2.5 2 -2.5
v -2.5 0 2.5
v -1.5 0 2.5
v -0.5 0 2.5
v 0.5 0 2.5
v 1.5 0 2.5
v 2.5 0 2.5
v -2.5 0 1.5
v -1.5 0 1.5
v -0.5 0 1.5
v 0.5 0 1.5
v 1.5 0 1.5
v 2.5 0 1.5
v -2.5 0 0.5
v -1.5 0 0.5
v -0.5 0 0.5
v 0.5 0 0.5
v 1.5 0 0.5
v 2.5 0 0.5
v -2.5 0 -0.5
v -1.5 0 -0.5
v -0.5 0 -0.5
v 0.5 0 -0.5
v 1.5 0 -0.5
v 2.5 0 -0.5
v -2.5 0 -1.5
v -1.5 0 -1.5
v -0.5 0 -1.5
v 0.5 0 -1.5
v 1.5 0 -1.5
v 2.5 0 -1.5
v -2.5 0 -2.5
v -1.5 0 -2.5
v -0.5 0 -2.5
v 0.5 0 -2.5
v 1.5 0 -2.5
v 2.5 0 -2.5
v -2.5 2 2.5
v -1.5 2 2.5
v -0.5 2 2.5
v 0.5 2 2.5
v 1.5 2 2.5
v 2.5 2 2.5
v -2.5 2 1.5
v -1.5 2 1.5
v -0.5 2 1.5
v 0.5 2 1.5
v 1.5 2 1.5
v 2.5 2 1.5
v -2.5 2 0.5
v -1.5 2 0.5
v -0.5 2 0.5
v 0.5 2 0.5
v 1.5 2 0.5
v 2.5 2 0.5
v -2.5 2 -0.5
v -1.5 2 -0.5
v -0.5 2 -0.5
v 0.5 2 -0.5
v 1.5 2 -0.5
v 2.5 2 -0.5
v -2.5 2 -1.5
v -1.5 2 -1.5
v -0.5 2 -1.5
v 0.5 2 -1.5
v 1.5 2 -1.5
v 2.5 2 -1.5
v -2.5 2 -2.5
v -1.5 2 -2.5
v -0.5 2 -2.5
v 0.5 2 -2.5
v 1.5 2 -2.5
v 2.5 2 -2.5

# faces
f 7/2/1 2/2/1 1/2/1
f 8/2/1 2/2/1 7/2/1
f 9/2/1 4/2/1 3/2/1
f 10/2/1 4/2/1 9/2/1
f 11/2/1 6/2/1 5/2/1
f 12/2/1 6/2/1 11/2/1
f 13/1/1 8/1/1 7/1/1
f 14/1/1 8/1/1 13/1/1
f 15/1/1 10/1/1 9/1/1
f 16/1/1 10/1/1 15/1/1
f 17/1/1 12/1/1 11/1/1
f 18/1/1 12/1/1 17/1/1
f 25/2/1 20/2/1 19/2/1
f 26/2/1 20/2/1 25/2/1
f 27/2/1 22/2/1 21/2/1
f 28/2/1 22/2/1 27/2/1
f 29/2/1 24/2/1 23/2/1
f 30/2/1 24/2/1 29/2/1
f 31/1/1 26/1/1 25/1/1
f 32/1/1 26/1/1 31/1/1
f 33/1/1 28/1/1 27/1/1
f 34/1/1 28/1/1 33/1/1
f 35/1/1 30/1/1 29/1/1
f 36/1/1 30/1/1 35/1/1
f 43/2/1 38/2/1 37/2/1
f 44/2/1 38/2/1 43/2/1
f 45/2/1 40/2/1 39/2/1
f 46/2/1 40/2/1 45/2/1
f 47/2/1 42/2/1 41/2/1
f 48/2/1 42/2/1 47/2/1
f 49/1/1 44/1/1 43/1/1
f 50/1/1 44/1/1 49/1/1
f 51/1/1 46/1/1 45/1/1
f 52/1/1 46/1/1 51/1/1
f 53/1/1 48/1/1 47/1/1
f 54/1/1 48/1/1 53/1/1
f 55/2/2 56/2/2 61/2/2
f 61/2/2 56/2/2 62/2/2
f 57/2/2 58/2/2 63/2/2
f 63/2/2 58/2/2 64/2/2
f 59/2/2 60/2/2 65/2/2
f 65/2/2 60/2/2 66/2/2
f 61/1/2 62/1/2 67/1/2
f 67/1/2 62/1/2 68/1/2
f 63/1/2 64/1/2 69/1/2
f 69/1/2 64/1/2 70/1/2
f 65/1/2 66/1/2 71/1/2
f 71/1/2 66/1/2 72/1/2
f 73/2/2 74/2/2 79/2/2
f 79/2/2 74/2/2 80/2/2
f 75/2/2 76/2/2 81/2/2
f 81/2/2 76/2/2 82/2/2
f 77/2/2 78/2/2 83/2/2
f 83/2/2 78/2/2 84/2/2
f 79/1/2 80/1/2 85/1/2
f 85/1/2 80/1/2 86/1/2
f 81/1/2 82/1/2 87/1/2
f 87/1/2 82/1/2 88/1/2
f 83/1/2 84/1/2 89/1/2
f 89/1/2 84/1/2 90/1/2
f 91/2/2 92/2/2 97/2/2
f 97/2/2 92/2/2 98/2/2
f 93/2/2 94/2/2 99/2/2
f 99/2/2 94/2/2 100/2/2
f 95/2/2 96/2/2 101/2/2
f 101/2/2 96/2/2 102/2/2
f 97/1/2 98/1/2 103/1/2
f 103/1/2 98/1/2 104/1/2
f 99/1/2 100/1/2 105/1/2
f 105/1/2 100/1/2 106/1/2
f 101/1/2 102/1/2 107/1/2
f 107/1/2 102/1/2 108/1/2
f 112/2/3 110/2/3 109/2/3
f 113/1/3 111/1/3 110/1/3
f 113/2/3 110/2/3 112/2/3
f 114/1/3 111/1/3 113/1/3
f 118/2/3 116/2/3 115/2/3
f 119/1/3 117/1/3 116/1/3
f 119/2/3 116/2/3 118/2/3
f 120/1/3 117/1/3 119/1/3
f 124/2/3 122/2/3 121/2/3
f 125/1/3 123/1/3 122/1/3
f 125/2/3 122/2/3 124/2/3
f 126/1/3 123/1/3 125/1/3
f 130/2/3 128/2/3 127/2/3
f 131/1/3 129/1/3 128/1/3
f 131/2/3 128/2/3 130/2/3
f 132/1/3 129/1/3 131/1/3
f 136/2/3 134/2/3 133/2/3
f 137/1/3 135/1/3 134/1/3
f 137/2/3 134/2/3 136/2/3
f 138/1/3 135/1/3 137/1/3
f 142/2/3 140/2/3 139/2/3
f 143/1/3 141/1/3 140/1/3
f 143/2/3 140/2/3 142/2/3
f 144/1/3 141/1/3 143/1/3
f 148/2/3 146/2/3 145/2/3
f 149/1/3 147/1/3 146/1/3
f 149/2/3 146/2/3 148/2/3
f 150/1/3 147/1/3 149/1/3
f 154/2/3 152/2/3 151/2/3
f 155/1/3 153/1/3 152/1/3
f 155/2/3 152/2/3 154/2/3
f 156/1/3 153/1/3 155/1/3
f 160/2/3 158/2/3 157/2/3
f 161/1/3 159/1/3 158/1/3
f 161/2/3 158/2/3 160/2/3
f 162/1/3 159/1/3 161/1/3
f 163/2/4 164/2/4 166/2/4
f 164/1/4 165/1/4 167/1/4
f 166/2/4 164/2/4 167/2/4
f 167/1/4 165/1/4 168/1/4
f 169/2/4 170/2/4 172/2/4
f 170/1/4 171/1/4 173/1/4
f 172/2/4 170/2/4 173/2/4
f 173/1/4 171/1/4 174/1/4
f 175/2/4 176/2/4 178/2/4
f 176/1/4 177/1/4 179/1/4
f 178/2/4 176/2/4 179/2/4
f 179/1/4 177/1/4 180/1/4
f 181/2/4 182/2/4 184/2/4
f 182/1/4 183/1/4 185/1/4
f 184/2/4 182/2/4 185/2/4
f 185/1/4 183/1/4 186/1/4
f 187/2/4 188/2/4 190/2/4
f 188/1/4 189/1/4 191/1/4
f 190/2/4 188/2/4 191/2/4
f 191/1/4 189/1/4 192/1/4
f 193/2/4 194/2/4 196/2/4
f 194/1/4 195/1/4 197/1/4
f 196/2/4 194/2/4 197/2/4
f 197/1/4 195/1/4 198/1/4
f 199/2/4 200/2/4 202/2/4
f 200/1/4 201/1/4 203/1/4
f 202/2/4 200/2/4 203/2/4
f 203/1/4 201/1/4 204/1/4
f 205/2/4 206/2/4 208/2/4
f 206/1/4 207/1/4 209/1/4
f 208/2/4 206/2/4 209/2/4
f 209/1/4 207/1/4 210/1/4
f 211/2/4 212/2/4 214/2/4
f 212/1/4 213/1/4 215/1/4
f 214/2/4 212/2/4 215/2/4
f 215/1/4 213/1/4 216/1/4
f 223/2/5 218/2/5 217/2/5
f 224/2/5 218/2/5 223/2/5
f 225/2/5 220/2/5 219/2/5
f 226/2/5 220/2/5 225/2/5
f 227/2/5 222/2/5 221/2/5
f 228/2/5 222/2/5 227/2/5
f 235/2/5 230/2/5 229/2/5
f 236/2/5 230/2/5 235/2/5
f 237/2/5 232/2/5 231/2/5
f 238/2/5 232/2/5 237/2/5
f 239/2/5 234/2/5 233/2/5
f 240/2/5 234/2/5 239/2/5
f 247/2/5 242/2/5 241/2/5
f 248/2/5 242/2/5 247/2/5
f 249/2/5 244/2/5 243/2/5
f 250/2/5 244/2/5 249/2/5
f 251/2/5 246/2/5 245/2/5
f 252/2/5 246/2/5 251/2/5
f 253/1/6 254/1/6 259/1/6
f 259/1/6 254/1/6 260/1/6
f 255/1/6 256/1/6 261/1/6
f 261/1/6 256/1/6 262/1/6
f 257/1/6 258/1/6 263/1/6
f 263/1/6 258/1/6 264/1/6
f 265/1/6 266/1/6 271/1/6
f 271/1/6 266/1/6 272/1/6
f 267/1/6 268/1/6 273/1/6
f 273/1/6 268/1/6 274/1/6
f 269/1/6 270/1/6 275/1/6
f 275/1/6 270/1/6 276/1/6
f 277/1/6 278/1/6 283/1/6
f 283/1/6 278/1/6 284/1/6
f 279/1/6 280/1/6 285/1/6
f 285/1/6 280/1/6 286/1/6
f 281/1/6 282/1/6 287/1/6
f 287/1/6 282/1/6 288/1/6
