# MagicaVoxel @ Ephtracy

# material
mtllib Earth.mtl
usemtl palette

# normals
vn -1 0 0
vn 1 0 0
vn 0 0 1
vn 0 0 -1
vn 0 -1 0
vn 0 1 0

# texcoords
vt 0.345703 0.5
vt 0.349609 0.5
vt 0.447266 0.5
vt 0.451172 0.5
vt 0.482422 0.5
vt 0.490234 0.5
vt 0.732422 0.5
vt 0.751953 0.5
vt 0.763672 0.5
vt 0.771484 0.5
vt 0.794922 0.5
vt 0.806641 0.5
vt 0.810547 0.5

# verts
v -10 0 10
v -10 0 -10
v -10 1 9
v -10 1 -9
v -10 13 2
v -10 13 -6
v -10 15 -6
v -10 15 -8
v -10 16 1
v -10 16 -0
v -10 16 -7
v -10 17 1
v -10 17 -0
v -10 18 -6
v -10 18 -7
v -10 19 9
v -10 19 2
v -10 19 1
v -10 19 -6
v -10 19 -7
v -10 19 -8
v -10 19 -9
v -10 20 10
v -10 20 -10
v 10 0 10
v 10 0 -10
v 10 1 9
v 10 1 -4
v 10 1 -5
v 10 1 -8
v 10 1 -9
v 10 2 -8
v 10 2 -9
v 10 3 4
v 10 3 -2
v 10 3 -5
v 10 3 -7
v 10 4 -5
v 10 4 -7
v 10 4 -9
v 10 5 -4
v 10 5 -9
v 10 7 -5
v 10 7 -8
v 10 8 9
v 10 8 4
v 10 8 -0
v 10 8 -2
v 10 8 -5
v 10 8 -7
v 10 9 9
v 10 9 2
v 10 9 1
v 10 9 -5
v 10 9 -6
v 10 10 2
v 10 10 1
v 10 10 -5
v 10 10 -6
v 10 11 -7
v 10 11 -8
v 10 12 9
v 10 12 8
v 10 12 -0
v 10 12 -7
v 10 13 9
v 10 13 8
v 10 13 1
v 10 14 9
v 10 14 -7
v 10 17 9
v 10 17 -7
v 10 19 9
v 10 19 -9
v 10 20 10
v 10 20 -10
v -10 0 10
v -10 20 10
v -9 1 10
v -9 19 10
v -8 14 10
v -8 15 10
v -7 1 10
v -7 3 10
v -7 9 10
v -7 14 10
v -7 15 10
v -6 1 10
v -6 3 10
v -6 8 10
v -6 10 10
v -6 13 10
v -6 14 10
v -6 16 10
v -5 10 10
v -5 12 10
v -5 14 10
v -5 16 10
v -4 12 10
v -4 13 10
v -4 16 10
v -3 10 10
v -3 13 10
v -3 15 10
v -2 8 10
v -2 9 10
v -1 9 10
v -1 11 10
v -1 13 10
v 2 1 10
v 2 8 10
v 2 11 10
v 3 1 10
v 3 9 10
v 3 10 10
v 3 11 10
v 5 12 10
v 5 15 10
v 6 13 10
v 6 16 10
v 9 1 10
v 9 9 10
v 9 10 10
v 9 12 10
v 9 13 10
v 9 19 10
v 10 0 10
v 10 20 10
v -10 0 -10
v -10 20 -10
v -9 1 -10
v -9 3 -10
v -9 4 -10
v -9 19 -10
v -7 2 -10
v -7 3 -10
v -6 2 -10
v -6 4 -10
v -6 13 -10
v -6 16 -10
v -5 2 -10
v -5 3 -10
v -5 13 -10
v -5 15 -10
v -4 2 -10
v -4 3 -10
v -4 4 -10
v -4 6 -10
v -4 7 -10
v -4 13 -10
v -3 6 -10
v -3 7 -10
v -3 8 -10
v -3 9 -10
v -3 11 -10
v -3 12 -10
v -3 15 -10
v -3 16 -10
v -2 3 -10
v -2 4 -10
v -2 6 -10
v -2 7 -10
v -2 8 -10
v -2 9 -10
v -2 14 -10
v -2 17 -10
v -1 4 -10
v -1 6 -10
v -1 7 -10
v -1 8 -10
v -1 12 -10
v -1 14 -10
v -1 15 -10
v -1 16 -10
v 0 6 -10
v 0 7 -10
v 0 11 -10
v 0 15 -10
v 2 1 -10
v 2 2 -10
v 3 1 -10
v 3 2 -10
v 3 5 -10
v 4 2 -10
v 4 4 -10
v 4 6 -10
v 4 13 -10
v 5 3 -10
v 5 4 -10
v 5 5 -10
v 5 6 -10
v 5 7 -10
v 5 13 -10
v 5 14 -10
v 6 3 -10
v 6 4 -10
v 6 5 -10
v 6 7 -10
v 6 13 -10
v 6 14 -10
v 6 15 -10
v 6 16 -10
v 8 15 -10
v 8 17 -10
v 9 1 -10
v 9 19 -10
v 10 0 -10
v 10 20 -10
v -10 0 10
v 10 0 10
v -9 0 9
v 9 0 9
v 0 0 7
v 3 0 7
v 1 0 6
v 2 0 6
v -3 0 2
v 0 0 2
v -2 0 1
v 1 0 1
v -7 0 -0
v -3 0 -0
v -6 0 -1
v -2 0 -1
v -6 0 -5
v -3 0 -5
v -7 0 -6
v -4 0 -6
v -3 0 -6
v 0 0 -6
v -4 0 -7
v -1 0 -7
v -9 0 -8
v -1 0 -8
v 0 0 -8
v -9 0 -9
v 2 0 -9
v 3 0 -9
v 9 0 -9
v -10 0 -10
v 10 0 -10
v -10 20 10
v 10 20 10
v -9 20 9
v 9 20 9
v -6 20 6
v 6 20 6
v -2 20 3
v 2 20 3
v -2 20 -1
v 2 20 -1
v -6 20 -6
v 6 20 -6
v -9 20 -9
v 9 20 -9
v -10 20 -10
v 10 20 -10

# faces
f 3/13/1 2/13/1 1/13/1
f 4/13/1 2/13/1 3/13/1
f 5/12/1 4/12/1 3/12/1
f 6/12/1 4/12/1 5/12/1
f 7/10/1 6/10/1 5/10/1
f 7/12/1 4/12/1 6/12/1
f 8/12/1 4/12/1 7/12/1
f 9/10/1 7/10/1 5/10/1
f 9/10/1 8/10/1 7/10/1
f 10/10/1 8/10/1 9/10/1
f 11/10/1 8/10/1 10/10/1
f 12/10/1 9/10/1 5/10/1
f 12/8/1 10/8/1 9/8/1
f 13/7/1 11/7/1 10/7/1
f 13/8/1 10/8/1 12/8/1
f 14/7/1 13/7/1 12/7/1
f 14/7/1 11/7/1 13/7/1
f 15/10/1 8/10/1 11/10/1
f 15/7/1 11/7/1 14/7/1
f 16/13/1 3/13/1 1/13/1
f 16/12/1 5/12/1 3/12/1
f 17/10/1 12/10/1 5/10/1
f 17/12/1 5/12/1 16/12/1
f 18/7/1 14/7/1 12/7/1
f 18/10/1 12/10/1 17/10/1
f 19/8/1 15/8/1 14/8/1
f 19/7/1 14/7/1 18/7/1
f 20/10/1 8/10/1 15/10/1
f 20/8/1 15/8/1 19/8/1
f 21/12/1 4/12/1 8/12/1
f 21/10/1 8/10/1 20/10/1
f 22/13/1 2/13/1 4/13/1
f 22/12/1 4/12/1 21/12/1
f 23/13/1 19/13/1 18/13/1
f 23/13/1 21/13/1 20/13/1
f 23/13/1 22/13/1 21/13/1
f 23/13/1 16/13/1 1/13/1
f 23/13/1 17/13/1 16/13/1
f 23/13/1 20/13/1 19/13/1
f 23/13/1 18/13/1 17/13/1
f 24/13/1 2/13/1 22/13/1
f 24/13/1 22/13/1 23/13/1
f 25/13/2 26/13/2 27/13/2
f 27/13/2 26/13/2 28/13/2
f 28/13/2 26/13/2 29/13/2
f 29/13/2 26/13/2 30/13/2
f 30/13/2 26/13/2 31/13/2
f 29/2/2 30/2/2 32/2/2
f 30/1/2 31/1/2 32/1/2
f 31/13/2 26/13/2 33/13/2
f 32/1/2 31/1/2 33/1/2
f 27/12/2 28/12/2 34/12/2
f 34/12/2 28/12/2 35/12/2
f 28/10/2 29/10/2 36/10/2
f 29/2/2 32/2/2 36/2/2
f 32/2/2 33/2/2 36/2/2
f 36/2/2 33/2/2 37/2/2
f 28/10/2 36/10/2 38/10/2
f 36/1/2 37/1/2 38/1/2
f 37/2/2 33/2/2 39/2/2
f 38/1/2 37/1/2 39/1/2
f 33/13/2 26/13/2 40/13/2
f 39/2/2 33/2/2 40/2/2
f 38/10/2 39/10/2 41/10/2
f 35/12/2 28/12/2 41/12/2
f 39/10/2 40/10/2 41/10/2
f 28/10/2 38/10/2 41/10/2
f 40/13/2 26/13/2 42/13/2
f 41/10/2 40/10/2 42/10/2
f 41/12/2 42/12/2 43/12/2
f 43/12/2 42/12/2 44/12/2
f 25/13/2 27/13/2 45/13/2
f 27/12/2 34/12/2 45/12/2
f 34/10/2 35/10/2 46/10/2
f 45/12/2 34/12/2 46/12/2
f 46/10/2 35/10/2 47/10/2
f 35/12/2 41/12/2 48/12/2
f 47/10/2 35/10/2 48/10/2
f 41/12/2 43/12/2 48/12/2
f 43/10/2 44/10/2 49/10/2
f 48/12/2 43/12/2 49/12/2
f 49/10/2 44/10/2 50/10/2
f 46/10/2 47/10/2 51/10/2
f 25/13/2 45/13/2 51/13/2
f 45/10/2 46/10/2 51/10/2
f 51/10/2 47/10/2 52/10/2
f 52/10/2 47/10/2 53/10/2
f 47/12/2 48/12/2 54/12/2
f 49/12/2 50/12/2 54/12/2
f 48/12/2 49/12/2 54/12/2
f 54/12/2 50/12/2 55/12/2
f 52/1/2 53/1/2 56/1/2
f 51/2/2 52/2/2 56/2/2
f 53/10/2 47/10/2 57/10/2
f 56/1/2 53/1/2 57/1/2
f 54/10/2 55/10/2 58/10/2
f 47/12/2 54/12/2 58/12/2
f 55/12/2 50/12/2 59/12/2
f 58/10/2 55/10/2 59/10/2
f 50/10/2 44/10/2 60/10/2
f 59/12/2 50/12/2 60/12/2
f 58/12/2 59/12/2 60/12/2
f 44/12/2 42/12/2 61/12/2
f 60/10/2 44/10/2 61/10/2
f 56/2/2 57/2/2 62/2/2
f 51/2/2 56/2/2 62/2/2
f 25/13/2 51/13/2 62/13/2
f 62/2/2 57/2/2 63/2/2
f 58/12/2 60/12/2 64/12/2
f 60/12/2 61/12/2 64/12/2
f 47/12/2 58/12/2 64/12/2
f 57/10/2 47/10/2 64/10/2
f 64/12/2 61/12/2 65/12/2
f 62/1/2 63/1/2 66/1/2
f 25/13/2 62/13/2 66/13/2
f 63/2/2 57/2/2 67/2/2
f 66/1/2 63/1/2 67/1/2
f 64/10/2 65/10/2 68/10/2
f 67/2/2 57/2/2 68/2/2
f 57/10/2 64/10/2 68/10/2
f 25/13/2 66/13/2 69/13/2
f 66/10/2 67/10/2 69/10/2
f 67/10/2 68/10/2 69/10/2
f 68/10/2 65/10/2 70/10/2
f 69/10/2 68/10/2 70/10/2
f 65/12/2 61/12/2 70/12/2
f 25/13/2 69/13/2 71/13/2
f 69/11/2 70/11/2 71/11/2
f 70/12/2 61/12/2 72/12/2
f 71/11/2 70/11/2 72/11/2
f 25/13/2 71/13/2 73/13/2
f 71/12/2 72/12/2 73/12/2
f 72/12/2 61/12/2 74/12/2
f 73/12/2 72/12/2 74/12/2
f 61/12/2 42/12/2 74/12/2
f 42/13/2 26/13/2 74/13/2
f 25/13/2 73/13/2 75/13/2
f 73/13/2 74/13/2 75/13/2
f 74/13/2 26/13/2 76/13/2
f 75/13/2 74/13/2 76/13/2
f 79/13/3 78/13/3 77/13/3
f 80/13/3 78/13/3 79/13/3
f 81/12/3 80/12/3 79/12/3
f 82/12/3 80/12/3 81/12/3
f 83/13/3 79/13/3 77/13/3
f 83/12/3 81/12/3 79/12/3
f 84/12/3 81/12/3 83/12/3
f 85/12/3 81/12/3 84/12/3
f 86/11/3 82/11/3 81/11/3
f 86/12/3 81/12/3 85/12/3
f 87/12/3 80/12/3 82/12/3
f 87/11/3 82/11/3 86/11/3
f 88/13/3 83/13/3 77/13/3
f 88/11/3 84/11/3 83/11/3
f 89/9/3 85/9/3 84/9/3
f 89/11/3 84/11/3 88/11/3
f 90/9/3 85/9/3 89/9/3
f 91/12/3 86/12/3 85/12/3
f 91/12/3 87/12/3 86/12/3
f 92/12/3 87/12/3 91/12/3
f 93/12/3 87/12/3 92/12/3
f 94/12/3 80/12/3 87/12/3
f 94/12/3 87/12/3 93/12/3
f 95/12/3 91/12/3 85/12/3
f 95/9/3 92/9/3 91/9/3
f 96/9/3 92/9/3 95/9/3
f 97/12/3 93/12/3 92/12/3
f 97/11/3 94/11/3 93/11/3
f 98/12/3 80/12/3 94/12/3
f 98/11/3 94/11/3 97/11/3
f 99/9/3 92/9/3 96/9/3
f 99/11/3 96/11/3 95/11/3
f 100/12/3 97/12/3 92/12/3
f 100/9/3 92/9/3 99/9/3
f 100/12/3 98/12/3 97/12/3
f 101/12/3 80/12/3 98/12/3
f 101/12/3 98/12/3 100/12/3
f 102/11/3 100/11/3 99/11/3
f 102/11/3 99/11/3 95/11/3
f 102/12/3 95/12/3 85/12/3
f 103/9/3 101/9/3 100/9/3
f 103/11/3 100/11/3 102/11/3
f 104/9/3 101/9/3 103/9/3
f 105/9/3 85/9/3 90/9/3
f 105/2/3 90/2/3 89/2/3
f 105/2/3 89/2/3 88/2/3
f 106/12/3 103/12/3 102/12/3
f 106/9/3 85/9/3 105/9/3
f 106/12/3 102/12/3 85/12/3
f 107/10/3 106/10/3 105/10/3
f 107/12/3 103/12/3 106/12/3
f 108/12/3 103/12/3 107/12/3
f 109/11/3 104/11/3 103/11/3
f 109/12/3 103/12/3 108/12/3
f 110/13/3 88/13/3 77/13/3
f 110/2/3 105/2/3 88/2/3
f 111/10/3 108/10/3 107/10/3
f 111/2/3 105/2/3 110/2/3
f 111/10/3 107/10/3 105/10/3
f 112/11/3 109/11/3 108/11/3
f 112/10/3 108/10/3 111/10/3
f 113/13/3 110/13/3 77/13/3
f 113/9/3 111/9/3 110/9/3
f 113/9/3 112/9/3 111/9/3
f 114/9/3 112/9/3 113/9/3
f 115/9/3 112/9/3 114/9/3
f 116/11/3 109/11/3 112/11/3
f 116/9/3 112/9/3 115/9/3
f 117/11/3 116/11/3 115/11/3
f 117/11/3 109/11/3 116/11/3
f 118/9/3 101/9/3 104/9/3
f 118/11/3 109/11/3 117/11/3
f 118/11/3 104/11/3 109/11/3
f 119/9/3 118/9/3 117/9/3
f 120/12/3 80/12/3 101/12/3
f 120/9/3 118/9/3 119/9/3
f 120/9/3 101/9/3 118/9/3
f 121/12/3 114/12/3 113/12/3
f 121/13/3 113/13/3 77/13/3
f 122/9/3 115/9/3 114/9/3
f 122/12/3 114/12/3 121/12/3
f 123/11/3 117/11/3 115/11/3
f 123/9/3 115/9/3 122/9/3
f 124/9/3 119/9/3 117/9/3
f 124/11/3 117/11/3 123/11/3
f 125/12/3 120/12/3 119/12/3
f 125/9/3 119/9/3 124/9/3
f 126/13/3 78/13/3 80/13/3
f 126/12/3 120/12/3 125/12/3
f 126/12/3 80/12/3 120/12/3
f 127/13/3 122/13/3 121/13/3
f 127/13/3 125/13/3 124/13/3
f 127/13/3 126/13/3 125/13/3
f 127/13/3 121/13/3 77/13/3
f 127/13/3 123/13/3 122/13/3
f 127/13/3 124/13/3 123/13/3
f 128/13/3 78/13/3 126/13/3
f 128/13/3 126/13/3 127/13/3
f 129/13/4 130/13/4 131/13/4
f 131/13/4 130/13/4 132/13/4
f 132/13/4 130/13/4 133/13/4
f 133/13/4 130/13/4 134/13/4
f 131/6/4 132/6/4 135/6/4
f 132/5/4 133/5/4 136/5/4
f 135/6/4 132/6/4 136/6/4
f 131/6/4 135/6/4 137/6/4
f 135/5/4 136/5/4 137/5/4
f 136/5/4 133/5/4 138/5/4
f 137/5/4 136/5/4 138/5/4
f 133/12/4 134/12/4 138/12/4
f 138/12/4 134/12/4 139/12/4
f 139/12/4 134/12/4 140/12/4
f 131/6/4 137/6/4 141/6/4
f 137/12/4 138/12/4 141/12/4
f 138/12/4 139/12/4 141/12/4
f 141/12/4 139/12/4 142/12/4
f 139/5/4 140/5/4 143/5/4
f 142/12/4 139/12/4 143/12/4
f 143/5/4 140/5/4 144/5/4
f 141/5/4 142/5/4 145/5/4
f 131/6/4 141/6/4 145/6/4
f 142/12/4 143/12/4 146/12/4
f 145/5/4 142/5/4 146/5/4
f 146/12/4 143/12/4 147/12/4
f 147/12/4 143/12/4 148/12/4
f 148/12/4 143/12/4 149/12/4
f 143/6/4 144/6/4 150/6/4
f 149/12/4 143/12/4 150/12/4
f 148/5/4 149/5/4 151/5/4
f 147/12/4 148/12/4 151/12/4
f 149/6/4 150/6/4 152/6/4
f 151/5/4 149/5/4 152/5/4
f 152/6/4 150/6/4 153/6/4
f 153/6/4 150/6/4 154/6/4
f 154/6/4 150/6/4 155/6/4
f 155/6/4 150/6/4 156/6/4
f 144/5/4 140/5/4 157/5/4
f 156/6/4 150/6/4 157/6/4
f 150/6/4 144/6/4 157/6/4
f 140/12/4 134/12/4 158/12/4
f 157/5/4 140/5/4 158/5/4
f 145/6/4 146/6/4 159/6/4
f 146/5/4 147/5/4 159/5/4
f 147/12/4 151/12/4 160/12/4
f 159/5/4 147/5/4 160/5/4
f 151/12/4 152/12/4 160/12/4
f 152/12/4 153/12/4 160/12/4
f 160/12/4 153/12/4 161/12/4
f 161/12/4 153/12/4 162/12/4
f 153/5/4 154/5/4 163/5/4
f 162/12/4 153/12/4 163/12/4
f 154/6/4 155/6/4 164/6/4
f 163/5/4 154/5/4 164/5/4
f 156/12/4 157/12/4 165/12/4
f 157/12/4 158/12/4 165/12/4
f 158/12/4 134/12/4 166/12/4
f 165/12/4 158/12/4 166/12/4
f 159/6/4 160/6/4 167/6/4
f 160/5/4 161/5/4 167/5/4
f 161/12/4 162/12/4 168/12/4
f 167/5/4 161/5/4 168/5/4
f 162/5/4 163/5/4 169/5/4
f 168/12/4 162/12/4 169/12/4
f 163/6/4 164/6/4 170/6/4
f 169/5/4 163/5/4 170/5/4
f 155/5/4 156/5/4 171/5/4
f 156/12/4 165/12/4 171/12/4
f 165/5/4 166/5/4 172/5/4
f 171/12/4 165/12/4 172/12/4
f 172/5/4 166/5/4 173/5/4
f 173/5/4 166/5/4 174/5/4
f 167/6/4 168/6/4 175/6/4
f 168/5/4 169/5/4 175/5/4
f 169/6/4 170/6/4 176/6/4
f 175/5/4 169/5/4 176/5/4
f 164/6/4 155/6/4 177/6/4
f 176/6/4 170/6/4 177/6/4
f 170/6/4 164/6/4 177/6/4
f 172/5/4 173/5/4 177/5/4
f 171/5/4 172/5/4 177/5/4
f 155/5/4 171/5/4 177/5/4
f 173/6/4 174/6/4 178/6/4
f 177/5/4 173/5/4 178/5/4
f 129/13/4 131/13/4 179/13/4
f 175/6/4 176/6/4 179/6/4
f 177/6/4 178/6/4 179/6/4
f 159/6/4 167/6/4 179/6/4
f 145/6/4 159/6/4 179/6/4
f 176/6/4 177/6/4 179/6/4
f 167/6/4 175/6/4 179/6/4
f 131/6/4 145/6/4 179/6/4
f 179/6/4 178/6/4 180/6/4
f 129/13/4 179/13/4 181/13/4
f 179/5/4 180/5/4 181/5/4
f 180/6/4 178/6/4 182/6/4
f 181/5/4 180/5/4 182/5/4
f 182/6/4 178/6/4 183/6/4
f 181/12/4 182/12/4 184/12/4
f 182/5/4 183/5/4 184/5/4
f 184/5/4 183/5/4 185/5/4
f 183/6/4 178/6/4 186/6/4
f 186/6/4 178/6/4 187/6/4
f 184/12/4 185/12/4 188/12/4
f 185/5/4 183/5/4 189/5/4
f 188/12/4 185/12/4 189/12/4
f 183/6/4 186/6/4 190/6/4
f 189/5/4 183/5/4 190/5/4
f 186/5/4 187/5/4 191/5/4
f 190/6/4 186/6/4 191/6/4
f 191/5/4 187/5/4 192/5/4
f 187/6/4 178/6/4 193/6/4
f 192/5/4 187/5/4 193/5/4
f 193/6/4 178/6/4 194/6/4
f 184/12/4 188/12/4 195/12/4
f 188/5/4 189/5/4 195/5/4
f 189/6/4 190/6/4 196/6/4
f 195/5/4 189/5/4 196/5/4
f 191/5/4 192/5/4 197/5/4
f 196/6/4 190/6/4 197/6/4
f 190/5/4 191/5/4 197/5/4
f 192/12/4 193/12/4 198/12/4
f 197/5/4 192/5/4 198/5/4
f 193/5/4 194/5/4 199/5/4
f 198/12/4 193/12/4 199/12/4
f 194/6/4 178/6/4 200/6/4
f 199/5/4 194/5/4 200/5/4
f 178/6/4 174/6/4 201/6/4
f 200/6/4 178/6/4 201/6/4
f 174/5/4 166/5/4 202/5/4
f 201/6/4 174/6/4 202/6/4
f 199/12/4 200/12/4 203/12/4
f 200/12/4 201/12/4 203/12/4
f 201/5/4 202/5/4 203/5/4
f 196/12/4 197/12/4 203/12/4
f 198/12/4 199/12/4 203/12/4
f 197/12/4 198/12/4 203/12/4
f 195/12/4 196/12/4 203/12/4
f 202/5/4 166/5/4 204/5/4
f 203/5/4 202/5/4 204/5/4
f 166/12/4 134/12/4 204/12/4
f 195/12/4 203/12/4 205/12/4
f 184/12/4 195/12/4 205/12/4
f 203/12/4 204/12/4 205/12/4
f 129/13/4 181/13/4 205/13/4
f 181/12/4 184/12/4 205/12/4
f 204/12/4 134/12/4 206/12/4
f 205/12/4 204/12/4 206/12/4
f 134/13/4 130/13/4 206/13/4
f 129/13/4 205/13/4 207/13/4
f 205/13/4 206/13/4 207/13/4
f 206/13/4 130/13/4 208/13/4
f 207/13/4 206/13/4 208/13/4
f 211/13/5 210/13/5 209/13/5
f 212/13/5 210/13/5 211/13/5
f 213/12/5 212/12/5 211/12/5
f 214/12/5 212/12/5 213/12/5
f 215/5/5 214/5/5 213/5/5
f 216/5/5 214/5/5 215/5/5
f 217/12/5 213/12/5 211/12/5
f 218/5/5 215/5/5 213/5/5
f 218/12/5 213/12/5 217/12/5
f 219/5/5 218/5/5 217/5/5
f 220/6/5 216/6/5 215/6/5
f 220/5/5 218/5/5 219/5/5
f 220/5/5 215/5/5 218/5/5
f 221/12/5 217/12/5 211/12/5
f 222/5/5 219/5/5 217/5/5
f 222/12/5 217/12/5 221/12/5
f 223/5/5 222/5/5 221/5/5
f 224/6/5 220/6/5 219/6/5
f 224/5/5 222/5/5 223/5/5
f 224/5/5 219/5/5 222/5/5
f 225/5/5 223/5/5 221/5/5
f 225/6/5 224/6/5 223/6/5
f 226/6/5 224/6/5 225/6/5
f 227/12/5 221/12/5 211/12/5
f 227/5/5 225/5/5 221/5/5
f 227/5/5 226/5/5 225/5/5
f 228/5/5 226/5/5 227/5/5
f 229/6/5 224/6/5 226/6/5
f 229/5/5 226/5/5 228/5/5
f 230/6/5 220/6/5 224/6/5
f 230/6/5 224/6/5 229/6/5
f 231/12/5 228/12/5 227/12/5
f 231/5/5 229/5/5 228/5/5
f 231/5/5 230/5/5 229/5/5
f 232/5/5 230/5/5 231/5/5
f 233/13/5 211/13/5 209/13/5
f 233/12/5 227/12/5 211/12/5
f 233/12/5 232/12/5 231/12/5
f 233/12/5 231/12/5 227/12/5
f 234/5/5 230/5/5 232/5/5
f 234/12/5 232/12/5 233/12/5
f 235/6/5 220/6/5 230/6/5
f 235/5/5 230/5/5 234/5/5
f 236/13/5 233/13/5 209/13/5
f 236/6/5 234/6/5 233/6/5
f 236/6/5 235/6/5 234/6/5
f 237/6/5 220/6/5 235/6/5
f 237/6/5 235/6/5 236/6/5
f 237/5/5 214/5/5 216/5/5
f 237/6/5 216/6/5 220/6/5
f 238/12/5 212/12/5 214/12/5
f 238/5/5 214/5/5 237/5/5
f 239/13/5 210/13/5 212/13/5
f 239/12/5 212/12/5 238/12/5
f 240/13/5 236/13/5 209/13/5
f 240/13/5 238/13/5 237/13/5
f 240/13/5 239/13/5 238/13/5
f 240/13/5 237/13/5 236/13/5
f 241/13/5 210/13/5 239/13/5
f 241/13/5 239/13/5 240/13/5
f 242/13/6 243/13/6 244/13/6
f 244/13/6 243/13/6 245/13/6
f 244/12/6 245/12/6 246/12/6
f 246/12/6 245/12/6 247/12/6
f 246/3/6 247/3/6 248/3/6
f 248/3/6 247/3/6 249/3/6
f 246/3/6 248/3/6 250/3/6
f 248/4/6 249/4/6 250/4/6
f 249/3/6 247/3/6 251/3/6
f 250/4/6 249/4/6 251/4/6
f 244/12/6 246/12/6 252/12/6
f 246/3/6 250/3/6 252/3/6
f 250/3/6 251/3/6 252/3/6
f 251/3/6 247/3/6 253/3/6
f 252/3/6 251/3/6 253/3/6
f 247/12/6 245/12/6 253/12/6
f 242/13/6 244/13/6 254/13/6
f 244/12/6 252/12/6 254/12/6
f 252/12/6 253/12/6 254/12/6
f 253/12/6 245/12/6 255/12/6
f 254/12/6 253/12/6 255/12/6
f 245/13/6 243/13/6 255/13/6
f 242/13/6 254/13/6 256/13/6
f 254/13/6 255/13/6 256/13/6
f 255/13/6 243/13/6 257/13/6
f 256/13/6 255/13/6 257/13/6
