# MagicaVoxel @ Ephtracy

# material
mtllib CONCEPT_APRIX02_CHARACTER.mtl
usemtl palette

# normals
vn -1 0 0
vn 1 0 0
vn 0 0 1
vn 0 0 -1
vn 0 -1 0
vn 0 1 0

# texcoords
vt 0.896484 0.5
vt 0.904297 0.5
vt 0.923828 0.5
vt 0.931641 0.5
vt 0.935547 0.5
vt 0.958984 0.5

# verts
v -56 87 -2
v -56 87 -5
v -56 91 -2
v -56 91 -5
v -51 85 -0
v -51 85 -7
v -51 87 -2
v -51 87 -5
v -51 91 -2
v -51 91 -5
v -51 93 -0
v -51 93 -7
v -21 0 11
v -21 0 -8
v -21 4 11
v -21 4 -8
v -20 0 13
v -20 0 11
v -20 3 13
v -20 3 11
v -17 4 2
v -17 4 -7
v -17 51 2
v -17 51 -7
v -17 57 2
v -17 57 -7
v -16 57 -0
v -16 57 -7
v -16 79 3
v -16 79 -0
v -16 81 -7
v -16 81 -8
v -16 85 -0
v -16 85 -7
v -16 93 3
v -16 93 -0
v -16 93 -7
v -16 93 -8
v -4 93 -1
v -4 93 -7
v -4 124 -1
v -4 124 -7
v -4 126 -1
v -4 126 -7
v 10 4 2
v 10 4 -7
v 10 51 2
v 10 51 -7
v 11 0 13
v 11 0 -8
v 11 3 13
v 11 3 11
v 11 3 -8
v 11 4 11
v 11 4 2
v 11 4 -7
v 11 4 -8
v -11 0 13
v -11 0 -8
v -11 3 13
v -11 3 11
v -11 3 -8
v -11 4 11
v -11 4 2
v -11 4 -7
v -11 4 -8
v -10 4 2
v -10 4 -7
v -10 51 2
v -10 51 -7
v 4 93 -1
v 4 93 -7
v 4 124 -1
v 4 124 -7
v 4 126 -1
v 4 126 -7
v 16 57 -0
v 16 57 -7
v 16 79 3
v 16 79 -0
v 16 81 -7
v 16 81 -8
v 16 85 -0
v 16 85 -7
v 16 93 3
v 16 93 -0
v 16 93 -7
v 16 93 -8
v 17 4 2
v 17 4 -7
v 17 51 2
v 17 51 -7
v 17 57 2
v 17 57 -7
v 20 0 13
v 20 0 11
v 20 3 13
v 20 3 11
v 21 0 11
v 21 0 -8
v 21 4 11
v 21 4 -8
v 51 85 -0
v 51 85 -7
v 51 87 -2
v 51 87 -5
v 51 91 -2
v 51 91 -5
v 51 93 -0
v 51 93 -7
v 56 87 -2
v 56 87 -5
v 56 91 -2
v 56 91 -5
v -20 0 13
v -20 3 13
v -11 0 13
v -11 3 13
v 11 0 13
v 11 3 13
v 20 0 13
v 20 3 13
v -21 0 11
v -21 4 11
v -20 0 11
v -20 3 11
v -11 3 11
v -11 4 11
v 11 3 11
v 11 4 11
v 20 0 11
v 20 3 11
v 21 0 11
v 21 4 11
v -16 79 3
v -16 93 3
v 16 79 3
v 16 93 3
v -17 4 2
v -17 51 2
v -17 57 2
v -11 4 2
v -11 51 2
v -10 4 2
v -10 51 2
v 10 4 2
v 10 51 2
v 11 4 2
v 11 51 2
v 17 4 2
v 17 51 2
v 17 57 2
v -51 85 -0
v -51 93 -0
v -16 57 -0
v -16 79 -0
v -16 85 -0
v -16 93 -0
v 16 57 -0
v 16 79 -0
v 16 85 -0
v 16 93 -0
v 51 85 -0
v 51 93 -0
v -4 93 -1
v -4 124 -1
v -4 126 -1
v 4 93 -1
v 4 124 -1
v 4 126 -1
v -56 87 -2
v -56 91 -2
v -51 87 -2
v -51 91 -2
v 51 87 -2
v 51 91 -2
v 56 87 -2
v 56 91 -2
v -56 87 -5
v -56 91 -5
v -51 87 -5
v -51 91 -5
v 51 87 -5
v 51 91 -5
v 56 87 -5
v 56 91 -5
v -51 85 -7
v -51 93 -7
v -17 4 -7
v -17 51 -7
v -17 57 -7
v -16 57 -7
v -16 81 -7
v -16 85 -7
v -16 93 -7
v -11 4 -7
v -11 51 -7
v -10 4 -7
v -10 51 -7
v -4 93 -7
v -4 124 -7
v -4 126 -7
v 4 93 -7
v 4 124 -7
v 4 126 -7
v 10 4 -7
v 10 51 -7
v 11 4 -7
v 11 51 -7
v 16 57 -7
v 16 81 -7
v 16 85 -7
v 16 93 -7
v 17 4 -7
v 17 51 -7
v 17 57 -7
v 51 85 -7
v 51 93 -7
v -21 0 -8
v -21 4 -8
v -20 0 -8
v -20 3 -8
v -16 81 -8
v -16 93 -8
v -11 0 -8
v -11 3 -8
v -11 4 -8
v 11 0 -8
v 11 3 -8
v 11 4 -8
v 16 81 -8
v 16 93 -8
v 20 0 -8
v 20 3 -8
v 21 0 -8
v 21 4 -8
v -20 0 13
v -11 0 13
v 11 0 13
v 20 0 13
v -21 0 11
v -20 0 11
v 20 0 11
v 21 0 11
v -21 0 -8
v -20 0 -8
v -11 0 -8
v 11 0 -8
v 20 0 -8
v 21 0 -8
v -11 4 2
v -10 4 2
v 10 4 2
v 11 4 2
v -11 4 -7
v -10 4 -7
v 10 4 -7
v 11 4 -7
v -10 51 2
v 10 51 2
v -10 51 -7
v 10 51 -7
v -16 79 3
v 16 79 3
v -16 79 -0
v 16 79 -0
v -16 81 -7
v 16 81 -7
v -16 81 -8
v 16 81 -8
v -51 85 -0
v -16 85 -0
v 16 85 -0
v 51 85 -0
v -51 85 -7
v -16 85 -7
v 16 85 -7
v 51 85 -7
v -56 87 -2
v -51 87 -2
v 51 87 -2
v 56 87 -2
v -56 87 -5
v -51 87 -5
v 51 87 -5
v 56 87 -5
v -20 3 13
v -11 3 13
v 11 3 13
v 20 3 13
v -20 3 11
v -11 3 11
v 11 3 11
v 20 3 11
v -21 4 11
v -11 4 11
v 11 4 11
v 21 4 11
v -17 4 2
v -11 4 2
v 11 4 2
v 17 4 2
v -17 4 -7
v -11 4 -7
v 11 4 -7
v 17 4 -7
v -21 4 -8
v -11 4 -8
v 11 4 -8
v 21 4 -8
v -17 57 2
v 17 57 2
v -16 57 -0
v 16 57 -0
v -17 57 -7
v -16 57 -7
v 16 57 -7
v 17 57 -7
v -56 91 -2
v -51 91 -2
v 51 91 -2
v 56 91 -2
v -56 91 -5
v -51 91 -5
v 51 91 -5
v 56 91 -5
v -16 93 3
v 16 93 3
v -51 93 -0
v -16 93 -0
v 16 93 -0
v 51 93 -0
v -4 93 -1
v 4 93 -1
v -51 93 -7
v -16 93 -7
v -4 93 -7
v 4 93 -7
v 16 93 -7
v 51 93 -7
v -16 93 -8
v 16 93 -8
v -4 126 -1
v 4 126 -1
v -4 126 -7
v 4 126 -7

# faces
f 3/1/1 2/1/1 1/1/1
f 4/1/1 2/1/1 3/1/1
f 7/2/1 6/2/1 5/2/1
f 8/2/1 6/2/1 7/2/1
f 9/2/1 7/2/1 5/2/1
f 10/2/1 6/2/1 8/2/1
f 11/2/1 9/2/1 5/2/1
f 11/2/1 10/2/1 9/2/1
f 12/2/1 6/2/1 10/2/1
f 12/2/1 10/2/1 11/2/1
f 15/6/1 14/6/1 13/6/1
f 16/6/1 14/6/1 15/6/1
f 19/5/1 18/5/1 17/5/1
f 20/5/1 18/5/1 19/5/1
f 23/3/1 22/3/1 21/3/1
f 24/3/1 22/3/1 23/3/1
f 25/6/1 24/6/1 23/6/1
f 26/6/1 24/6/1 25/6/1
f 30/4/1 28/4/1 27/4/1
f 31/4/1 28/4/1 30/4/1
f 33/5/1 30/5/1 29/5/1
f 33/4/1 31/4/1 30/4/1
f 34/5/1 32/5/1 31/5/1
f 34/4/1 31/4/1 33/4/1
f 35/5/1 33/5/1 29/5/1
f 36/5/1 33/5/1 35/5/1
f 37/5/1 32/5/1 34/5/1
f 38/5/1 32/5/1 37/5/1
f 41/6/1 40/6/1 39/6/1
f 42/6/1 40/6/1 41/6/1
f 43/5/1 42/5/1 41/5/1
f 44/5/1 42/5/1 43/5/1
f 47/2/1 46/2/1 45/2/1
f 48/2/1 46/2/1 47/2/1
f 51/5/1 50/5/1 49/5/1
f 52/5/1 50/5/1 51/5/1
f 53/5/1 50/5/1 52/5/1
f 54/6/1 53/6/1 52/6/1
f 55/6/1 53/6/1 54/6/1
f 56/6/1 53/6/1 55/6/1
f 57/6/1 53/6/1 56/6/1
f 58/5/2 59/5/2 60/5/2
f 60/5/2 59/5/2 61/5/2
f 61/5/2 59/5/2 62/5/2
f 61/6/2 62/6/2 63/6/2
f 63/6/2 62/6/2 64/6/2
f 64/6/2 62/6/2 65/6/2
f 65/6/2 62/6/2 66/6/2
f 67/2/2 68/2/2 69/2/2
f 69/2/2 68/2/2 70/2/2
f 71/6/2 72/6/2 73/6/2
f 73/6/2 72/6/2 74/6/2
f 73/5/2 74/5/2 75/5/2
f 75/5/2 74/5/2 76/5/2
f 77/4/2 78/4/2 80/4/2
f 80/4/2 78/4/2 81/4/2
f 79/5/2 80/5/2 83/5/2
f 80/4/2 81/4/2 83/4/2
f 81/5/2 82/5/2 84/5/2
f 83/4/2 81/4/2 84/4/2
f 79/5/2 83/5/2 85/5/2
f 85/5/2 83/5/2 86/5/2
f 84/5/2 82/5/2 87/5/2
f 87/5/2 82/5/2 88/5/2
f 89/3/2 90/3/2 91/3/2
f 91/3/2 90/3/2 92/3/2
f 91/6/2 92/6/2 93/6/2
f 93/6/2 92/6/2 94/6/2
f 95/5/2 96/5/2 97/5/2
f 97/5/2 96/5/2 98/5/2
f 99/6/2 100/6/2 101/6/2
f 101/6/2 100/6/2 102/6/2
f 103/2/2 104/2/2 105/2/2
f 105/2/2 104/2/2 106/2/2
f 103/2/2 105/2/2 107/2/2
f 106/2/2 104/2/2 108/2/2
f 103/2/2 107/2/2 109/2/2
f 107/2/2 108/2/2 109/2/2
f 108/2/2 104/2/2 110/2/2
f 109/2/2 108/2/2 110/2/2
f 111/1/2 112/1/2 113/1/2
f 113/1/2 112/1/2 114/1/2
f 117/5/3 116/5/3 115/5/3
f 118/5/3 116/5/3 117/5/3
f 121/5/3 120/5/3 119/5/3
f 122/5/3 120/5/3 121/5/3
f 125/6/3 124/6/3 123/6/3
f 126/6/3 124/6/3 125/6/3
f 127/6/3 124/6/3 126/6/3
f 128/6/3 124/6/3 127/6/3
f 132/6/3 130/6/3 129/6/3
f 133/6/3 132/6/3 131/6/3
f 134/6/3 130/6/3 132/6/3
f 134/6/3 132/6/3 133/6/3
f 137/5/3 136/5/3 135/5/3
f 138/5/3 136/5/3 137/5/3
f 142/3/3 140/3/3 139/3/3
f 143/6/3 141/6/3 140/6/3
f 143/3/3 140/3/3 142/3/3
f 144/2/3 143/2/3 142/2/3
f 145/6/3 141/6/3 143/6/3
f 145/2/3 143/2/3 144/2/3
f 147/6/3 141/6/3 145/6/3
f 148/2/3 147/2/3 146/2/3
f 149/6/3 141/6/3 147/6/3
f 149/2/3 147/2/3 148/2/3
f 150/3/3 149/3/3 148/3/3
f 151/6/3 141/6/3 149/6/3
f 151/3/3 149/3/3 150/3/3
f 152/6/3 141/6/3 151/6/3
f 157/2/3 154/2/3 153/2/3
f 158/2/3 154/2/3 157/2/3
f 159/4/3 156/4/3 155/4/3
f 160/4/3 156/4/3 159/4/3
f 163/2/3 162/2/3 161/2/3
f 164/2/3 162/2/3 163/2/3
f 168/6/3 166/6/3 165/6/3
f 169/5/3 167/5/3 166/5/3
f 169/6/3 166/6/3 168/6/3
f 170/5/3 167/5/3 169/5/3
f 173/1/3 172/1/3 171/1/3
f 174/1/3 172/1/3 173/1/3
f 177/1/3 176/1/3 175/1/3
f 178/1/3 176/1/3 177/1/3
f 179/1/4 180/1/4 181/1/4
f 181/1/4 180/1/4 182/1/4
f 183/1/4 184/1/4 185/1/4
f 185/1/4 184/1/4 186/1/4
f 190/6/4 191/6/4 192/6/4
f 187/2/4 188/2/4 194/2/4
f 194/2/4 188/2/4 195/2/4
f 189/3/4 190/3/4 196/3/4
f 190/6/4 192/6/4 197/6/4
f 196/3/4 190/3/4 197/3/4
f 196/2/4 197/2/4 198/2/4
f 197/6/4 192/6/4 199/6/4
f 198/2/4 197/2/4 199/2/4
f 200/6/4 201/6/4 203/6/4
f 201/5/4 202/5/4 204/5/4
f 203/6/4 201/6/4 204/6/4
f 204/5/4 202/5/4 205/5/4
f 199/6/4 192/6/4 207/6/4
f 206/2/4 207/2/4 208/2/4
f 207/6/4 192/6/4 209/6/4
f 208/2/4 207/2/4 209/2/4
f 192/4/4 193/4/4 210/4/4
f 209/6/4 192/6/4 210/6/4
f 210/4/4 193/4/4 211/4/4
f 208/3/4 209/3/4 214/3/4
f 209/6/4 210/6/4 215/6/4
f 214/3/4 209/3/4 215/3/4
f 215/6/4 210/6/4 216/6/4
f 212/2/4 213/2/4 217/2/4
f 217/2/4 213/2/4 218/2/4
f 219/6/4 220/6/4 221/6/4
f 221/6/4 220/6/4 222/6/4
f 221/5/4 222/5/4 225/5/4
f 222/6/4 220/6/4 226/6/4
f 225/5/4 222/5/4 226/5/4
f 226/6/4 220/6/4 227/6/4
f 223/5/4 224/5/4 231/5/4
f 231/5/4 224/5/4 232/5/4
f 228/5/4 229/5/4 233/5/4
f 229/6/4 230/6/4 234/6/4
f 233/5/4 229/5/4 234/5/4
f 233/6/4 234/6/4 235/6/4
f 234/6/4 230/6/4 236/6/4
f 235/6/4 234/6/4 236/6/4
f 242/5/5 238/5/5 237/5/5
f 243/5/5 240/5/5 239/5/5
f 245/6/5 242/6/5 241/6/5
f 246/5/5 238/5/5 242/5/5
f 246/6/5 242/6/5 245/6/5
f 247/5/5 238/5/5 246/5/5
f 248/5/5 243/5/5 239/5/5
f 249/6/5 244/6/5 243/6/5
f 249/5/5 243/5/5 248/5/5
f 250/6/5 244/6/5 249/6/5
f 255/2/5 252/2/5 251/2/5
f 256/2/5 252/2/5 255/2/5
f 257/2/5 254/2/5 253/2/5
f 258/2/5 254/2/5 257/2/5
f 261/6/5 260/6/5 259/6/5
f 262/6/5 260/6/5 261/6/5
f 265/5/5 264/5/5 263/5/5
f 266/5/5 264/5/5 265/5/5
f 269/5/5 268/5/5 267/5/5
f 270/5/5 268/5/5 269/5/5
f 275/2/5 272/2/5 271/2/5
f 276/2/5 272/2/5 275/2/5
f 277/2/5 274/2/5 273/2/5
f 278/2/5 274/2/5 277/2/5
f 283/1/5 280/1/5 279/1/5
f 284/1/5 280/1/5 283/1/5
f 285/1/5 282/1/5 281/1/5
f 286/1/5 282/1/5 285/1/5
f 287/5/6 288/5/6 291/5/6
f 291/5/6 288/5/6 292/5/6
f 289/5/6 290/5/6 293/5/6
f 293/5/6 290/5/6 294/5/6
f 295/6/6 296/6/6 299/6/6
f 299/6/6 296/6/6 300/6/6
f 297/6/6 298/6/6 301/6/6
f 301/6/6 298/6/6 302/6/6
f 295/6/6 299/6/6 303/6/6
f 302/6/6 298/6/6 306/6/6
f 303/6/6 304/6/6 307/6/6
f 295/6/6 303/6/6 307/6/6
f 307/6/6 304/6/6 308/6/6
f 305/6/6 306/6/6 309/6/6
f 306/6/6 298/6/6 310/6/6
f 309/6/6 306/6/6 310/6/6
f 311/6/6 312/6/6 313/6/6
f 313/6/6 312/6/6 314/6/6
f 311/6/6 313/6/6 315/6/6
f 315/6/6 313/6/6 316/6/6
f 314/6/6 312/6/6 317/6/6
f 317/6/6 312/6/6 318/6/6
f 319/1/6 320/1/6 323/1/6
f 323/1/6 320/1/6 324/1/6
f 321/1/6 322/1/6 325/1/6
f 325/1/6 322/1/6 326/1/6
f 327/5/6 328/5/6 330/5/6
f 330/5/6 328/5/6 331/5/6
f 330/4/6 331/4/6 333/4/6
f 333/4/6 331/4/6 334/4/6
f 329/2/6 330/2/6 335/2/6
f 330/4/6 333/4/6 336/4/6
f 335/2/6 330/2/6 336/2/6
f 336/4/6 333/4/6 337/4/6
f 334/4/6 331/4/6 338/4/6
f 331/2/6 332/2/6 339/2/6
f 338/4/6 331/4/6 339/4/6
f 339/2/6 332/2/6 340/2/6
f 336/5/6 337/5/6 341/5/6
f 337/5/6 338/5/6 341/5/6
f 338/5/6 339/5/6 341/5/6
f 341/5/6 339/5/6 342/5/6
f 343/5/6 344/5/6 345/5/6
f 345/5/6 344/5/6 346/5/6
