# MagicaVoxel @ Ephtracy

# material
mtllib RoadRainbow.mtl
usemtl palette

# normals
vn -1 0 0
vn 1 0 0
vn 0 0 1
vn 0 0 -1
vn 0 -1 0
vn 0 1 0

# texcoords
vt 0.00976562 0.5
vt 0.0410156 0.5
vt 0.267578 0.5
vt 0.279297 0.5
vt 0.525391 0.5
vt 0.615234 0.5
vt 0.638672 0.5
vt 0.712891 0.5
vt 0.744141 0.5

# verts
v -4.5 0 2.5
v -4.5 0 -2.5
v -4.5 1 2.5
v -4.5 1 -2.5
v 4.5 0 2.5
v 4.5 0 -2.5
v 4.5 1 2.5
v 4.5 1 -2.5
v -4.5 0 2.5
v -4.5 1 2.5
v -3.5 0 2.5
v -3.5 1 2.5
v -2.5 0 2.5
v -2.5 1 2.5
v -1.5 0 2.5
v -1.5 1 2.5
v -0.5 0 2.5
v -0.5 1 2.5
v 0.5 0 2.5
v 0.5 1 2.5
v 1.5 0 2.5
v 1.5 1 2.5
v 2.5 0 2.5
v 2.5 1 2.5
v 3.5 0 2.5
v 3.5 1 2.5
v 4.5 0 2.5
v 4.5 1 2.5
v -4.5 0 -2.5
v -4.5 1 -2.5
v -3.5 0 -2.5
v -3.5 1 -2.5
v -2.5 0 -2.5
v -2.5 1 -2.5
v -1.5 0 -2.5
v -1.5 1 -2.5
v -0.5 0 -2.5
v -0.5 1 -2.5
v 0.5 0 -2.5
v 0.5 1 -2.5
v 1.5 0 -2.5
v 1.5 1 -2.5
v 2.5 0 -2.5
v 2.5 1 -2.5
v 3.5 0 -2.5
v 3.5 1 -2.5
v 4.5 0 -2.5
v 4.5 1 -2.5
v -4.5 0 2.5
v -3.5 0 2.5
v -2.5 0 2.5
v -1.5 0 2.5
v -0.5 0 2.5
v 0.5 0 2.5
v 1.5 0 2.5
v 2.5 0 2.5
v 3.5 0 2.5
v 4.5 0 2.5
v -4.5 0 -2.5
v -3.5 0 -2.5
v -2.5 0 -2.5
v -1.5 0 -2.5
v -0.5 0 -2.5
v 0.5 0 -2.5
v 1.5 0 -2.5
v 2.5 0 -2.5
v 3.5 0 -2.5
v 4.5 0 -2.5
v -4.5 1 2.5
v -3.5 1 2.5
v -2.5 1 2.5
v -1.5 1 2.5
v -0.5 1 2.5
v 0.5 1 2.5
v 1.5 1 2.5
v 2.5 1 2.5
v 3.5 1 2.5
v 4.5 1 2.5
v -4.5 1 -2.5
v -3.5 1 -2.5
v -2.5 1 -2.5
v -1.5 1 -2.5
v -0.5 1 -2.5
v 0.5 1 -2.5
v 1.5 1 -2.5
v 2.5 1 -2.5
v 3.5 1 -2.5
v 4.5 1 -2.5

# faces
f 3/4/1 2/4/1 1/4/1
f 4/4/1 2/4/1 3/4/1
f 5/5/2 6/5/2 7/5/2
f 7/5/2 6/5/2 8/5/2
f 11/4/3 10/4/3 9/4/3
f 12/4/3 10/4/3 11/4/3
f 13/3/3 12/3/3 11/3/3
f 14/3/3 12/3/3 13/3/3
f 15/7/3 14/7/3 13/7/3
f 16/7/3 14/7/3 15/7/3
f 17/6/3 16/6/3 15/6/3
f 18/6/3 16/6/3 17/6/3
f 19/8/3 18/8/3 17/8/3
f 20/8/3 18/8/3 19/8/3
f 21/9/3 20/9/3 19/9/3
f 22/9/3 20/9/3 21/9/3
f 23/1/3 22/1/3 21/1/3
f 24/1/3 22/1/3 23/1/3
f 25/2/3 24/2/3 23/2/3
f 26/2/3 24/2/3 25/2/3
f 27/5/3 26/5/3 25/5/3
f 28/5/3 26/5/3 27/5/3
f 29/4/4 30/4/4 31/4/4
f 31/4/4 30/4/4 32/4/4
f 31/3/4 32/3/4 33/3/4
f 33/3/4 32/3/4 34/3/4
f 33/7/4 34/7/4 35/7/4
f 35/7/4 34/7/4 36/7/4
f 35/6/4 36/6/4 37/6/4
f 37/6/4 36/6/4 38/6/4
f 37/8/4 38/8/4 39/8/4
f 39/8/4 38/8/4 40/8/4
f 39/9/4 40/9/4 41/9/4
f 41/9/4 40/9/4 42/9/4
f 41/1/4 42/1/4 43/1/4
f 43/1/4 42/1/4 44/1/4
f 43/2/4 44/2/4 45/2/4
f 45/2/4 44/2/4 46/2/4
f 45/5/4 46/5/4 47/5/4
f 47/5/4 46/5/4 48/5/4
f 59/4/5 50/4/5 49/4/5
f 60/3/5 51/3/5 50/3/5
f 60/4/5 50/4/5 59/4/5
f 61/7/5 52/7/5 51/7/5
f 61/3/5 51/3/5 60/3/5
f 62/6/5 53/6/5 52/6/5
f 62/7/5 52/7/5 61/7/5
f 63/8/5 54/8/5 53/8/5
f 63/6/5 53/6/5 62/6/5
f 64/9/5 55/9/5 54/9/5
f 64/8/5 54/8/5 63/8/5
f 65/1/5 56/1/5 55/1/5
f 65/9/5 55/9/5 64/9/5
f 66/2/5 57/2/5 56/2/5
f 66/1/5 56/1/5 65/1/5
f 67/5/5 58/5/5 57/5/5
f 67/2/5 57/2/5 66/2/5
f 68/5/5 58/5/5 67/5/5
f 69/4/6 70/4/6 79/4/6
f 70/3/6 71/3/6 80/3/6
f 79/4/6 70/4/6 80/4/6
f 71/7/6 72/7/6 81/7/6
f 80/3/6 71/3/6 81/3/6
f 72/6/6 73/6/6 82/6/6
f 81/7/6 72/7/6 82/7/6
f 73/8/6 74/8/6 83/8/6
f 82/6/6 73/6/6 83/6/6
f 74/9/6 75/9/6 84/9/6
f 83/8/6 74/8/6 84/8/6
f 75/1/6 76/1/6 85/1/6
f 84/9/6 75/9/6 85/9/6
f 76/2/6 77/2/6 86/2/6
f 85/1/6 76/1/6 86/1/6
f 77/5/6 78/5/6 87/5/6
f 86/2/6 77/2/6 87/2/6
f 87/5/6 78/5/6 88/5/6
