# MagicaVoxel @ Ephtracy

# material
mtllib CONCEPT_APRIXSTART.mtl
usemtl palette

# normals
vn -1 0 0
vn 1 0 0
vn 0 0 1
vn 0 0 -1
vn 0 -1 0
vn 0 1 0

# texcoords
vt 0.494141 0.5
vt 0.716797 0.5
vt 0.771484 0.5
vt 0.916016 0.5
vt 0.958984 0.5
vt 0.994141 0.5

# verts
v -50 0 25
v -50 0 22
v -50 0 8
v -50 0 6
v -50 0 4
v -50 0 3
v -50 0 -3
v -50 0 -4
v -50 0 -6
v -50 0 -8
v -50 0 -22
v -50 0 -25
v -50 1 25
v -50 1 22
v -50 1 8
v -50 1 6
v -50 1 4
v -50 1 3
v -50 1 -3
v -50 1 -4
v -50 1 -6
v -50 1 -8
v -50 1 -22
v -50 1 -25
v 50 0 25
v 50 0 22
v 50 0 8
v 50 0 6
v 50 0 4
v 50 0 3
v 50 0 -3
v 50 0 -4
v 50 0 -6
v 50 0 -8
v 50 0 -22
v 50 0 -25
v 50 1 25
v 50 1 22
v 50 1 8
v 50 1 6
v 50 1 4
v 50 1 3
v 50 1 -3
v 50 1 -4
v 50 1 -6
v 50 1 -8
v 50 1 -22
v 50 1 -25
v -50 0 25
v -50 1 25
v 50 0 25
v 50 1 25
v -50 0 -25
v -50 1 -25
v 50 0 -25
v 50 1 -25
v -50 0 25
v 50 0 25
v -50 0 22
v 50 0 22
v -47 0 20
v -37 0 20
v -31 0 20
v -21 0 20
v -19 0 20
v 19 0 20
v 21 0 20
v 31 0 20
v 37 0 20
v 47 0 20
v -17 0 19
v -16 0 19
v -14 0 19
v -13 0 19
v -11 0 19
v -10 0 19
v -9 0 19
v -4 0 19
v -3 0 19
v 1 0 19
v 2 0 19
v 7 0 19
v 8 0 19
v 13 0 19
v 14 0 19
v 18 0 19
v -17 0 18
v -16 0 18
v -15 0 18
v -12 0 18
v -11 0 18
v -10 0 18
v -9 0 18
v -7 0 18
v -6 0 18
v -4 0 18
v -2 0 18
v 0 0 18
v 3 0 18
v 6 0 18
v 8 0 18
v 10 0 18
v 11 0 18
v 13 0 18
v 14 0 18
v 17 0 18
v -16 0 17
v -15 0 17
v -14 0 17
v -13 0 17
v -12 0 17
v -11 0 17
v -17 0 16
v -15 0 16
v -12 0 16
v -10 0 16
v -2 0 16
v 0 0 16
v 3 0 16
v 6 0 16
v 14 0 16
v 17 0 16
v -17 0 15
v -15 0 15
v -12 0 15
v -10 0 15
v -3 0 15
v -1 0 15
v 3 0 15
v 6 0 15
v 15 0 15
v 18 0 15
v -16 0 14
v -15 0 14
v -14 0 14
v -13 0 14
v -12 0 14
v -11 0 14
v -2 0 14
v -1 0 14
v 0 0 14
v -17 0 13
v -16 0 13
v -15 0 13
v -12 0 13
v -11 0 13
v -10 0 13
v -3 0 13
v -2 0 13
v -1 0 13
v 15 0 13
v 18 0 13
v -17 0 12
v -16 0 12
v -14 0 12
v -13 0 12
v -11 0 12
v -10 0 12
v -7 0 12
v -6 0 12
v -3 0 12
v -2 0 12
v 0 0 12
v 1 0 12
v 2 0 12
v 3 0 12
v 6 0 12
v 7 0 12
v 10 0 12
v 11 0 12
v 14 0 12
v 18 0 12
v -47 0 11
v -37 0 11
v -31 0 11
v -21 0 11
v -19 0 11
v 19 0 11
v 21 0 11
v 31 0 11
v 37 0 11
v 47 0 11
v -50 0 8
v 50 0 8
v -50 0 6
v 50 0 6
v -50 0 4
v 50 0 4
v -50 0 3
v 50 0 3
v -50 0 -3
v 50 0 -3
v -50 0 -4
v 50 0 -4
v -50 0 -6
v 50 0 -6
v -50 0 -8
v 50 0 -8
v -47 0 -11
v -37 0 -11
v -31 0 -11
v -21 0 -11
v 21 0 -11
v 31 0 -11
v 37 0 -11
v 47 0 -11
v -47 0 -20
v -37 0 -20
v -31 0 -20
v -21 0 -20
v 21 0 -20
v 31 0 -20
v 37 0 -20
v 47 0 -20
v -50 0 -22
v 50 0 -22
v -50 0 -25
v 50 0 -25
v -50 1 25
v 50 1 25
v -50 1 22
v 50 1 22
v -47 1 20
v -37 1 20
v -31 1 20
v -21 1 20
v -19 1 20
v 19 1 20
v 21 1 20
v 31 1 20
v 37 1 20
v 47 1 20
v -17 1 19
v -16 1 19
v -14 1 19
v -13 1 19
v -11 1 19
v -10 1 19
v -9 1 19
v -4 1 19
v -3 1 19
v 1 1 19
v 2 1 19
v 7 1 19
v 8 1 19
v 13 1 19
v 14 1 19
v 18 1 19
v -17 1 18
v -16 1 18
v -15 1 18
v -12 1 18
v -11 1 18
v -10 1 18
v -9 1 18
v -7 1 18
v -6 1 18
v -4 1 18
v -2 1 18
v 0 1 18
v 3 1 18
v 6 1 18
v 8 1 18
v 10 1 18
v 11 1 18
v 13 1 18
v 14 1 18
v 17 1 18
v -16 1 17
v -15 1 17
v -14 1 17
v -13 1 17
v -12 1 17
v -11 1 17
v -17 1 16
v -15 1 16
v -12 1 16
v -10 1 16
v -2 1 16
v 0 1 16
v 3 1 16
v 6 1 16
v 14 1 16
v 17 1 16
v -17 1 15
v -15 1 15
v -12 1 15
v -10 1 15
v -3 1 15
v -1 1 15
v 3 1 15
v 6 1 15
v 15 1 15
v 18 1 15
v -16 1 14
v -15 1 14
v -14 1 14
v -13 1 14
v -12 1 14
v -11 1 14
v -2 1 14
v -1 1 14
v 0 1 14
v -17 1 13
v -16 1 13
v -15 1 13
v -12 1 13
v -11 1 13
v -10 1 13
v -3 1 13
v -2 1 13
v -1 1 13
v 15 1 13
v 18 1 13
v -17 1 12
v -16 1 12
v -14 1 12
v -13 1 12
v -11 1 12
v -10 1 12
v -7 1 12
v -6 1 12
v -3 1 12
v -2 1 12
v 0 1 12
v 1 1 12
v 2 1 12
v 3 1 12
v 6 1 12
v 7 1 12
v 10 1 12
v 11 1 12
v 14 1 12
v 18 1 12
v -47 1 11
v -37 1 11
v -31 1 11
v -21 1 11
v -19 1 11
v 19 1 11
v 21 1 11
v 31 1 11
v 37 1 11
v 47 1 11
v -50 1 8
v 50 1 8
v -50 1 6
v 50 1 6
v -50 1 4
v 50 1 4
v -50 1 3
v 50 1 3
v -50 1 -3
v 50 1 -3
v -50 1 -4
v 50 1 -4
v -50 1 -6
v 50 1 -6
v -50 1 -8
v 50 1 -8
v -47 1 -11
v -37 1 -11
v -31 1 -11
v -21 1 -11
v 21 1 -11
v 31 1 -11
v 37 1 -11
v 47 1 -11
v -47 1 -20
v -37 1 -20
v -31 1 -20
v -21 1 -20
v 21 1 -20
v 31 1 -20
v 37 1 -20
v 47 1 -20
v -50 1 -22
v 50 1 -22
v -50 1 -25
v 50 1 -25

# faces
f 13/5/1 2/5/1 1/5/1
f 14/6/1 3/6/1 2/6/1
f 14/5/1 2/5/1 13/5/1
f 15/4/1 4/4/1 3/4/1
f 15/6/1 3/6/1 14/6/1
f 16/3/1 5/3/1 4/3/1
f 16/4/1 4/4/1 15/4/1
f 17/4/1 6/4/1 5/4/1
f 17/3/1 5/3/1 16/3/1
f 18/2/1 7/2/1 6/2/1
f 18/4/1 6/4/1 17/4/1
f 19/4/1 8/4/1 7/4/1
f 19/2/1 7/2/1 18/2/1
f 20/3/1 9/3/1 8/3/1
f 20/4/1 8/4/1 19/4/1
f 21/4/1 10/4/1 9/4/1
f 21/3/1 9/3/1 20/3/1
f 22/6/1 11/6/1 10/6/1
f 22/4/1 10/4/1 21/4/1
f 23/5/1 12/5/1 11/5/1
f 23/6/1 11/6/1 22/6/1
f 24/5/1 12/5/1 23/5/1
f 25/5/2 26/5/2 37/5/2
f 26/6/2 27/6/2 38/6/2
f 37/5/2 26/5/2 38/5/2
f 27/4/2 28/4/2 39/4/2
f 38/6/2 27/6/2 39/6/2
f 28/3/2 29/3/2 40/3/2
f 39/4/2 28/4/2 40/4/2
f 29/4/2 30/4/2 41/4/2
f 40/3/2 29/3/2 41/3/2
f 30/2/2 31/2/2 42/2/2
f 41/4/2 30/4/2 42/4/2
f 31/4/2 32/4/2 43/4/2
f 42/2/2 31/2/2 43/2/2
f 32/3/2 33/3/2 44/3/2
f 43/4/2 32/4/2 44/4/2
f 33/4/2 34/4/2 45/4/2
f 44/3/2 33/3/2 45/3/2
f 34/6/2 35/6/2 46/6/2
f 45/4/2 34/4/2 46/4/2
f 35/5/2 36/5/2 47/5/2
f 46/6/2 35/6/2 47/6/2
f 47/5/2 36/5/2 48/5/2
f 51/5/3 50/5/3 49/5/3
f 52/5/3 50/5/3 51/5/3
f 53/5/4 54/5/4 55/5/4
f 55/5/4 54/5/4 56/5/4
f 59/5/5 58/5/5 57/5/5
f 60/5/5 58/5/5 59/5/5
f 61/6/5 60/6/5 59/6/5
f 62/6/5 60/6/5 61/6/5
f 63/6/5 60/6/5 62/6/5
f 64/6/5 60/6/5 63/6/5
f 65/6/5 60/6/5 64/6/5
f 66/6/5 60/6/5 65/6/5
f 67/6/5 60/6/5 66/6/5
f 68/6/5 60/6/5 67/6/5
f 69/6/5 60/6/5 68/6/5
f 70/6/5 60/6/5 69/6/5
f 71/5/5 66/5/5 65/5/5
f 72/5/5 66/5/5 71/5/5
f 73/5/5 66/5/5 72/5/5
f 74/5/5 66/5/5 73/5/5
f 75/5/5 66/5/5 74/5/5
f 76/5/5 66/5/5 75/5/5
f 77/5/5 66/5/5 76/5/5
f 78/5/5 66/5/5 77/5/5
f 79/5/5 66/5/5 78/5/5
f 80/5/5 66/5/5 79/5/5
f 81/5/5 66/5/5 80/5/5
f 82/5/5 66/5/5 81/5/5
f 83/5/5 66/5/5 82/5/5
f 84/5/5 66/5/5 83/5/5
f 85/5/5 66/5/5 84/5/5
f 86/5/5 66/5/5 85/5/5
f 87/5/5 71/5/5 65/5/5
f 87/1/5 72/1/5 71/1/5
f 88/5/5 73/5/5 72/5/5
f 88/1/5 72/1/5 87/1/5
f 89/5/5 73/5/5 88/5/5
f 90/5/5 75/5/5 74/5/5
f 91/1/5 76/1/5 75/1/5
f 91/5/5 75/5/5 90/5/5
f 92/5/5 77/5/5 76/5/5
f 92/1/5 76/1/5 91/1/5
f 93/6/5 78/6/5 77/6/5
f 93/5/5 77/5/5 92/5/5
f 94/6/5 78/6/5 93/6/5
f 95/6/5 78/6/5 94/6/5
f 96/5/5 79/5/5 78/5/5
f 96/6/5 78/6/5 95/6/5
f 97/6/5 80/6/5 79/6/5
f 98/6/5 80/6/5 97/6/5
f 99/6/5 82/6/5 81/6/5
f 100/6/5 82/6/5 99/6/5
f 101/5/5 83/5/5 82/5/5
f 101/6/5 84/6/5 83/6/5
f 102/6/5 84/6/5 101/6/5
f 103/6/5 84/6/5 102/6/5
f 104/5/5 85/5/5 84/5/5
f 104/6/5 84/6/5 103/6/5
f 105/6/5 86/6/5 85/6/5
f 105/5/5 85/5/5 104/5/5
f 106/6/5 86/6/5 105/6/5
f 107/5/5 88/5/5 87/5/5
f 107/1/5 89/1/5 88/1/5
f 108/5/5 73/5/5 89/5/5
f 108/1/5 89/1/5 107/1/5
f 109/1/5 74/1/5 73/1/5
f 109/5/5 73/5/5 108/5/5
f 110/5/5 90/5/5 74/5/5
f 110/1/5 74/1/5 109/1/5
f 111/1/5 91/1/5 90/1/5
f 111/5/5 90/5/5 110/5/5
f 112/5/5 92/5/5 91/5/5
f 112/1/5 91/1/5 111/1/5
f 112/5/5 93/5/5 92/5/5
f 112/5/5 94/5/5 93/5/5
f 113/5/5 87/5/5 65/5/5
f 113/5/5 108/5/5 107/5/5
f 113/5/5 107/5/5 87/5/5
f 114/1/5 109/1/5 108/1/5
f 114/5/5 108/5/5 113/5/5
f 114/1/5 110/1/5 109/1/5
f 114/1/5 111/1/5 110/1/5
f 115/5/5 112/5/5 111/5/5
f 115/1/5 111/1/5 114/1/5
f 116/5/5 94/5/5 112/5/5
f 116/5/5 112/5/5 115/5/5
f 117/5/5 98/5/5 97/5/5
f 117/6/5 97/6/5 79/6/5
f 118/6/5 80/6/5 98/6/5
f 118/5/5 98/5/5 117/5/5
f 119/6/5 99/6/5 81/6/5
f 119/5/5 100/5/5 99/5/5
f 120/6/5 82/6/5 100/6/5
f 120/5/5 100/5/5 119/5/5
f 121/5/5 104/5/5 103/5/5
f 121/5/5 106/5/5 105/5/5
f 121/5/5 105/5/5 104/5/5
f 122/6/5 86/6/5 106/6/5
f 122/5/5 106/5/5 121/5/5
f 123/1/5 115/1/5 114/1/5
f 123/1/5 114/1/5 113/1/5
f 123/5/5 113/5/5 65/5/5
f 123/1/5 116/1/5 115/1/5
f 124/1/5 116/1/5 123/1/5
f 125/1/5 116/1/5 124/1/5
f 126/5/5 94/5/5 116/5/5
f 126/1/5 116/1/5 125/1/5
f 127/5/5 96/5/5 95/5/5
f 127/5/5 79/5/5 96/5/5
f 127/6/5 117/6/5 79/6/5
f 127/6/5 118/6/5 117/6/5
f 128/6/5 118/6/5 127/6/5
f 129/6/5 119/6/5 81/6/5
f 129/6/5 120/6/5 119/6/5
f 130/6/5 82/6/5 120/6/5
f 130/6/5 120/6/5 129/6/5
f 131/6/5 122/6/5 121/6/5
f 132/5/5 66/5/5 86/5/5
f 132/6/5 122/6/5 131/6/5
f 132/6/5 86/6/5 122/6/5
f 133/5/5 124/5/5 123/5/5
f 134/1/5 125/1/5 124/1/5
f 134/5/5 124/5/5 133/5/5
f 135/1/5 125/1/5 134/1/5
f 136/1/5 125/1/5 135/1/5
f 137/5/5 126/5/5 125/5/5
f 137/1/5 125/1/5 136/1/5
f 138/5/5 126/5/5 137/5/5
f 139/5/5 128/5/5 127/5/5
f 140/6/5 118/6/5 128/6/5
f 140/5/5 128/5/5 139/5/5
f 141/6/5 80/6/5 118/6/5
f 141/6/5 118/6/5 140/6/5
f 142/5/5 133/5/5 123/5/5
f 142/5/5 123/5/5 65/5/5
f 143/1/5 134/1/5 133/1/5
f 143/5/5 133/5/5 142/5/5
f 144/5/5 135/5/5 134/5/5
f 144/1/5 134/1/5 143/1/5
f 145/5/5 137/5/5 136/5/5
f 145/1/5 138/1/5 137/1/5
f 146/5/5 126/5/5 138/5/5
f 146/1/5 138/1/5 145/1/5
f 147/5/5 94/5/5 126/5/5
f 147/5/5 126/5/5 146/5/5
f 148/5/5 139/5/5 127/5/5
f 148/5/5 127/5/5 95/5/5
f 149/6/5 140/6/5 139/6/5
f 149/5/5 139/5/5 148/5/5
f 150/5/5 141/5/5 140/5/5
f 150/6/5 140/6/5 149/6/5
f 151/6/5 131/6/5 121/6/5
f 151/5/5 132/5/5 131/5/5
f 152/5/5 66/5/5 132/5/5
f 152/5/5 132/5/5 151/5/5
f 153/5/5 142/5/5 65/5/5
f 153/1/5 143/1/5 142/1/5
f 154/5/5 144/5/5 143/5/5
f 154/1/5 143/1/5 153/1/5
f 155/1/5 136/1/5 135/1/5
f 155/5/5 144/5/5 154/5/5
f 155/5/5 135/5/5 144/5/5
f 156/5/5 146/5/5 145/5/5
f 156/1/5 136/1/5 155/1/5
f 156/5/5 145/5/5 136/5/5
f 157/1/5 147/1/5 146/1/5
f 157/5/5 146/5/5 156/5/5
f 158/5/5 94/5/5 147/5/5
f 158/1/5 147/1/5 157/1/5
f 159/6/5 95/6/5 94/6/5
f 159/5/5 94/5/5 158/5/5
f 160/5/5 148/5/5 95/5/5
f 160/6/5 95/6/5 159/6/5
f 161/6/5 149/6/5 148/6/5
f 161/5/5 148/5/5 160/5/5
f 162/5/5 150/5/5 149/5/5
f 162/6/5 149/6/5 161/6/5
f 163/5/5 141/5/5 150/5/5
f 163/5/5 150/5/5 162/5/5
f 163/6/5 80/6/5 141/6/5
f 164/5/5 81/5/5 80/5/5
f 164/6/5 80/6/5 163/6/5
f 165/6/5 129/6/5 81/6/5
f 165/5/5 81/5/5 164/5/5
f 166/5/5 130/5/5 129/5/5
f 166/6/5 129/6/5 165/6/5
f 167/6/5 82/6/5 130/6/5
f 167/5/5 130/5/5 166/5/5
f 168/5/5 101/5/5 82/5/5
f 168/6/5 82/6/5 167/6/5
f 168/5/5 102/5/5 101/5/5
f 169/6/5 103/6/5 102/6/5
f 169/5/5 102/5/5 168/5/5
f 170/5/5 121/5/5 103/5/5
f 170/6/5 103/6/5 169/6/5
f 171/6/5 152/6/5 151/6/5
f 171/5/5 121/5/5 170/5/5
f 171/6/5 151/6/5 121/6/5
f 172/5/5 66/5/5 152/5/5
f 172/6/5 152/6/5 171/6/5
f 173/6/5 61/6/5 59/6/5
f 173/5/5 62/5/5 61/5/5
f 174/6/5 63/6/5 62/6/5
f 174/5/5 62/5/5 173/5/5
f 175/5/5 64/5/5 63/5/5
f 175/6/5 63/6/5 174/6/5
f 176/6/5 65/6/5 64/6/5
f 176/5/5 64/5/5 175/5/5
f 177/5/5 172/5/5 171/5/5
f 177/6/5 65/6/5 176/6/5
f 177/5/5 162/5/5 161/5/5
f 177/5/5 156/5/5 155/5/5
f 177/5/5 171/5/5 170/5/5
f 177/5/5 153/5/5 65/5/5
f 177/5/5 169/5/5 168/5/5
f 177/5/5 168/5/5 167/5/5
f 177/5/5 160/5/5 159/5/5
f 177/5/5 157/5/5 156/5/5
f 177/5/5 161/5/5 160/5/5
f 177/5/5 163/5/5 162/5/5
f 177/5/5 154/5/5 153/5/5
f 177/5/5 158/5/5 157/5/5
f 177/5/5 170/5/5 169/5/5
f 177/5/5 159/5/5 158/5/5
f 177/5/5 155/5/5 154/5/5
f 177/5/5 167/5/5 166/5/5
f 177/5/5 166/5/5 165/5/5
f 177/5/5 165/5/5 164/5/5
f 177/5/5 164/5/5 163/5/5
f 178/5/5 66/5/5 172/5/5
f 178/5/5 172/5/5 177/5/5
f 178/6/5 67/6/5 66/6/5
f 179/5/5 68/5/5 67/5/5
f 179/6/5 67/6/5 178/6/5
f 180/6/5 69/6/5 68/6/5
f 180/5/5 68/5/5 179/5/5
f 181/5/5 70/5/5 69/5/5
f 181/6/5 69/6/5 180/6/5
f 182/6/5 60/6/5 70/6/5
f 182/5/5 70/5/5 181/5/5
f 183/6/5 177/6/5 176/6/5
f 183/6/5 176/6/5 175/6/5
f 183/6/5 182/6/5 181/6/5
f 183/6/5 179/6/5 178/6/5
f 183/6/5 178/6/5 177/6/5
f 183/6/5 180/6/5 179/6/5
f 183/6/5 181/6/5 180/6/5
f 183/6/5 175/6/5 174/6/5
f 183/6/5 174/6/5 173/6/5
f 183/6/5 173/6/5 59/6/5
f 184/6/5 60/6/5 182/6/5
f 184/6/5 182/6/5 183/6/5
f 185/4/5 184/4/5 183/4/5
f 186/4/5 184/4/5 185/4/5
f 187/3/5 186/3/5 185/3/5
f 188/3/5 186/3/5 187/3/5
f 189/4/5 188/4/5 187/4/5
f 190/4/5 188/4/5 189/4/5
f 191/2/5 190/2/5 189/2/5
f 192/2/5 190/2/5 191/2/5
f 193/4/5 192/4/5 191/4/5
f 194/4/5 192/4/5 193/4/5
f 195/3/5 194/3/5 193/3/5
f 196/3/5 194/3/5 195/3/5
f 197/4/5 196/4/5 195/4/5
f 198/4/5 196/4/5 197/4/5
f 199/6/5 198/6/5 197/6/5
f 200/6/5 198/6/5 199/6/5
f 201/6/5 198/6/5 200/6/5
f 202/6/5 198/6/5 201/6/5
f 203/6/5 198/6/5 202/6/5
f 204/6/5 198/6/5 203/6/5
f 205/6/5 198/6/5 204/6/5
f 206/6/5 198/6/5 205/6/5
f 207/6/5 199/6/5 197/6/5
f 207/5/5 200/5/5 199/5/5
f 208/6/5 201/6/5 200/6/5
f 208/5/5 200/5/5 207/5/5
f 209/5/5 202/5/5 201/5/5
f 209/6/5 201/6/5 208/6/5
f 210/6/5 203/6/5 202/6/5
f 210/5/5 202/5/5 209/5/5
f 211/5/5 204/5/5 203/5/5
f 211/6/5 203/6/5 210/6/5
f 212/6/5 205/6/5 204/6/5
f 212/5/5 204/5/5 211/5/5
f 213/5/5 206/5/5 205/5/5
f 213/6/5 205/6/5 212/6/5
f 214/6/5 198/6/5 206/6/5
f 214/5/5 206/5/5 213/5/5
f 215/6/5 213/6/5 212/6/5
f 215/6/5 212/6/5 211/6/5
f 215/6/5 214/6/5 213/6/5
f 215/6/5 211/6/5 210/6/5
f 215/6/5 210/6/5 209/6/5
f 215/6/5 209/6/5 208/6/5
f 215/6/5 208/6/5 207/6/5
f 215/6/5 207/6/5 197/6/5
f 216/6/5 198/6/5 214/6/5
f 216/6/5 214/6/5 215/6/5
f 217/5/5 216/5/5 215/5/5
f 218/5/5 216/5/5 217/5/5
f 219/5/6 220/5/6 221/5/6
f 221/5/6 220/5/6 222/5/6
f 221/6/6 222/6/6 223/6/6
f 223/6/6 222/6/6 224/6/6
f 224/6/6 222/6/6 225/6/6
f 225/6/6 222/6/6 226/6/6
f 226/6/6 222/6/6 227/6/6
f 227/6/6 222/6/6 228/6/6
f 228/6/6 222/6/6 229/6/6
f 229/6/6 222/6/6 230/6/6
f 230/6/6 222/6/6 231/6/6
f 231/6/6 222/6/6 232/6/6
f 227/5/6 228/5/6 233/5/6
f 233/5/6 228/5/6 234/5/6
f 234/5/6 228/5/6 235/5/6
f 235/5/6 228/5/6 236/5/6
f 236/5/6 228/5/6 237/5/6
f 237/5/6 228/5/6 238/5/6
f 238/5/6 228/5/6 239/5/6
f 239/5/6 228/5/6 240/5/6
f 240/5/6 228/5/6 241/5/6
f 241/5/6 228/5/6 242/5/6
f 242/5/6 228/5/6 243/5/6
f 243/5/6 228/5/6 244/5/6
f 244/5/6 228/5/6 245/5/6
f 245/5/6 228/5/6 246/5/6
f 246/5/6 228/5/6 247/5/6
f 247/5/6 228/5/6 248/5/6
f 227/5/6 233/5/6 249/5/6
f 233/1/6 234/1/6 249/1/6
f 234/5/6 235/5/6 250/5/6
f 249/1/6 234/1/6 250/1/6
f 250/5/6 235/5/6 251/5/6
f 236/5/6 237/5/6 252/5/6
f 237/1/6 238/1/6 253/1/6
f 252/5/6 237/5/6 253/5/6
f 238/5/6 239/5/6 254/5/6
f 253/1/6 238/1/6 254/1/6
f 239/6/6 240/6/6 255/6/6
f 254/5/6 239/5/6 255/5/6
f 255/6/6 240/6/6 256/6/6
f 256/6/6 240/6/6 257/6/6
f 240/5/6 241/5/6 258/5/6
f 257/6/6 240/6/6 258/6/6
f 241/6/6 242/6/6 259/6/6
f 259/6/6 242/6/6 260/6/6
f 243/6/6 244/6/6 261/6/6
f 261/6/6 244/6/6 262/6/6
f 244/5/6 245/5/6 263/5/6
f 245/6/6 246/6/6 263/6/6
f 263/6/6 246/6/6 264/6/6
f 264/6/6 246/6/6 265/6/6
f 246/5/6 247/5/6 266/5/6
f 265/6/6 246/6/6 266/6/6
f 247/6/6 248/6/6 267/6/6
f 266/5/6 247/5/6 267/5/6
f 267/6/6 248/6/6 268/6/6
f 249/5/6 250/5/6 269/5/6
f 250/1/6 251/1/6 269/1/6
f 251/5/6 235/5/6 270/5/6
f 269/1/6 251/1/6 270/1/6
f 235/1/6 236/1/6 271/1/6
f 270/5/6 235/5/6 271/5/6
f 236/5/6 252/5/6 272/5/6
f 271/1/6 236/1/6 272/1/6
f 252/1/6 253/1/6 273/1/6
f 272/5/6 252/5/6 273/5/6
f 253/5/6 254/5/6 274/5/6
f 273/1/6 253/1/6 274/1/6
f 254/5/6 255/5/6 274/5/6
f 255/5/6 256/5/6 274/5/6
f 227/5/6 249/5/6 275/5/6
f 269/5/6 270/5/6 275/5/6
f 249/5/6 269/5/6 275/5/6
f 270/1/6 271/1/6 276/1/6
f 275/5/6 270/5/6 276/5/6
f 271/1/6 272/1/6 276/1/6
f 272/1/6 273/1/6 276/1/6
f 273/5/6 274/5/6 277/5/6
f 276/1/6 273/1/6 277/1/6
f 274/5/6 256/5/6 278/5/6
f 277/5/6 274/5/6 278/5/6
f 259/5/6 260/5/6 279/5/6
f 241/6/6 259/6/6 279/6/6
f 260/6/6 242/6/6 280/6/6
f 279/5/6 260/5/6 280/5/6
f 243/6/6 261/6/6 281/6/6
f 261/5/6 262/5/6 281/5/6
f 262/6/6 244/6/6 282/6/6
f 281/5/6 262/5/6 282/5/6
f 265/5/6 266/5/6 283/5/6
f 267/5/6 268/5/6 283/5/6
f 266/5/6 267/5/6 283/5/6
f 268/6/6 248/6/6 284/6/6
f 283/5/6 268/5/6 284/5/6
f 276/1/6 277/1/6 285/1/6
f 275/1/6 276/1/6 285/1/6
f 227/5/6 275/5/6 285/5/6
f 277/1/6 278/1/6 285/1/6
f 285/1/6 278/1/6 286/1/6
f 286/1/6 278/1/6 287/1/6
f 278/5/6 256/5/6 288/5/6
f 287/1/6 278/1/6 288/1/6
f 257/5/6 258/5/6 289/5/6
f 258/5/6 241/5/6 289/5/6
f 241/6/6 279/6/6 289/6/6
f 279/6/6 280/6/6 289/6/6
f 289/6/6 280/6/6 290/6/6
f 243/6/6 281/6/6 291/6/6
f 281/6/6 282/6/6 291/6/6
f 282/6/6 244/6/6 292/6/6
f 291/6/6 282/6/6 292/6/6
f 283/6/6 284/6/6 293/6/6
f 248/5/6 228/5/6 294/5/6
f 293/6/6 284/6/6 294/6/6
f 284/6/6 248/6/6 294/6/6
f 285/5/6 286/5/6 295/5/6
f 286/1/6 287/1/6 296/1/6
f 295/5/6 286/5/6 296/5/6
f 296/1/6 287/1/6 297/1/6
f 297/1/6 287/1/6 298/1/6
f 287/5/6 288/5/6 299/5/6
f 298/1/6 287/1/6 299/1/6
f 299/5/6 288/5/6 300/5/6
f 289/5/6 290/5/6 301/5/6
f 290/6/6 280/6/6 302/6/6
f 301/5/6 290/5/6 302/5/6
f 280/6/6 242/6/6 303/6/6
f 302/6/6 280/6/6 303/6/6
f 285/5/6 295/5/6 304/5/6
f 227/5/6 285/5/6 304/5/6
f 295/1/6 296/1/6 305/1/6
f 304/5/6 295/5/6 305/5/6
f 296/5/6 297/5/6 306/5/6
f 305/1/6 296/1/6 306/1/6
f 298/5/6 299/5/6 307/5/6
f 299/1/6 300/1/6 307/1/6
f 300/5/6 288/5/6 308/5/6
f 307/1/6 300/1/6 308/1/6
f 288/5/6 256/5/6 309/5/6
f 308/5/6 288/5/6 309/5/6
f 289/5/6 301/5/6 310/5/6
f 257/5/6 289/5/6 310/5/6
f 301/6/6 302/6/6 311/6/6
f 310/5/6 301/5/6 311/5/6
f 302/5/6 303/5/6 312/5/6
f 311/6/6 302/6/6 312/6/6
f 283/6/6 293/6/6 313/6/6
f 293/5/6 294/5/6 313/5/6
f 294/5/6 228/5/6 314/5/6
f 313/5/6 294/5/6 314/5/6
f 227/5/6 304/5/6 315/5/6
f 304/1/6 305/1/6 315/1/6
f 305/5/6 306/5/6 316/5/6
f 315/1/6 305/1/6 316/1/6
f 297/1/6 298/1/6 317/1/6
f 316/5/6 306/5/6 317/5/6
f 306/5/6 297/5/6 317/5/6
f 307/5/6 308/5/6 318/5/6
f 317/1/6 298/1/6 318/1/6
f 298/5/6 307/5/6 318/5/6
f 308/1/6 309/1/6 319/1/6
f 318/5/6 308/5/6 319/5/6
f 309/5/6 256/5/6 320/5/6
f 319/1/6 309/1/6 320/1/6
f 256/6/6 257/6/6 321/6/6
f 320/5/6 256/5/6 321/5/6
f 257/5/6 310/5/6 322/5/6
f 321/6/6 257/6/6 322/6/6
f 310/6/6 311/6/6 323/6/6
f 322/5/6 310/5/6 323/5/6
f 311/5/6 312/5/6 324/5/6
f 323/6/6 311/6/6 324/6/6
f 312/5/6 303/5/6 325/5/6
f 324/5/6 312/5/6 325/5/6
f 303/6/6 242/6/6 325/6/6
f 242/5/6 243/5/6 326/5/6
f 325/6/6 242/6/6 326/6/6
f 243/6/6 291/6/6 327/6/6
f 326/5/6 243/5/6 327/5/6
f 291/5/6 292/5/6 328/5/6
f 327/6/6 291/6/6 328/6/6
f 292/6/6 244/6/6 329/6/6
f 328/5/6 292/5/6 329/5/6
f 244/5/6 263/5/6 330/5/6
f 329/6/6 244/6/6 330/6/6
f 263/5/6 264/5/6 330/5/6
f 264/6/6 265/6/6 331/6/6
f 330/5/6 264/5/6 331/5/6
f 265/5/6 283/5/6 332/5/6
f 331/6/6 265/6/6 332/6/6
f 313/6/6 314/6/6 333/6/6
f 332/5/6 283/5/6 333/5/6
f 283/6/6 313/6/6 333/6/6
f 314/5/6 228/5/6 334/5/6
f 333/6/6 314/6/6 334/6/6
f 221/6/6 223/6/6 335/6/6
f 223/5/6 224/5/6 335/5/6
f 224/6/6 225/6/6 336/6/6
f 335/5/6 224/5/6 336/5/6
f 225/5/6 226/5/6 337/5/6
f 336/6/6 225/6/6 337/6/6
f 226/6/6 227/6/6 338/6/6
f 337/5/6 226/5/6 338/5/6
f 333/5/6 334/5/6 339/5/6
f 338/6/6 227/6/6 339/6/6
f 323/5/6 324/5/6 339/5/6
f 317/5/6 318/5/6 339/5/6
f 332/5/6 333/5/6 339/5/6
f 227/5/6 315/5/6 339/5/6
f 330/5/6 331/5/6 339/5/6
f 329/5/6 330/5/6 339/5/6
f 321/5/6 322/5/6 339/5/6
f 318/5/6 319/5/6 339/5/6
f 322/5/6 323/5/6 339/5/6
f 324/5/6 325/5/6 339/5/6
f 315/5/6 316/5/6 339/5/6
f 319/5/6 320/5/6 339/5/6
f 331/5/6 332/5/6 339/5/6
f 320/5/6 321/5/6 339/5/6
f 316/5/6 317/5/6 339/5/6
f 328/5/6 329/5/6 339/5/6
f 327/5/6 328/5/6 339/5/6
f 326/5/6 327/5/6 339/5/6
f 325/5/6 326/5/6 339/5/6
f 334/5/6 228/5/6 340/5/6
f 339/5/6 334/5/6 340/5/6
f 228/6/6 229/6/6 340/6/6
f 229/5/6 230/5/6 341/5/6
f 340/6/6 229/6/6 341/6/6
f 230/6/6 231/6/6 342/6/6
f 341/5/6 230/5/6 342/5/6
f 231/5/6 232/5/6 343/5/6
f 342/6/6 231/6/6 343/6/6
f 232/6/6 222/6/6 344/6/6
f 343/5/6 232/5/6 344/5/6
f 338/6/6 339/6/6 345/6/6
f 337/6/6 338/6/6 345/6/6
f 343/6/6 344/6/6 345/6/6
f 340/6/6 341/6/6 345/6/6
f 339/6/6 340/6/6 345/6/6
f 341/6/6 342/6/6 345/6/6
f 342/6/6 343/6/6 345/6/6
f 336/6/6 337/6/6 345/6/6
f 335/6/6 336/6/6 345/6/6
f 221/6/6 335/6/6 345/6/6
f 344/6/6 222/6/6 346/6/6
f 345/6/6 344/6/6 346/6/6
f 345/4/6 346/4/6 347/4/6
f 347/4/6 346/4/6 348/4/6
f 347/3/6 348/3/6 349/3/6
f 349/3/6 348/3/6 350/3/6
f 349/4/6 350/4/6 351/4/6
f 351/4/6 350/4/6 352/4/6
f 351/2/6 352/2/6 353/2/6
f 353/2/6 352/2/6 354/2/6
f 353/4/6 354/4/6 355/4/6
f 355/4/6 354/4/6 356/4/6
f 355/3/6 356/3/6 357/3/6
f 357/3/6 356/3/6 358/3/6
f 357/4/6 358/4/6 359/4/6
f 359/4/6 358/4/6 360/4/6
f 359/6/6 360/6/6 361/6/6
f 361/6/6 360/6/6 362/6/6
f 362/6/6 360/6/6 363/6/6
f 363/6/6 360/6/6 364/6/6
f 364/6/6 360/6/6 365/6/6
f 365/6/6 360/6/6 366/6/6
f 366/6/6 360/6/6 367/6/6
f 367/6/6 360/6/6 368/6/6
f 359/6/6 361/6/6 369/6/6
f 361/5/6 362/5/6 369/5/6
f 362/6/6 363/6/6 370/6/6
f 369/5/6 362/5/6 370/5/6
f 363/5/6 364/5/6 371/5/6
f 370/6/6 363/6/6 371/6/6
f 364/6/6 365/6/6 372/6/6
f 371/5/6 364/5/6 372/5/6
f 365/5/6 366/5/6 373/5/6
f 372/6/6 365/6/6 373/6/6
f 366/6/6 367/6/6 374/6/6
f 373/5/6 366/5/6 374/5/6
f 367/5/6 368/5/6 375/5/6
f 374/6/6 367/6/6 375/6/6
f 368/6/6 360/6/6 376/6/6
f 375/5/6 368/5/6 376/5/6
f 374/6/6 375/6/6 377/6/6
f 373/6/6 374/6/6 377/6/6
f 375/6/6 376/6/6 377/6/6
f 372/6/6 373/6/6 377/6/6
f 371/6/6 372/6/6 377/6/6
f 370/6/6 371/6/6 377/6/6
f 369/6/6 370/6/6 377/6/6
f 359/6/6 369/6/6 377/6/6
f 376/6/6 360/6/6 378/6/6
f 377/6/6 376/6/6 378/6/6
f 377/5/6 378/5/6 379/5/6
f 379/5/6 378/5/6 380/5/6
