# MagicaVoxel @ Ephtracy

# material
mtllib button2.mtl
usemtl palette

# normals
vn -1 0 0
vn 1 0 0
vn 0 0 1
vn 0 0 -1
vn 0 -1 0
vn 0 1 0

# texcoords
vt 0.181641 0.5
vt 0.638672 0.5
vt 0.666016 0.5
vt 0.689453 0.5

# verts
v -25 0 -4
v -25 0 -5
v -25 4 -3
v -25 4 -4
v -25 16 -3
v -25 16 -4
v -25 20 -4
v -25 20 -5
v -20 0 -3
v -20 0 -4
v -20 1 -3
v -20 1 -4
v -20 4 -3
v -20 4 -4
v -20 16 -3
v -20 16 -4
v -20 19 -3
v -20 19 -4
v -20 20 -3
v -20 20 -4
v 20 0 -3
v 20 0 -4
v 20 1 -3
v 20 1 -4
v 20 4 -3
v 20 4 -4
v 20 16 -3
v 20 16 -4
v 20 19 -3
v 20 19 -4
v 20 20 -3
v 20 20 -4
v 25 0 -4
v 25 0 -5
v 25 4 -3
v 25 4 -4
v 25 16 -3
v 25 16 -4
v 25 20 -4
v 25 20 -5
v -25 4 -3
v -25 16 -3
v -24 4 -3
v -24 16 -3
v -22 7 -3
v -22 8 -3
v -22 12 -3
v -22 13 -3
v -21 7 -3
v -21 8 -3
v -21 12 -3
v -21 13 -3
v -20 0 -3
v -20 1 -3
v -20 4 -3
v -20 16 -3
v -20 19 -3
v -20 20 -3
v -19 4 -3
v -19 5 -3
v -19 8 -3
v -19 9 -3
v -19 11 -3
v -19 12 -3
v -19 15 -3
v -19 16 -3
v -18 4 -3
v -18 5 -3
v -18 8 -3
v -18 9 -3
v -18 11 -3
v -18 12 -3
v -18 15 -3
v -18 16 -3
v -16 2 -3
v -16 3 -3
v -16 7 -3
v -16 8 -3
v -16 12 -3
v -16 13 -3
v -16 17 -3
v -16 18 -3
v -15 2 -3
v -15 3 -3
v -15 7 -3
v -15 8 -3
v -15 12 -3
v -15 13 -3
v -15 17 -3
v -15 18 -3
v -13 4 -3
v -13 5 -3
v -13 8 -3
v -13 9 -3
v -13 11 -3
v -13 12 -3
v -13 15 -3
v -13 16 -3
v -12 4 -3
v -12 5 -3
v -12 8 -3
v -12 9 -3
v -12 11 -3
v -12 12 -3
v -12 15 -3
v -12 16 -3
v -9 3 -3
v -9 4 -3
v -9 7 -3
v -9 8 -3
v -9 12 -3
v -9 13 -3
v -9 16 -3
v -9 17 -3
v -8 3 -3
v -8 4 -3
v -8 7 -3
v -8 8 -3
v -8 12 -3
v -8 13 -3
v -8 16 -3
v -8 17 -3
v -6 8 -3
v -6 9 -3
v -6 11 -3
v -6 12 -3
v -5 8 -3
v -5 9 -3
v -5 11 -3
v -5 12 -3
v -4 5 -3
v -4 6 -3
v -4 14 -3
v -4 15 -3
v -3 5 -3
v -3 6 -3
v -3 14 -3
v -3 15 -3
v -2 2 -3
v -2 3 -3
v -2 6 -3
v -2 7 -3
v -2 13 -3
v -2 14 -3
v -2 17 -3
v -2 18 -3
v -1 2 -3
v -1 3 -3
v -1 6 -3
v -1 7 -3
v -1 13 -3
v -1 14 -3
v -1 17 -3
v -1 18 -3
v 1 2 -3
v 1 3 -3
v 1 6 -3
v 1 7 -3
v 1 13 -3
v 1 14 -3
v 1 17 -3
v 1 18 -3
v 2 2 -3
v 2 3 -3
v 2 6 -3
v 2 7 -3
v 2 13 -3
v 2 14 -3
v 2 17 -3
v 2 18 -3
v 3 5 -3
v 3 6 -3
v 3 14 -3
v 3 15 -3
v 4 5 -3
v 4 6 -3
v 4 14 -3
v 4 15 -3
v 5 8 -3
v 5 9 -3
v 5 11 -3
v 5 12 -3
v 6 8 -3
v 6 9 -3
v 6 11 -3
v 6 12 -3
v 8 3 -3
v 8 4 -3
v 8 7 -3
v 8 8 -3
v 8 12 -3
v 8 13 -3
v 8 16 -3
v 8 17 -3
v 9 3 -3
v 9 4 -3
v 9 7 -3
v 9 8 -3
v 9 12 -3
v 9 13 -3
v 9 16 -3
v 9 17 -3
v 12 4 -3
v 12 5 -3
v 12 8 -3
v 12 9 -3
v 12 11 -3
v 12 12 -3
v 12 15 -3
v 12 16 -3
v 13 4 -3
v 13 5 -3
v 13 8 -3
v 13 9 -3
v 13 11 -3
v 13 12 -3
v 13 15 -3
v 13 16 -3
v 15 2 -3
v 15 3 -3
v 15 7 -3
v 15 8 -3
v 15 12 -3
v 15 13 -3
v 15 17 -3
v 15 18 -3
v 16 2 -3
v 16 3 -3
v 16 7 -3
v 16 8 -3
v 16 12 -3
v 16 13 -3
v 16 17 -3
v 16 18 -3
v 18 4 -3
v 18 5 -3
v 18 8 -3
v 18 9 -3
v 18 11 -3
v 18 12 -3
v 18 15 -3
v 18 16 -3
v 19 4 -3
v 19 5 -3
v 19 8 -3
v 19 9 -3
v 19 11 -3
v 19 12 -3
v 19 15 -3
v 19 16 -3
v 20 0 -3
v 20 1 -3
v 20 4 -3
v 20 16 -3
v 20 19 -3
v 20 20 -3
v 21 7 -3
v 21 8 -3
v 21 12 -3
v 21 13 -3
v 22 7 -3
v 22 8 -3
v 22 12 -3
v 22 13 -3
v 24 4 -3
v 24 16 -3
v 25 4 -3
v 25 16 -3
v -25 0 -4
v -25 4 -4
v -25 16 -4
v -25 20 -4
v -24 1 -4
v -24 4 -4
v -24 16 -4
v -24 19 -4
v -20 0 -4
v -20 1 -4
v -20 4 -4
v -20 16 -4
v -20 19 -4
v -20 20 -4
v 20 0 -4
v 20 1 -4
v 20 4 -4
v 20 16 -4
v 20 19 -4
v 20 20 -4
v 24 1 -4
v 24 4 -4
v 24 16 -4
v 24 19 -4
v 25 0 -4
v 25 4 -4
v 25 16 -4
v 25 20 -4
v -25 0 -5
v -25 20 -5
v -24 1 -5
v -24 19 -5
v 24 1 -5
v 24 19 -5
v 25 0 -5
v 25 20 -5
v -20 0 -3
v 20 0 -3
v -25 0 -4
v -20 0 -4
v 20 0 -4
v 25 0 -4
v -25 0 -5
v 25 0 -5
v -25 4 -3
v -24 4 -3
v -20 4 -3
v 20 4 -3
v 24 4 -3
v 25 4 -3
v -25 4 -4
v -24 4 -4
v -20 4 -4
v 20 4 -4
v 24 4 -4
v 25 4 -4
v -25 16 -3
v -24 16 -3
v -20 16 -3
v 20 16 -3
v 24 16 -3
v 25 16 -3
v -25 16 -4
v -24 16 -4
v -20 16 -4
v 20 16 -4
v 24 16 -4
v 25 16 -4
v -20 20 -3
v 20 20 -3
v -25 20 -4
v -20 20 -4
v 20 20 -4
v 25 20 -4
v -25 20 -5
v 25 20 -5

# faces
f 4/4/1 2/4/1 1/4/1
f 5/4/1 4/4/1 3/4/1
f 6/4/1 2/4/1 4/4/1
f 6/4/1 4/4/1 5/4/1
f 7/4/1 2/4/1 6/4/1
f 8/4/1 2/4/1 7/4/1
f 11/4/1 10/4/1 9/4/1
f 12/4/1 10/4/1 11/4/1
f 13/3/1 12/3/1 11/3/1
f 14/3/1 12/3/1 13/3/1
f 17/3/1 16/3/1 15/3/1
f 18/3/1 16/3/1 17/3/1
f 19/4/1 18/4/1 17/4/1
f 20/4/1 18/4/1 19/4/1
f 21/4/2 22/4/2 23/4/2
f 23/4/2 22/4/2 24/4/2
f 23/3/2 24/3/2 25/3/2
f 25/3/2 24/3/2 26/3/2
f 27/3/2 28/3/2 29/3/2
f 29/3/2 28/3/2 30/3/2
f 29/4/2 30/4/2 31/4/2
f 31/4/2 30/4/2 32/4/2
f 33/4/2 34/4/2 36/4/2
f 35/4/2 36/4/2 37/4/2
f 36/4/2 34/4/2 38/4/2
f 37/4/2 36/4/2 38/4/2
f 38/4/2 34/4/2 39/4/2
f 39/4/2 34/4/2 40/4/2
f 43/4/3 42/4/3 41/4/3
f 44/4/3 42/4/3 43/4/3
f 45/3/3 44/3/3 43/3/3
f 46/3/3 44/3/3 45/3/3
f 47/3/3 44/3/3 46/3/3
f 48/3/3 44/3/3 47/3/3
f 49/3/3 45/3/3 43/3/3
f 49/1/3 46/1/3 45/1/3
f 50/3/3 47/3/3 46/3/3
f 50/1/3 46/1/3 49/1/3
f 51/1/3 48/1/3 47/1/3
f 51/3/3 47/3/3 50/3/3
f 52/3/3 44/3/3 48/3/3
f 52/1/3 48/1/3 51/1/3
f 55/3/3 51/3/3 50/3/3
f 55/3/3 50/3/3 49/3/3
f 55/3/3 49/3/3 43/3/3
f 55/3/3 52/3/3 51/3/3
f 56/3/3 44/3/3 52/3/3
f 56/3/3 52/3/3 55/3/3
f 59/3/3 56/3/3 55/3/3
f 59/3/3 55/3/3 54/3/3
f 59/3/3 57/3/3 56/3/3
f 60/3/3 57/3/3 59/3/3
f 61/3/3 57/3/3 60/3/3
f 62/3/3 57/3/3 61/3/3
f 63/3/3 57/3/3 62/3/3
f 64/3/3 57/3/3 63/3/3
f 65/3/3 57/3/3 64/3/3
f 66/3/3 57/3/3 65/3/3
f 67/3/3 59/3/3 54/3/3
f 67/1/3 60/1/3 59/1/3
f 68/3/3 61/3/3 60/3/3
f 68/1/3 60/1/3 67/1/3
f 69/1/3 62/1/3 61/1/3
f 69/3/3 61/3/3 68/3/3
f 70/3/3 63/3/3 62/3/3
f 70/1/3 62/1/3 69/1/3
f 71/1/3 64/1/3 63/1/3
f 71/3/3 63/3/3 70/3/3
f 72/3/3 65/3/3 64/3/3
f 72/1/3 64/1/3 71/1/3
f 73/1/3 66/1/3 65/1/3
f 73/3/3 65/3/3 72/3/3
f 74/3/3 57/3/3 66/3/3
f 74/1/3 66/1/3 73/1/3
f 75/3/3 73/3/3 72/3/3
f 75/3/3 72/3/3 71/3/3
f 75/3/3 74/3/3 73/3/3
f 75/3/3 71/3/3 70/3/3
f 75/3/3 70/3/3 69/3/3
f 75/3/3 69/3/3 68/3/3
f 75/3/3 68/3/3 67/3/3
f 75/3/3 67/3/3 54/3/3
f 76/3/3 74/3/3 75/3/3
f 77/3/3 74/3/3 76/3/3
f 78/3/3 74/3/3 77/3/3
f 79/3/3 74/3/3 78/3/3
f 80/3/3 74/3/3 79/3/3
f 81/3/3 57/3/3 74/3/3
f 81/3/3 74/3/3 80/3/3
f 82/3/3 57/3/3 81/3/3
f 83/3/3 75/3/3 54/3/3
f 83/1/3 76/1/3 75/1/3
f 84/3/3 77/3/3 76/3/3
f 84/1/3 76/1/3 83/1/3
f 85/1/3 78/1/3 77/1/3
f 85/3/3 77/3/3 84/3/3
f 86/3/3 79/3/3 78/3/3
f 86/1/3 78/1/3 85/1/3
f 87/1/3 80/1/3 79/1/3
f 87/3/3 79/3/3 86/3/3
f 88/3/3 81/3/3 80/3/3
f 88/1/3 80/1/3 87/1/3
f 89/1/3 82/1/3 81/1/3
f 89/3/3 81/3/3 88/3/3
f 90/3/3 57/3/3 82/3/3
f 90/1/3 82/1/3 89/1/3
f 91/3/3 86/3/3 85/3/3
f 91/3/3 89/3/3 88/3/3
f 91/3/3 90/3/3 89/3/3
f 91/3/3 87/3/3 86/3/3
f 91/3/3 85/3/3 84/3/3
f 91/3/3 84/3/3 83/3/3
f 91/3/3 88/3/3 87/3/3
f 92/3/3 90/3/3 91/3/3
f 93/3/3 90/3/3 92/3/3
f 94/3/3 90/3/3 93/3/3
f 95/3/3 90/3/3 94/3/3
f 96/3/3 90/3/3 95/3/3
f 97/3/3 90/3/3 96/3/3
f 98/3/3 90/3/3 97/3/3
f 99/3/3 91/3/3 83/3/3
f 99/1/3 92/1/3 91/1/3
f 100/3/3 93/3/3 92/3/3
f 100/1/3 92/1/3 99/1/3
f 101/1/3 94/1/3 93/1/3
f 101/3/3 93/3/3 100/3/3
f 102/3/3 95/3/3 94/3/3
f 102/1/3 94/1/3 101/1/3
f 103/1/3 96/1/3 95/1/3
f 103/3/3 95/3/3 102/3/3
f 104/3/3 97/3/3 96/3/3
f 104/1/3 96/1/3 103/1/3
f 105/1/3 98/1/3 97/1/3
f 105/3/3 97/3/3 104/3/3
f 106/3/3 90/3/3 98/3/3
f 106/1/3 98/1/3 105/1/3
f 107/3/3 105/3/3 104/3/3
f 107/3/3 104/3/3 103/3/3
f 107/3/3 106/3/3 105/3/3
f 107/3/3 103/3/3 102/3/3
f 107/3/3 102/3/3 101/3/3
f 107/3/3 101/3/3 100/3/3
f 107/3/3 100/3/3 99/3/3
f 107/3/3 99/3/3 83/3/3
f 108/3/3 106/3/3 107/3/3
f 109/3/3 106/3/3 108/3/3
f 110/3/3 106/3/3 109/3/3
f 111/3/3 106/3/3 110/3/3
f 112/3/3 106/3/3 111/3/3
f 113/3/3 90/3/3 106/3/3
f 113/3/3 106/3/3 112/3/3
f 114/3/3 90/3/3 113/3/3
f 115/3/3 107/3/3 83/3/3
f 115/1/3 108/1/3 107/1/3
f 116/3/3 109/3/3 108/3/3
f 116/1/3 108/1/3 115/1/3
f 117/1/3 110/1/3 109/1/3
f 117/3/3 109/3/3 116/3/3
f 118/3/3 111/3/3 110/3/3
f 118/1/3 110/1/3 117/1/3
f 119/1/3 112/1/3 111/1/3
f 119/3/3 111/3/3 118/3/3
f 120/3/3 113/3/3 112/3/3
f 120/1/3 112/1/3 119/1/3
f 121/1/3 114/1/3 113/1/3
f 121/3/3 113/3/3 120/3/3
f 122/3/3 90/3/3 114/3/3
f 122/1/3 114/1/3 121/1/3
f 123/3/3 118/3/3 117/3/3
f 123/3/3 121/3/3 120/3/3
f 123/3/3 122/3/3 121/3/3
f 123/3/3 119/3/3 118/3/3
f 123/3/3 117/3/3 116/3/3
f 123/3/3 116/3/3 115/3/3
f 123/3/3 120/3/3 119/3/3
f 124/3/3 122/3/3 123/3/3
f 125/3/3 122/3/3 124/3/3
f 126/3/3 122/3/3 125/3/3
f 127/3/3 123/3/3 115/3/3
f 127/1/3 124/1/3 123/1/3
f 128/3/3 125/3/3 124/3/3
f 128/1/3 124/1/3 127/1/3
f 129/1/3 126/1/3 125/1/3
f 129/3/3 125/3/3 128/3/3
f 130/3/3 122/3/3 126/3/3
f 130/1/3 126/1/3 129/1/3
f 131/3/3 129/3/3 128/3/3
f 131/3/3 128/3/3 127/3/3
f 131/3/3 130/3/3 129/3/3
f 131/3/3 127/3/3 115/3/3
f 132/3/3 130/3/3 131/3/3
f 133/3/3 122/3/3 130/3/3
f 133/3/3 130/3/3 132/3/3
f 134/3/3 122/3/3 133/3/3
f 135/1/3 132/1/3 131/1/3
f 135/3/3 131/3/3 115/3/3
f 136/3/3 133/3/3 132/3/3
f 136/1/3 132/1/3 135/1/3
f 137/1/3 134/1/3 133/1/3
f 137/3/3 133/3/3 136/3/3
f 138/3/3 122/3/3 134/3/3
f 138/1/3 134/1/3 137/1/3
f 139/3/3 83/3/3 54/3/3
f 139/3/3 115/3/3 83/3/3
f 139/3/3 138/3/3 137/3/3
f 139/3/3 135/3/3 115/3/3
f 139/3/3 136/3/3 135/3/3
f 139/3/3 137/3/3 136/3/3
f 140/3/3 138/3/3 139/3/3
f 141/3/3 138/3/3 140/3/3
f 142/3/3 138/3/3 141/3/3
f 143/3/3 138/3/3 142/3/3
f 144/3/3 138/3/3 143/3/3
f 145/3/3 122/3/3 138/3/3
f 145/3/3 138/3/3 144/3/3
f 145/3/3 90/3/3 122/3/3
f 146/3/3 57/3/3 90/3/3
f 146/3/3 90/3/3 145/3/3
f 147/3/3 139/3/3 54/3/3
f 147/1/3 140/1/3 139/1/3
f 148/3/3 141/3/3 140/3/3
f 148/1/3 140/1/3 147/1/3
f 149/1/3 142/1/3 141/1/3
f 149/3/3 141/3/3 148/3/3
f 150/3/3 143/3/3 142/3/3
f 150/1/3 142/1/3 149/1/3
f 151/1/3 144/1/3 143/1/3
f 151/3/3 143/3/3 150/3/3
f 152/3/3 145/3/3 144/3/3
f 152/1/3 144/1/3 151/1/3
f 153/1/3 146/1/3 145/1/3
f 153/3/3 145/3/3 152/3/3
f 154/3/3 57/3/3 146/3/3
f 154/1/3 146/1/3 153/1/3
f 155/3/3 151/3/3 150/3/3
f 155/3/3 150/3/3 149/3/3
f 155/3/3 154/3/3 153/3/3
f 155/3/3 148/3/3 147/3/3
f 155/3/3 147/3/3 54/3/3
f 155/3/3 152/3/3 151/3/3
f 155/3/3 153/3/3 152/3/3
f 155/3/3 149/3/3 148/3/3
f 156/3/3 154/3/3 155/3/3
f 157/3/3 154/3/3 156/3/3
f 158/3/3 154/3/3 157/3/3
f 159/3/3 154/3/3 158/3/3
f 160/3/3 154/3/3 159/3/3
f 161/3/3 154/3/3 160/3/3
f 162/3/3 57/3/3 154/3/3
f 162/3/3 154/3/3 161/3/3
f 163/3/3 155/3/3 54/3/3
f 163/1/3 156/1/3 155/1/3
f 164/3/3 157/3/3 156/3/3
f 164/1/3 156/1/3 163/1/3
f 165/1/3 158/1/3 157/1/3
f 165/3/3 157/3/3 164/3/3
f 166/3/3 159/3/3 158/3/3
f 166/1/3 158/1/3 165/1/3
f 167/1/3 160/1/3 159/1/3
f 167/3/3 159/3/3 166/3/3
f 168/3/3 161/3/3 160/3/3
f 168/1/3 160/1/3 167/1/3
f 169/1/3 162/1/3 161/1/3
f 169/3/3 161/3/3 168/3/3
f 170/3/3 57/3/3 162/3/3
f 170/1/3 162/1/3 169/1/3
f 171/3/3 167/3/3 166/3/3
f 171/3/3 169/3/3 168/3/3
f 171/3/3 170/3/3 169/3/3
f 171/3/3 166/3/3 165/3/3
f 171/3/3 165/3/3 164/3/3
f 171/3/3 164/3/3 163/3/3
f 171/3/3 168/3/3 167/3/3
f 172/3/3 170/3/3 171/3/3
f 173/3/3 170/3/3 172/3/3
f 174/3/3 170/3/3 173/3/3
f 175/3/3 171/3/3 163/3/3
f 175/1/3 172/1/3 171/1/3
f 176/3/3 173/3/3 172/3/3
f 176/1/3 172/1/3 175/1/3
f 177/1/3 174/1/3 173/1/3
f 177/3/3 173/3/3 176/3/3
f 178/3/3 170/3/3 174/3/3
f 178/1/3 174/1/3 177/1/3
f 179/3/3 177/3/3 176/3/3
f 179/3/3 176/3/3 175/3/3
f 179/3/3 178/3/3 177/3/3
f 180/3/3 178/3/3 179/3/3
f 181/3/3 178/3/3 180/3/3
f 182/3/3 178/3/3 181/3/3
f 183/3/3 179/3/3 175/3/3
f 183/1/3 180/1/3 179/1/3
f 184/3/3 181/3/3 180/3/3
f 184/1/3 180/1/3 183/1/3
f 185/1/3 182/1/3 181/1/3
f 185/3/3 181/3/3 184/3/3
f 186/3/3 178/3/3 182/3/3
f 186/1/3 182/1/3 185/1/3
f 187/3/3 175/3/3 163/3/3
f 187/3/3 185/3/3 184/3/3
f 187/3/3 186/3/3 185/3/3
f 187/3/3 183/3/3 175/3/3
f 187/3/3 184/3/3 183/3/3
f 188/3/3 186/3/3 187/3/3
f 189/3/3 186/3/3 188/3/3
f 190/3/3 186/3/3 189/3/3
f 191/3/3 178/3/3 186/3/3
f 191/3/3 186/3/3 190/3/3
f 192/3/3 178/3/3 191/3/3
f 193/3/3 170/3/3 178/3/3
f 193/3/3 178/3/3 192/3/3
f 194/3/3 170/3/3 193/3/3
f 195/3/3 187/3/3 163/3/3
f 195/1/3 188/1/3 187/1/3
f 196/3/3 189/3/3 188/3/3
f 196/1/3 188/1/3 195/1/3
f 197/1/3 190/1/3 189/1/3
f 197/3/3 189/3/3 196/3/3
f 198/3/3 191/3/3 190/3/3
f 198/1/3 190/1/3 197/1/3
f 199/1/3 192/1/3 191/1/3
f 199/3/3 191/3/3 198/3/3
f 200/3/3 193/3/3 192/3/3
f 200/1/3 192/1/3 199/1/3
f 201/1/3 194/1/3 193/1/3
f 201/3/3 193/3/3 200/3/3
f 202/3/3 170/3/3 194/3/3
f 202/1/3 194/1/3 201/1/3
f 203/3/3 198/3/3 197/3/3
f 203/3/3 196/3/3 195/3/3
f 203/3/3 202/3/3 201/3/3
f 203/3/3 199/3/3 198/3/3
f 203/3/3 197/3/3 196/3/3
f 203/3/3 201/3/3 200/3/3
f 203/3/3 200/3/3 199/3/3
f 204/3/3 202/3/3 203/3/3
f 205/3/3 202/3/3 204/3/3
f 206/3/3 202/3/3 205/3/3
f 207/3/3 202/3/3 206/3/3
f 208/3/3 202/3/3 207/3/3
f 209/3/3 202/3/3 208/3/3
f 210/3/3 202/3/3 209/3/3
f 211/3/3 203/3/3 195/3/3
f 211/1/3 204/1/3 203/1/3
f 212/3/3 205/3/3 204/3/3
f 212/1/3 204/1/3 211/1/3
f 213/1/3 206/1/3 205/1/3
f 213/3/3 205/3/3 212/3/3
f 214/3/3 207/3/3 206/3/3
f 214/1/3 206/1/3 213/1/3
f 215/1/3 208/1/3 207/1/3
f 215/3/3 207/3/3 214/3/3
f 216/3/3 209/3/3 208/3/3
f 216/1/3 208/1/3 215/1/3
f 217/1/3 210/1/3 209/1/3
f 217/3/3 209/3/3 216/3/3
f 218/3/3 202/3/3 210/3/3
f 218/1/3 210/1/3 217/1/3
f 219/3/3 163/3/3 54/3/3
f 219/3/3 195/3/3 163/3/3
f 219/3/3 218/3/3 217/3/3
f 219/3/3 215/3/3 214/3/3
f 219/3/3 214/3/3 213/3/3
f 219/3/3 213/3/3 212/3/3
f 219/3/3 212/3/3 211/3/3
f 219/3/3 211/3/3 195/3/3
f 219/3/3 216/3/3 215/3/3
f 219/3/3 217/3/3 216/3/3
f 220/3/3 218/3/3 219/3/3
f 221/3/3 218/3/3 220/3/3
f 222/3/3 218/3/3 221/3/3
f 223/3/3 218/3/3 222/3/3
f 224/3/3 218/3/3 223/3/3
f 225/3/3 202/3/3 218/3/3
f 225/3/3 218/3/3 224/3/3
f 225/3/3 170/3/3 202/3/3
f 226/3/3 57/3/3 170/3/3
f 226/3/3 170/3/3 225/3/3
f 227/3/3 219/3/3 54/3/3
f 227/1/3 220/1/3 219/1/3
f 228/3/3 221/3/3 220/3/3
f 228/1/3 220/1/3 227/1/3
f 229/1/3 222/1/3 221/1/3
f 229/3/3 221/3/3 228/3/3
f 230/3/3 223/3/3 222/3/3
f 230/1/3 222/1/3 229/1/3
f 231/1/3 224/1/3 223/1/3
f 231/3/3 223/3/3 230/3/3
f 232/3/3 225/3/3 224/3/3
f 232/1/3 224/1/3 231/1/3
f 233/1/3 226/1/3 225/1/3
f 233/3/3 225/3/3 232/3/3
f 234/3/3 57/3/3 226/3/3
f 234/1/3 226/1/3 233/1/3
f 235/3/3 231/3/3 230/3/3
f 235/3/3 230/3/3 229/3/3
f 235/3/3 234/3/3 233/3/3
f 235/3/3 228/3/3 227/3/3
f 235/3/3 229/3/3 228/3/3
f 235/3/3 232/3/3 231/3/3
f 235/3/3 233/3/3 232/3/3
f 236/3/3 234/3/3 235/3/3
f 237/3/3 234/3/3 236/3/3
f 238/3/3 234/3/3 237/3/3
f 239/3/3 234/3/3 238/3/3
f 240/3/3 234/3/3 239/3/3
f 241/3/3 234/3/3 240/3/3
f 242/3/3 234/3/3 241/3/3
f 243/3/3 235/3/3 227/3/3
f 243/1/3 236/1/3 235/1/3
f 244/3/3 237/3/3 236/3/3
f 244/1/3 236/1/3 243/1/3
f 245/1/3 238/1/3 237/1/3
f 245/3/3 237/3/3 244/3/3
f 246/3/3 239/3/3 238/3/3
f 246/1/3 238/1/3 245/1/3
f 247/1/3 240/1/3 239/1/3
f 247/3/3 239/3/3 246/3/3
f 248/3/3 241/3/3 240/3/3
f 248/1/3 240/1/3 247/1/3
f 249/1/3 242/1/3 241/1/3
f 249/3/3 241/3/3 248/3/3
f 250/3/3 234/3/3 242/3/3
f 250/1/3 242/1/3 249/1/3
f 251/4/3 54/4/3 53/4/3
f 252/3/3 227/3/3 54/3/3
f 252/4/3 54/4/3 251/4/3
f 252/3/3 249/3/3 248/3/3
f 252/3/3 250/3/3 249/3/3
f 252/3/3 247/3/3 246/3/3
f 252/3/3 246/3/3 245/3/3
f 252/3/3 245/3/3 244/3/3
f 252/3/3 244/3/3 243/3/3
f 252/3/3 243/3/3 227/3/3
f 252/3/3 248/3/3 247/3/3
f 253/3/3 250/3/3 252/3/3
f 254/3/3 234/3/3 250/3/3
f 254/3/3 250/3/3 253/3/3
f 255/4/3 58/4/3 57/4/3
f 255/3/3 234/3/3 254/3/3
f 255/3/3 57/3/3 234/3/3
f 256/4/3 58/4/3 255/4/3
f 257/3/3 254/3/3 253/3/3
f 258/3/3 254/3/3 257/3/3
f 259/3/3 254/3/3 258/3/3
f 260/3/3 254/3/3 259/3/3
f 261/3/3 257/3/3 253/3/3
f 261/1/3 258/1/3 257/1/3
f 262/3/3 259/3/3 258/3/3
f 262/1/3 258/1/3 261/1/3
f 263/1/3 260/1/3 259/1/3
f 263/3/3 259/3/3 262/3/3
f 264/3/3 254/3/3 260/3/3
f 264/1/3 260/1/3 263/1/3
f 265/3/3 263/3/3 262/3/3
f 265/3/3 262/3/3 261/3/3
f 265/3/3 264/3/3 263/3/3
f 265/3/3 261/3/3 253/3/3
f 266/3/3 254/3/3 264/3/3
f 266/3/3 264/3/3 265/3/3
f 267/4/3 266/4/3 265/4/3
f 268/4/3 266/4/3 267/4/3
f 273/4/3 270/4/3 269/4/3
f 274/4/3 270/4/3 273/4/3
f 275/4/3 272/4/3 271/4/3
f 276/4/3 272/4/3 275/4/3
f 277/4/3 273/4/3 269/4/3
f 278/2/3 274/2/3 273/2/3
f 278/4/3 273/4/3 277/4/3
f 279/2/3 274/2/3 278/2/3
f 280/2/3 276/2/3 275/2/3
f 281/4/3 272/4/3 276/4/3
f 281/2/3 276/2/3 280/2/3
f 282/4/3 272/4/3 281/4/3
f 289/4/3 284/4/3 283/4/3
f 289/2/3 285/2/3 284/2/3
f 290/2/3 285/2/3 289/2/3
f 291/2/3 287/2/3 286/2/3
f 292/4/3 288/4/3 287/4/3
f 292/2/3 287/2/3 291/2/3
f 293/4/3 290/4/3 289/4/3
f 293/4/3 289/4/3 283/4/3
f 294/4/3 290/4/3 293/4/3
f 295/4/3 292/4/3 291/4/3
f 296/4/3 288/4/3 292/4/3
f 296/4/3 292/4/3 295/4/3
f 297/4/4 298/4/4 299/4/4
f 299/4/4 298/4/4 300/4/4
f 297/4/4 299/4/4 301/4/4
f 299/2/4 300/2/4 301/2/4
f 300/4/4 298/4/4 302/4/4
f 301/2/4 300/2/4 302/2/4
f 297/4/4 301/4/4 303/4/4
f 301/4/4 302/4/4 303/4/4
f 302/4/4 298/4/4 304/4/4
f 303/4/4 302/4/4 304/4/4
f 308/4/5 306/4/5 305/4/5
f 309/4/5 306/4/5 308/4/5
f 311/4/5 308/4/5 307/4/5
f 311/4/5 310/4/5 309/4/5
f 311/4/5 309/4/5 308/4/5
f 312/4/5 310/4/5 311/4/5
f 319/4/5 314/4/5 313/4/5
f 320/3/5 315/3/5 314/3/5
f 320/4/5 314/4/5 319/4/5
f 321/3/5 315/3/5 320/3/5
f 322/3/5 317/3/5 316/3/5
f 323/4/5 318/4/5 317/4/5
f 323/3/5 317/3/5 322/3/5
f 324/4/5 318/4/5 323/4/5
f 325/4/6 326/4/6 331/4/6
f 326/3/6 327/3/6 332/3/6
f 331/4/6 326/4/6 332/4/6
f 332/3/6 327/3/6 333/3/6
f 328/3/6 329/3/6 334/3/6
f 329/4/6 330/4/6 335/4/6
f 334/3/6 329/3/6 335/3/6
f 335/4/6 330/4/6 336/4/6
f 337/4/6 338/4/6 340/4/6
f 340/4/6 338/4/6 341/4/6
f 339/4/6 340/4/6 343/4/6
f 341/4/6 342/4/6 343/4/6
f 340/4/6 341/4/6 343/4/6
f 343/4/6 342/4/6 344/4/6
