# MagicaVoxel @ Ephtracy

# material
mtllib Asteroid.mtl
usemtl palette

# normals
vn -1 0 0
vn 1 0 0
vn 0 0 1
vn 0 0 -1
vn 0 -1 0
vn 0 1 0

# texcoords
vt 0.958984 0.5
vt 0.970703 0.5
vt 0.974609 0.5
vt 0.978516 0.5
vt 0.990234 0.5
vt 0.994141 0.5

# verts
v -10 0 10
v -10 0 9
v -10 0 -9
v -10 0 -10
v -10 1 10
v -10 1 9
v -10 1 6
v -10 1 5
v -10 1 -5
v -10 1 -6
v -10 1 -9
v -10 1 -10
v -10 2 10
v -10 2 9
v -10 2 6
v -10 2 5
v -10 2 3
v -10 2 2
v -10 2 -2
v -10 2 -3
v -10 2 -5
v -10 2 -6
v -10 2 -9
v -10 2 -10
v -10 3 10
v -10 3 9
v -10 3 8
v -10 3 7
v -10 3 6
v -10 3 3
v -10 3 2
v -10 3 -2
v -10 3 -3
v -10 3 -6
v -10 3 -7
v -10 3 -8
v -10 3 -9
v -10 3 -10
v -10 4 10
v -10 4 9
v -10 4 8
v -10 4 7
v -10 4 -7
v -10 4 -8
v -10 4 -9
v -10 4 -10
v -10 5 10
v -10 5 9
v -10 5 4
v -10 5 3
v -10 5 -3
v -10 5 -4
v -10 5 -9
v -10 5 -10
v -10 6 10
v -10 6 9
v -10 6 4
v -10 6 3
v -10 6 -3
v -10 6 -4
v -10 6 -9
v -10 6 -10
v -10 7 10
v -10 7 9
v -10 7 8
v -10 7 -8
v -10 7 -9
v -10 7 -10
v -10 8 10
v -10 8 9
v -10 8 8
v -10 8 -8
v -10 8 -9
v -10 8 -10
v -10 9 9
v -10 9 8
v -10 9 7
v -10 9 6
v -10 9 2
v -10 9 1
v -10 9 -1
v -10 9 -2
v -10 9 -6
v -10 9 -7
v -10 9 -8
v -10 9 -9
v -10 11 9
v -10 11 8
v -10 11 7
v -10 11 6
v -10 11 2
v -10 11 1
v -10 11 -1
v -10 11 -2
v -10 11 -6
v -10 11 -7
v -10 11 -8
v -10 11 -9
v -10 12 10
v -10 12 9
v -10 12 8
v -10 12 -8
v -10 12 -9
v -10 12 -10
v -10 13 10
v -10 13 9
v -10 13 8
v -10 13 -8
v -10 13 -9
v -10 13 -10
v -10 14 10
v -10 14 9
v -10 14 4
v -10 14 3
v -10 14 -3
v -10 14 -4
v -10 14 -9
v -10 14 -10
v -10 15 10
v -10 15 9
v -10 15 4
v -10 15 3
v -10 15 -3
v -10 15 -4
v -10 15 -9
v -10 15 -10
v -10 16 10
v -10 16 9
v -10 16 8
v -10 16 7
v -10 16 -7
v -10 16 -8
v -10 16 -9
v -10 16 -10
v -10 17 10
v -10 17 9
v -10 17 8
v -10 17 7
v -10 17 6
v -10 17 3
v -10 17 2
v -10 17 -2
v -10 17 -3
v -10 17 -6
v -10 17 -7
v -10 17 -8
v -10 17 -9
v -10 17 -10
v -10 18 10
v -10 18 9
v -10 18 6
v -10 18 5
v -10 18 3
v -10 18 2
v -10 18 -2
v -10 18 -3
v -10 18 -5
v -10 18 -6
v -10 18 -9
v -10 18 -10
v -10 19 10
v -10 19 9
v -10 19 6
v -10 19 5
v -10 19 -5
v -10 19 -6
v -10 19 -9
v -10 19 -10
v -10 20 10
v -10 20 9
v -10 20 -9
v -10 20 -10
v 10 0 10
v 10 0 9
v 10 0 -9
v 10 0 -10
v 10 1 10
v 10 1 9
v 10 1 6
v 10 1 5
v 10 1 -5
v 10 1 -6
v 10 1 -9
v 10 1 -10
v 10 2 10
v 10 2 9
v 10 2 6
v 10 2 5
v 10 2 3
v 10 2 2
v 10 2 -2
v 10 2 -3
v 10 2 -5
v 10 2 -6
v 10 2 -9
v 10 2 -10
v 10 3 10
v 10 3 9
v 10 3 8
v 10 3 7
v 10 3 6
v 10 3 3
v 10 3 2
v 10 3 -2
v 10 3 -3
v 10 3 -6
v 10 3 -7
v 10 3 -8
v 10 3 -9
v 10 3 -10
v 10 4 10
v 10 4 9
v 10 4 8
v 10 4 7
v 10 4 -7
v 10 4 -8
v 10 4 -9
v 10 4 -10
v 10 5 10
v 10 5 9
v 10 5 4
v 10 5 3
v 10 5 -3
v 10 5 -4
v 10 5 -9
v 10 5 -10
v 10 6 10
v 10 6 9
v 10 6 4
v 10 6 3
v 10 6 -3
v 10 6 -4
v 10 6 -9
v 10 6 -10
v 10 7 10
v 10 7 9
v 10 7 8
v 10 7 -8
v 10 7 -9
v 10 7 -10
v 10 8 10
v 10 8 9
v 10 8 8
v 10 8 -8
v 10 8 -9
v 10 8 -10
v 10 9 9
v 10 9 8
v 10 9 7
v 10 9 6
v 10 9 2
v 10 9 1
v 10 9 -1
v 10 9 -2
v 10 9 -6
v 10 9 -7
v 10 9 -8
v 10 9 -9
v 10 11 9
v 10 11 8
v 10 11 7
v 10 11 6
v 10 11 2
v 10 11 1
v 10 11 -1
v 10 11 -2
v 10 11 -6
v 10 11 -7
v 10 11 -8
v 10 11 -9
v 10 12 10
v 10 12 9
v 10 12 8
v 10 12 -8
v 10 12 -9
v 10 12 -10
v 10 13 10
v 10 13 9
v 10 13 8
v 10 13 -8
v 10 13 -9
v 10 13 -10
v 10 14 10
v 10 14 9
v 10 14 4
v 10 14 3
v 10 14 -3
v 10 14 -4
v 10 14 -9
v 10 14 -10
v 10 15 10
v 10 15 9
v 10 15 4
v 10 15 3
v 10 15 -3
v 10 15 -4
v 10 15 -9
v 10 15 -10
v 10 16 10
v 10 16 9
v 10 16 8
v 10 16 7
v 10 16 -7
v 10 16 -8
v 10 16 -9
v 10 16 -10
v 10 17 10
v 10 17 9
v 10 17 8
v 10 17 7
v 10 17 6
v 10 17 3
v 10 17 2
v 10 17 -2
v 10 17 -3
v 10 17 -6
v 10 17 -7
v 10 17 -8
v 10 17 -9
v 10 17 -10
v 10 18 10
v 10 18 9
v 10 18 6
v 10 18 5
v 10 18 3
v 10 18 2
v 10 18 -2
v 10 18 -3
v 10 18 -5
v 10 18 -6
v 10 18 -9
v 10 18 -10
v 10 19 10
v 10 19 9
v 10 19 6
v 10 19 5
v 10 19 -5
v 10 19 -6
v 10 19 -9
v 10 19 -10
v 10 20 10
v 10 20 9
v 10 20 -9
v 10 20 -10
v -10 0 10
v -10 1 10
v -10 2 10
v -10 3 10
v -10 4 10
v -10 5 10
v -10 6 10
v -10 7 10
v -10 8 10
v -10 12 10
v -10 13 10
v -10 14 10
v -10 15 10
v -10 16 10
v -10 17 10
v -10 18 10
v -10 19 10
v -10 20 10
v 10 0 10
v 10 1 10
v 10 2 10
v 10 3 10
v 10 4 10
v 10 5 10
v 10 6 10
v 10 7 10
v 10 8 10
v 10 12 10
v 10 13 10
v 10 14 10
v 10 15 10
v 10 16 10
v 10 17 10
v 10 18 10
v 10 19 10
v 10 20 10
v -10 8 9
v -10 9 9
v -10 11 9
v -10 12 9
v 10 8 9
v 10 9 9
v 10 11 9
v 10 12 9
v -10 8 -9
v -10 9 -9
v -10 11 -9
v -10 12 -9
v 10 8 -9
v 10 9 -9
v 10 11 -9
v 10 12 -9
v -10 0 -10
v -10 1 -10
v -10 2 -10
v -10 3 -10
v -10 4 -10
v -10 5 -10
v -10 6 -10
v -10 7 -10
v -10 8 -10
v -10 12 -10
v -10 13 -10
v -10 14 -10
v -10 15 -10
v -10 16 -10
v -10 17 -10
v -10 18 -10
v -10 19 -10
v -10 20 -10
v 10 0 -10
v 10 1 -10
v 10 2 -10
v 10 3 -10
v 10 4 -10
v 10 5 -10
v 10 6 -10
v 10 7 -10
v 10 8 -10
v 10 12 -10
v 10 13 -10
v 10 14 -10
v 10 15 -10
v 10 16 -10
v 10 17 -10
v 10 18 -10
v 10 19 -10
v 10 20 -10
v -10 0 10
v 10 0 10
v -10 0 9
v 10 0 9
v -10 0 -9
v 10 0 -9
v -10 0 -10
v 10 0 -10
v -10 12 10
v 10 12 10
v -10 12 9
v 10 12 9
v -10 12 -9
v 10 12 -9
v -10 12 -10
v 10 12 -10
v -10 8 10
v 10 8 10
v -10 8 9
v 10 8 9
v -10 8 -9
v 10 8 -9
v -10 8 -10
v 10 8 -10
v -10 20 10
v 10 20 10
v -10 20 9
v 10 20 9
v -10 20 -9
v 10 20 -9
v -10 20 -10
v 10 20 -10

# faces
f 5/2/1 2/2/1 1/2/1
f 6/5/1 3/5/1 2/5/1
f 6/2/1 2/2/1 5/2/1
f 7/5/1 3/5/1 6/5/1
f 8/5/1 3/5/1 7/5/1
f 9/5/1 3/5/1 8/5/1
f 10/5/1 3/5/1 9/5/1
f 11/2/1 4/2/1 3/2/1
f 11/5/1 3/5/1 10/5/1
f 12/2/1 4/2/1 11/2/1
f 13/1/1 6/1/1 5/1/1
f 14/5/1 7/5/1 6/5/1
f 14/1/1 6/1/1 13/1/1
f 15/4/1 8/4/1 7/4/1
f 15/5/1 7/5/1 14/5/1
f 16/2/1 9/2/1 8/2/1
f 16/4/1 8/4/1 15/4/1
f 17/2/1 9/2/1 16/2/1
f 18/2/1 9/2/1 17/2/1
f 19/2/1 9/2/1 18/2/1
f 20/2/1 9/2/1 19/2/1
f 21/4/1 10/4/1 9/4/1
f 21/2/1 9/2/1 20/2/1
f 22/5/1 11/5/1 10/5/1
f 22/4/1 10/4/1 21/4/1
f 23/1/1 12/1/1 11/1/1
f 23/5/1 11/5/1 22/5/1
f 24/1/1 12/1/1 23/1/1
f 25/2/1 14/2/1 13/2/1
f 26/5/1 15/5/1 14/5/1
f 26/2/1 14/2/1 25/2/1
f 27/5/1 15/5/1 26/5/1
f 28/5/1 15/5/1 27/5/1
f 29/2/1 16/2/1 15/2/1
f 29/5/1 15/5/1 28/5/1
f 29/2/1 17/2/1 16/2/1
f 30/4/1 18/4/1 17/4/1
f 30/2/1 17/2/1 29/2/1
f 31/2/1 19/2/1 18/2/1
f 31/4/1 18/4/1 30/4/1
f 32/4/1 20/4/1 19/4/1
f 32/2/1 19/2/1 31/2/1
f 33/2/1 21/2/1 20/2/1
f 33/4/1 20/4/1 32/4/1
f 33/2/1 22/2/1 21/2/1
f 34/5/1 23/5/1 22/5/1
f 34/2/1 22/2/1 33/2/1
f 35/5/1 23/5/1 34/5/1
f 36/5/1 23/5/1 35/5/1
f 37/2/1 24/2/1 23/2/1
f 37/5/1 23/5/1 36/5/1
f 38/2/1 24/2/1 37/2/1
f 39/1/1 26/1/1 25/1/1
f 40/5/1 27/5/1 26/5/1
f 40/1/1 26/1/1 39/1/1
f 41/4/1 28/4/1 27/4/1
f 41/5/1 27/5/1 40/5/1
f 42/2/1 31/2/1 30/2/1
f 42/4/1 28/4/1 41/4/1
f 42/2/1 32/2/1 31/2/1
f 42/2/1 29/2/1 28/2/1
f 42/2/1 30/2/1 29/2/1
f 42/2/1 35/2/1 34/2/1
f 42/2/1 34/2/1 33/2/1
f 42/2/1 33/2/1 32/2/1
f 43/4/1 36/4/1 35/4/1
f 43/2/1 35/2/1 42/2/1
f 44/5/1 37/5/1 36/5/1
f 44/4/1 36/4/1 43/4/1
f 45/1/1 38/1/1 37/1/1
f 45/5/1 37/5/1 44/5/1
f 46/1/1 38/1/1 45/1/1
f 47/2/1 40/2/1 39/2/1
f 48/5/1 41/5/1 40/5/1
f 48/2/1 40/2/1 47/2/1
f 49/2/1 44/2/1 43/2/1
f 49/2/1 43/2/1 42/2/1
f 49/2/1 42/2/1 41/2/1
f 50/2/1 44/2/1 49/2/1
f 51/2/1 44/2/1 50/2/1
f 52/2/1 44/2/1 51/2/1
f 53/2/1 46/2/1 45/2/1
f 53/5/1 45/5/1 44/5/1
f 54/2/1 46/2/1 53/2/1
f 55/1/1 48/1/1 47/1/1
f 56/5/1 41/5/1 48/5/1
f 56/1/1 48/1/1 55/1/1
f 57/2/1 49/2/1 41/2/1
f 57/4/1 50/4/1 49/4/1
f 58/2/1 51/2/1 50/2/1
f 58/4/1 50/4/1 57/4/1
f 59/4/1 52/4/1 51/4/1
f 59/2/1 51/2/1 58/2/1
f 60/2/1 44/2/1 52/2/1
f 60/4/1 52/4/1 59/4/1
f 61/5/1 53/5/1 44/5/1
f 61/1/1 54/1/1 53/1/1
f 62/1/1 54/1/1 61/1/1
f 63/2/1 56/2/1 55/2/1
f 64/5/1 41/5/1 56/5/1
f 64/2/1 56/2/1 63/2/1
f 65/2/1 59/2/1 58/2/1
f 65/5/1 41/5/1 64/5/1
f 65/2/1 58/2/1 57/2/1
f 65/2/1 57/2/1 41/2/1
f 65/2/1 60/2/1 59/2/1
f 66/5/1 61/5/1 44/5/1
f 66/2/1 60/2/1 65/2/1
f 66/2/1 44/2/1 60/2/1
f 67/2/1 62/2/1 61/2/1
f 67/5/1 61/5/1 66/5/1
f 68/2/1 62/2/1 67/2/1
f 69/1/1 64/1/1 63/1/1
f 70/5/1 65/5/1 64/5/1
f 70/1/1 64/1/1 69/1/1
f 71/6/1 66/6/1 65/6/1
f 71/5/1 65/5/1 70/5/1
f 72/5/1 67/5/1 66/5/1
f 72/6/1 66/6/1 71/6/1
f 73/1/1 68/1/1 67/1/1
f 73/5/1 67/5/1 72/5/1
f 74/1/1 68/1/1 73/1/1
f 75/3/1 71/3/1 70/3/1
f 75/3/1 73/3/1 72/3/1
f 75/3/1 72/3/1 71/3/1
f 76/3/1 73/3/1 75/3/1
f 77/3/1 73/3/1 76/3/1
f 78/3/1 73/3/1 77/3/1
f 79/3/1 73/3/1 78/3/1
f 80/3/1 73/3/1 79/3/1
f 81/3/1 73/3/1 80/3/1
f 82/3/1 73/3/1 81/3/1
f 83/3/1 73/3/1 82/3/1
f 84/3/1 73/3/1 83/3/1
f 85/3/1 73/3/1 84/3/1
f 86/3/1 73/3/1 85/3/1
f 87/1/1 76/1/1 75/1/1
f 88/3/1 77/3/1 76/3/1
f 88/1/1 76/1/1 87/1/1
f 89/4/1 78/4/1 77/4/1
f 89/3/1 77/3/1 88/3/1
f 90/3/1 79/3/1 78/3/1
f 90/4/1 78/4/1 89/4/1
f 91/4/1 80/4/1 79/4/1
f 91/3/1 79/3/1 90/3/1
f 92/3/1 81/3/1 80/3/1
f 92/4/1 80/4/1 91/4/1
f 93/4/1 82/4/1 81/4/1
f 93/3/1 81/3/1 92/3/1
f 94/3/1 83/3/1 82/3/1
f 94/4/1 82/4/1 93/4/1
f 95/4/1 84/4/1 83/4/1
f 95/3/1 83/3/1 94/3/1
f 96/3/1 85/3/1 84/3/1
f 96/4/1 84/4/1 95/4/1
f 97/1/1 86/1/1 85/1/1
f 97/3/1 85/3/1 96/3/1
f 98/1/1 86/1/1 97/1/1
f 100/3/1 88/3/1 87/3/1
f 100/3/1 89/3/1 88/3/1
f 100/3/1 98/3/1 97/3/1
f 100/3/1 97/3/1 96/3/1
f 100/3/1 96/3/1 95/3/1
f 100/3/1 95/3/1 94/3/1
f 100/3/1 94/3/1 93/3/1
f 100/3/1 93/3/1 92/3/1
f 100/3/1 92/3/1 91/3/1
f 100/3/1 91/3/1 90/3/1
f 100/3/1 90/3/1 89/3/1
f 101/3/1 98/3/1 100/3/1
f 102/3/1 98/3/1 101/3/1
f 103/3/1 98/3/1 102/3/1
f 105/1/1 100/1/1 99/1/1
f 106/5/1 101/5/1 100/5/1
f 106/1/1 100/1/1 105/1/1
f 107/6/1 102/6/1 101/6/1
f 107/5/1 101/5/1 106/5/1
f 108/5/1 103/5/1 102/5/1
f 108/6/1 102/6/1 107/6/1
f 109/1/1 104/1/1 103/1/1
f 109/5/1 103/5/1 108/5/1
f 110/1/1 104/1/1 109/1/1
f 111/2/1 106/2/1 105/2/1
f 112/5/1 107/5/1 106/5/1
f 112/2/1 106/2/1 111/2/1
f 113/2/1 108/2/1 107/2/1
f 114/2/1 108/2/1 113/2/1
f 115/2/1 108/2/1 114/2/1
f 116/2/1 108/2/1 115/2/1
f 117/5/1 109/5/1 108/5/1
f 117/2/1 110/2/1 109/2/1
f 118/2/1 110/2/1 117/2/1
f 119/1/1 112/1/1 111/1/1
f 120/5/1 107/5/1 112/5/1
f 120/1/1 112/1/1 119/1/1
f 121/2/1 113/2/1 107/2/1
f 121/4/1 114/4/1 113/4/1
f 122/2/1 115/2/1 114/2/1
f 122/4/1 114/4/1 121/4/1
f 123/4/1 116/4/1 115/4/1
f 123/2/1 115/2/1 122/2/1
f 124/2/1 108/2/1 116/2/1
f 124/4/1 116/4/1 123/4/1
f 125/5/1 117/5/1 108/5/1
f 125/1/1 118/1/1 117/1/1
f 126/1/1 118/1/1 125/1/1
f 127/2/1 120/2/1 119/2/1
f 128/5/1 107/5/1 120/5/1
f 128/2/1 120/2/1 127/2/1
f 129/2/1 123/2/1 122/2/1
f 129/5/1 107/5/1 128/5/1
f 129/2/1 122/2/1 121/2/1
f 129/2/1 121/2/1 107/2/1
f 129/2/1 124/2/1 123/2/1
f 130/2/1 124/2/1 129/2/1
f 131/2/1 108/2/1 124/2/1
f 131/2/1 124/2/1 130/2/1
f 132/5/1 125/5/1 108/5/1
f 132/2/1 108/2/1 131/2/1
f 133/2/1 126/2/1 125/2/1
f 133/5/1 125/5/1 132/5/1
f 134/2/1 126/2/1 133/2/1
f 135/1/1 128/1/1 127/1/1
f 136/5/1 129/5/1 128/5/1
f 136/1/1 128/1/1 135/1/1
f 137/4/1 130/4/1 129/4/1
f 137/5/1 129/5/1 136/5/1
f 138/2/1 131/2/1 130/2/1
f 138/4/1 130/4/1 137/4/1
f 139/2/1 131/2/1 138/2/1
f 140/2/1 131/2/1 139/2/1
f 141/2/1 131/2/1 140/2/1
f 142/2/1 131/2/1 141/2/1
f 143/2/1 131/2/1 142/2/1
f 144/2/1 131/2/1 143/2/1
f 145/4/1 132/4/1 131/4/1
f 145/2/1 131/2/1 144/2/1
f 146/5/1 133/5/1 132/5/1
f 146/4/1 132/4/1 145/4/1
f 147/1/1 134/1/1 133/1/1
f 147/5/1 133/5/1 146/5/1
f 148/1/1 134/1/1 147/1/1
f 149/2/1 136/2/1 135/2/1
f 150/5/1 137/5/1 136/5/1
f 150/2/1 136/2/1 149/2/1
f 150/5/1 138/5/1 137/5/1
f 150/5/1 139/5/1 138/5/1
f 151/2/1 140/2/1 139/2/1
f 151/5/1 139/5/1 150/5/1
f 152/2/1 140/2/1 151/2/1
f 153/4/1 141/4/1 140/4/1
f 153/2/1 140/2/1 152/2/1
f 154/2/1 142/2/1 141/2/1
f 154/4/1 141/4/1 153/4/1
f 155/4/1 143/4/1 142/4/1
f 155/2/1 142/2/1 154/2/1
f 156/2/1 144/2/1 143/2/1
f 156/4/1 143/4/1 155/4/1
f 157/2/1 144/2/1 156/2/1
f 158/5/1 145/5/1 144/5/1
f 158/2/1 144/2/1 157/2/1
f 158/5/1 146/5/1 145/5/1
f 158/5/1 147/5/1 146/5/1
f 159/2/1 148/2/1 147/2/1
f 159/5/1 147/5/1 158/5/1
f 160/2/1 148/2/1 159/2/1
f 161/1/1 150/1/1 149/1/1
f 162/5/1 151/5/1 150/5/1
f 162/1/1 150/1/1 161/1/1
f 163/4/1 152/4/1 151/4/1
f 163/5/1 151/5/1 162/5/1
f 164/2/1 155/2/1 154/2/1
f 164/4/1 152/4/1 163/4/1
f 164/2/1 157/2/1 156/2/1
f 164/2/1 156/2/1 155/2/1
f 164/2/1 153/2/1 152/2/1
f 164/2/1 154/2/1 153/2/1
f 165/4/1 158/4/1 157/4/1
f 165/2/1 157/2/1 164/2/1
f 166/5/1 159/5/1 158/5/1
f 166/4/1 158/4/1 165/4/1
f 167/1/1 160/1/1 159/1/1
f 167/5/1 159/5/1 166/5/1
f 168/1/1 160/1/1 167/1/1
f 169/2/1 162/2/1 161/2/1
f 170/5/1 163/5/1 162/5/1
f 170/2/1 162/2/1 169/2/1
f 170/5/1 166/5/1 165/5/1
f 170/5/1 165/5/1 164/5/1
f 170/5/1 167/5/1 166/5/1
f 170/5/1 164/5/1 163/5/1
f 171/2/1 168/2/1 167/2/1
f 171/5/1 167/5/1 170/5/1
f 172/2/1 168/2/1 171/2/1
f 173/2/2 174/2/2 177/2/2
f 174/5/2 175/5/2 178/5/2
f 177/2/2 174/2/2 178/2/2
f 178/5/2 175/5/2 179/5/2
f 179/5/2 175/5/2 180/5/2
f 180/5/2 175/5/2 181/5/2
f 181/5/2 175/5/2 182/5/2
f 175/2/2 176/2/2 183/2/2
f 182/5/2 175/5/2 183/5/2
f 183/2/2 176/2/2 184/2/2
f 177/1/2 178/1/2 185/1/2
f 178/5/2 179/5/2 186/5/2
f 185/1/2 178/1/2 186/1/2
f 179/4/2 180/4/2 187/4/2
f 186/5/2 179/5/2 187/5/2
f 180/2/2 181/2/2 188/2/2
f 187/4/2 180/4/2 188/4/2
f 188/2/2 181/2/2 189/2/2
f 189/2/2 181/2/2 190/2/2
f 190/2/2 181/2/2 191/2/2
f 191/2/2 181/2/2 192/2/2
f 181/4/2 182/4/2 193/4/2
f 192/2/2 181/2/2 193/2/2
f 182/5/2 183/5/2 194/5/2
f 193/4/2 182/4/2 194/4/2
f 183/1/2 184/1/2 195/1/2
f 194/5/2 183/5/2 195/5/2
f 195/1/2 184/1/2 196/1/2
f 185/2/2 186/2/2 197/2/2
f 186/5/2 187/5/2 198/5/2
f 197/2/2 186/2/2 198/2/2
f 198/5/2 187/5/2 199/5/2
f 199/5/2 187/5/2 200/5/2
f 187/2/2 188/2/2 201/2/2
f 200/5/2 187/5/2 201/5/2
f 188/2/2 189/2/2 201/2/2
f 189/4/2 190/4/2 202/4/2
f 201/2/2 189/2/2 202/2/2
f 190/2/2 191/2/2 203/2/2
f 202/4/2 190/4/2 203/4/2
f 191/4/2 192/4/2 204/4/2
f 203/2/2 191/2/2 204/2/2
f 192/2/2 193/2/2 205/2/2
f 204/4/2 192/4/2 205/4/2
f 193/2/2 194/2/2 205/2/2
f 194/5/2 195/5/2 206/5/2
f 205/2/2 194/2/2 206/2/2
f 206/5/2 195/5/2 207/5/2
f 207/5/2 195/5/2 208/5/2
f 195/2/2 196/2/2 209/2/2
f 208/5/2 195/5/2 209/5/2
f 209/2/2 196/2/2 210/2/2
f 197/1/2 198/1/2 211/1/2
f 198/5/2 199/5/2 212/5/2
f 211/1/2 198/1/2 212/1/2
f 199/4/2 200/4/2 213/4/2
f 212/5/2 199/5/2 213/5/2
f 202/2/2 203/2/2 214/2/2
f 213/4/2 200/4/2 214/4/2
f 203/2/2 204/2/2 214/2/2
f 200/2/2 201/2/2 214/2/2
f 201/2/2 202/2/2 214/2/2
f 206/2/2 207/2/2 214/2/2
f 205/2/2 206/2/2 214/2/2
f 204/2/2 205/2/2 214/2/2
f 207/4/2 208/4/2 215/4/2
f 214/2/2 207/2/2 215/2/2
f 208/5/2 209/5/2 216/5/2
f 215/4/2 208/4/2 216/4/2
f 209/1/2 210/1/2 217/1/2
f 216/5/2 209/5/2 217/5/2
f 217/1/2 210/1/2 218/1/2
f 211/2/2 212/2/2 219/2/2
f 212/5/2 213/5/2 220/5/2
f 219/2/2 212/2/2 220/2/2
f 215/2/2 216/2/2 221/2/2
f 214/2/2 215/2/2 221/2/2
f 213/2/2 214/2/2 221/2/2
f 221/2/2 216/2/2 222/2/2
f 222/2/2 216/2/2 223/2/2
f 223/2/2 216/2/2 224/2/2
f 217/2/2 218/2/2 225/2/2
f 216/5/2 217/5/2 225/5/2
f 225/2/2 218/2/2 226/2/2
f 219/1/2 220/1/2 227/1/2
f 220/5/2 213/5/2 228/5/2
f 227/1/2 220/1/2 228/1/2
f 213/2/2 221/2/2 229/2/2
f 221/4/2 222/4/2 229/4/2
f 222/2/2 223/2/2 230/2/2
f 229/4/2 222/4/2 230/4/2
f 223/4/2 224/4/2 231/4/2
f 230/2/2 223/2/2 231/2/2
f 224/2/2 216/2/2 232/2/2
f 231/4/2 224/4/2 232/4/2
f 216/5/2 225/5/2 233/5/2
f 225/1/2 226/1/2 233/1/2
f 233/1/2 226/1/2 234/1/2
f 227/2/2 228/2/2 235/2/2
f 228/5/2 213/5/2 236/5/2
f 235/2/2 228/2/2 236/2/2
f 230/2/2 231/2/2 237/2/2
f 236/5/2 213/5/2 237/5/2
f 229/2/2 230/2/2 237/2/2
f 213/2/2 229/2/2 237/2/2
f 231/2/2 232/2/2 237/2/2
f 216/5/2 233/5/2 238/5/2
f 237/2/2 232/2/2 238/2/2
f 232/2/2 216/2/2 238/2/2
f 233/2/2 234/2/2 239/2/2
f 238/5/2 233/5/2 239/5/2
f 239/2/2 234/2/2 240/2/2
f 235/1/2 236/1/2 241/1/2
f 236/5/2 237/5/2 242/5/2
f 241/1/2 236/1/2 242/1/2
f 237/6/2 238/6/2 243/6/2
f 242/5/2 237/5/2 243/5/2
f 238/5/2 239/5/2 244/5/2
f 243/6/2 238/6/2 244/6/2
f 239/1/2 240/1/2 245/1/2
f 244/5/2 239/5/2 245/5/2
f 245/1/2 240/1/2 246/1/2
f 242/3/2 243/3/2 247/3/2
f 244/3/2 245/3/2 247/3/2
f 243/3/2 244/3/2 247/3/2
f 247/3/2 245/3/2 248/3/2
f 248/3/2 245/3/2 249/3/2
f 249/3/2 245/3/2 250/3/2
f 250/3/2 245/3/2 251/3/2
f 251/3/2 245/3/2 252/3/2
f 252/3/2 245/3/2 253/3/2
f 253/3/2 245/3/2 254/3/2
f 254/3/2 245/3/2 255/3/2
f 255/3/2 245/3/2 256/3/2
f 256/3/2 245/3/2 257/3/2
f 257/3/2 245/3/2 258/3/2
f 247/1/2 248/1/2 259/1/2
f 248/3/2 249/3/2 260/3/2
f 259/1/2 248/1/2 260/1/2
f 249/4/2 250/4/2 261/4/2
f 260/3/2 249/3/2 261/3/2
f 250/3/2 251/3/2 262/3/2
f 261/4/2 250/4/2 262/4/2
f 251/4/2 252/4/2 263/4/2
f 262/3/2 251/3/2 263/3/2
f 252/3/2 253/3/2 264/3/2
f 263/4/2 252/4/2 264/4/2
f 253/4/2 254/4/2 265/4/2
f 264/3/2 253/3/2 265/3/2
f 254/3/2 255/3/2 266/3/2
f 265/4/2 254/4/2 266/4/2
f 255/4/2 256/4/2 267/4/2
f 266/3/2 255/3/2 267/3/2
f 256/3/2 257/3/2 268/3/2
f 267/4/2 256/4/2 268/4/2
f 257/1/2 258/1/2 269/1/2
f 268/3/2 257/3/2 269/3/2
f 269/1/2 258/1/2 270/1/2
f 259/3/2 260/3/2 272/3/2
f 260/3/2 261/3/2 272/3/2
f 269/3/2 270/3/2 272/3/2
f 268/3/2 269/3/2 272/3/2
f 267/3/2 268/3/2 272/3/2
f 266/3/2 267/3/2 272/3/2
f 265/3/2 266/3/2 272/3/2
f 264/3/2 265/3/2 272/3/2
f 263/3/2 264/3/2 272/3/2
f 262/3/2 263/3/2 272/3/2
f 261/3/2 262/3/2 272/3/2
f 272/3/2 270/3/2 273/3/2
f 273/3/2 270/3/2 274/3/2
f 274/3/2 270/3/2 275/3/2
f 271/1/2 272/1/2 277/1/2
f 272/5/2 273/5/2 278/5/2
f 277/1/2 272/1/2 278/1/2
f 273/6/2 274/6/2 279/6/2
f 278/5/2 273/5/2 279/5/2
f 274/5/2 275/5/2 280/5/2
f 279/6/2 274/6/2 280/6/2
f 275/1/2 276/1/2 281/1/2
f 280/5/2 275/5/2 281/5/2
f 281/1/2 276/1/2 282/1/2
f 277/2/2 278/2/2 283/2/2
f 278/5/2 279/5/2 284/5/2
f 283/2/2 278/2/2 284/2/2
f 279/2/2 280/2/2 285/2/2
f 285/2/2 280/2/2 286/2/2
f 286/2/2 280/2/2 287/2/2
f 287/2/2 280/2/2 288/2/2
f 280/5/2 281/5/2 289/5/2
f 281/2/2 282/2/2 289/2/2
f 289/2/2 282/2/2 290/2/2
f 283/1/2 284/1/2 291/1/2
f 284/5/2 279/5/2 292/5/2
f 291/1/2 284/1/2 292/1/2
f 279/2/2 285/2/2 293/2/2
f 285/4/2 286/4/2 293/4/2
f 286/2/2 287/2/2 294/2/2
f 293/4/2 286/4/2 294/4/2
f 287/4/2 288/4/2 295/4/2
f 294/2/2 287/2/2 295/2/2
f 288/2/2 280/2/2 296/2/2
f 295/4/2 288/4/2 296/4/2
f 280/5/2 289/5/2 297/5/2
f 289/1/2 290/1/2 297/1/2
f 297/1/2 290/1/2 298/1/2
f 291/2/2 292/2/2 299/2/2
f 292/5/2 279/5/2 300/5/2
f 299/2/2 292/2/2 300/2/2
f 294/2/2 295/2/2 301/2/2
f 300/5/2 279/5/2 301/5/2
f 293/2/2 294/2/2 301/2/2
f 279/2/2 293/2/2 301/2/2
f 295/2/2 296/2/2 301/2/2
f 301/2/2 296/2/2 302/2/2
f 296/2/2 280/2/2 303/2/2
f 302/2/2 296/2/2 303/2/2
f 280/5/2 297/5/2 304/5/2
f 303/2/2 280/2/2 304/2/2
f 297/2/2 298/2/2 305/2/2
f 304/5/2 297/5/2 305/5/2
f 305/2/2 298/2/2 306/2/2
f 299/1/2 300/1/2 307/1/2
f 300/5/2 301/5/2 308/5/2
f 307/1/2 300/1/2 308/1/2
f 301/4/2 302/4/2 309/4/2
f 308/5/2 301/5/2 309/5/2
f 302/2/2 303/2/2 310/2/2
f 309/4/2 302/4/2 310/4/2
f 310/2/2 303/2/2 311/2/2
f 311/2/2 303/2/2 312/2/2
f 312/2/2 303/2/2 313/2/2
f 313/2/2 303/2/2 314/2/2
f 314/2/2 303/2/2 315/2/2
f 315/2/2 303/2/2 316/2/2
f 303/4/2 304/4/2 317/4/2
f 316/2/2 303/2/2 317/2/2
f 304/5/2 305/5/2 318/5/2
f 317/4/2 304/4/2 318/4/2
f 305/1/2 306/1/2 319/1/2
f 318/5/2 305/5/2 319/5/2
f 319/1/2 306/1/2 320/1/2
f 307/2/2 308/2/2 321/2/2
f 308/5/2 309/5/2 322/5/2
f 321/2/2 308/2/2 322/2/2
f 309/5/2 310/5/2 322/5/2
f 310/5/2 311/5/2 322/5/2
f 311/2/2 312/2/2 323/2/2
f 322/5/2 311/5/2 323/5/2
f 323/2/2 312/2/2 324/2/2
f 312/4/2 313/4/2 325/4/2
f 324/2/2 312/2/2 325/2/2
f 313/2/2 314/2/2 326/2/2
f 325/4/2 313/4/2 326/4/2
f 314/4/2 315/4/2 327/4/2
f 326/2/2 314/2/2 327/2/2
f 315/2/2 316/2/2 328/2/2
f 327/4/2 315/4/2 328/4/2
f 328/2/2 316/2/2 329/2/2
f 316/5/2 317/5/2 330/5/2
f 329/2/2 316/2/2 330/2/2
f 317/5/2 318/5/2 330/5/2
f 318/5/2 319/5/2 330/5/2
f 319/2/2 320/2/2 331/2/2
f 330/5/2 319/5/2 331/5/2
f 331/2/2 320/2/2 332/2/2
f 321/1/2 322/1/2 333/1/2
f 322/5/2 323/5/2 334/5/2
f 333/1/2 322/1/2 334/1/2
f 323/4/2 324/4/2 335/4/2
f 334/5/2 323/5/2 335/5/2
f 326/2/2 327/2/2 336/2/2
f 335/4/2 324/4/2 336/4/2
f 328/2/2 329/2/2 336/2/2
f 327/2/2 328/2/2 336/2/2
f 324/2/2 325/2/2 336/2/2
f 325/2/2 326/2/2 336/2/2
f 329/4/2 330/4/2 337/4/2
f 336/2/2 329/2/2 337/2/2
f 330/5/2 331/5/2 338/5/2
f 337/4/2 330/4/2 338/4/2
f 331/1/2 332/1/2 339/1/2
f 338/5/2 331/5/2 339/5/2
f 339/1/2 332/1/2 340/1/2
f 333/2/2 334/2/2 341/2/2
f 334/5/2 335/5/2 342/5/2
f 341/2/2 334/2/2 342/2/2
f 337/5/2 338/5/2 342/5/2
f 336/5/2 337/5/2 342/5/2
f 338/5/2 339/5/2 342/5/2
f 335/5/2 336/5/2 342/5/2
f 339/2/2 340/2/2 343/2/2
f 342/5/2 339/5/2 343/5/2
f 343/2/2 340/2/2 344/2/2
f 363/2/3 346/2/3 345/2/3
f 364/1/3 347/1/3 346/1/3
f 364/2/3 346/2/3 363/2/3
f 365/2/3 348/2/3 347/2/3
f 365/1/3 347/1/3 364/1/3
f 366/1/3 349/1/3 348/1/3
f 366/2/3 348/2/3 365/2/3
f 367/2/3 350/2/3 349/2/3
f 367/1/3 349/1/3 366/1/3
f 368/1/3 351/1/3 350/1/3
f 368/2/3 350/2/3 367/2/3
f 369/2/3 352/2/3 351/2/3
f 369/1/3 351/1/3 368/1/3
f 370/1/3 353/1/3 352/1/3
f 370/2/3 352/2/3 369/2/3
f 371/1/3 353/1/3 370/1/3
f 372/1/3 355/1/3 354/1/3
f 373/2/3 356/2/3 355/2/3
f 373/1/3 355/1/3 372/1/3
f 374/1/3 357/1/3 356/1/3
f 374/2/3 356/2/3 373/2/3
f 375/2/3 358/2/3 357/2/3
f 375/1/3 357/1/3 374/1/3
f 376/1/3 359/1/3 358/1/3
f 376/2/3 358/2/3 375/2/3
f 377/2/3 360/2/3 359/2/3
f 377/1/3 359/1/3 376/1/3
f 378/1/3 361/1/3 360/1/3
f 378/2/3 360/2/3 377/2/3
f 379/2/3 362/2/3 361/2/3
f 379/1/3 361/1/3 378/1/3
f 380/2/3 362/2/3 379/2/3
f 385/3/3 382/3/3 381/3/3
f 386/1/3 383/1/3 382/1/3
f 386/3/3 382/3/3 385/3/3
f 387/3/3 384/3/3 383/3/3
f 387/1/3 383/1/3 386/1/3
f 388/3/3 384/3/3 387/3/3
f 389/3/4 390/3/4 393/3/4
f 390/1/4 391/1/4 394/1/4
f 393/3/4 390/3/4 394/3/4
f 391/3/4 392/3/4 395/3/4
f 394/1/4 391/1/4 395/1/4
f 395/3/4 392/3/4 396/3/4
f 397/2/4 398/2/4 415/2/4
f 398/1/4 399/1/4 416/1/4
f 415/2/4 398/2/4 416/2/4
f 399/2/4 400/2/4 417/2/4
f 416/1/4 399/1/4 417/1/4
f 400/1/4 401/1/4 418/1/4
f 417/2/4 400/2/4 418/2/4
f 401/2/4 402/2/4 419/2/4
f 418/1/4 401/1/4 419/1/4
f 402/1/4 403/1/4 420/1/4
f 419/2/4 402/2/4 420/2/4
f 403/2/4 404/2/4 421/2/4
f 420/1/4 403/1/4 421/1/4
f 404/1/4 405/1/4 422/1/4
f 421/2/4 404/2/4 422/2/4
f 422/1/4 405/1/4 423/1/4
f 406/1/4 407/1/4 424/1/4
f 407/2/4 408/2/4 425/2/4
f 424/1/4 407/1/4 425/1/4
f 408/1/4 409/1/4 426/1/4
f 425/2/4 408/2/4 426/2/4
f 409/2/4 410/2/4 427/2/4
f 426/1/4 409/1/4 427/1/4
f 410/1/4 411/1/4 428/1/4
f 427/2/4 410/2/4 428/2/4
f 411/2/4 412/2/4 429/2/4
f 428/1/4 411/1/4 429/1/4
f 412/1/4 413/1/4 430/1/4
f 429/2/4 412/2/4 430/2/4
f 413/2/4 414/2/4 431/2/4
f 430/1/4 413/1/4 431/1/4
f 431/2/4 414/2/4 432/2/4
f 435/2/5 434/2/5 433/2/5
f 436/2/5 434/2/5 435/2/5
f 437/5/5 436/5/5 435/5/5
f 438/5/5 436/5/5 437/5/5
f 439/2/5 438/2/5 437/2/5
f 440/2/5 438/2/5 439/2/5
f 443/1/5 442/1/5 441/1/5
f 444/1/5 442/1/5 443/1/5
f 447/1/5 446/1/5 445/1/5
f 448/1/5 446/1/5 447/1/5
f 449/1/6 450/1/6 451/1/6
f 451/1/6 450/1/6 452/1/6
f 453/1/6 454/1/6 455/1/6
f 455/1/6 454/1/6 456/1/6
f 457/2/6 458/2/6 459/2/6
f 459/2/6 458/2/6 460/2/6
f 459/5/6 460/5/6 461/5/6
f 461/5/6 460/5/6 462/5/6
f 461/2/6 462/2/6 463/2/6
f 463/2/6 462/2/6 464/2/6
