# MagicaVoxel @ Ephtracy

# material
mtllib button1.mtl
usemtl palette

# normals
vn -1 0 0
vn 1 0 0
vn 0 0 1
vn 0 0 -1
vn 0 -1 0
vn 0 1 0

# texcoords
vt 0.373047 0.5
vt 0.533203 0.5
vt 0.537109 0.5

# verts
v -25 0 -4
v -25 0 -5
v -25 4 -3
v -25 4 -4
v -25 16 -3
v -25 16 -4
v -25 20 -4
v -25 20 -5
v -20 0 -3
v -20 0 -4
v -20 1 -3
v -20 1 -4
v -20 4 -3
v -20 4 -4
v -20 16 -3
v -20 16 -4
v -20 19 -3
v -20 19 -4
v -20 20 -3
v -20 20 -4
v 20 0 -3
v 20 0 -4
v 20 1 -3
v 20 1 -4
v 20 4 -3
v 20 4 -4
v 20 16 -3
v 20 16 -4
v 20 19 -3
v 20 19 -4
v 20 20 -3
v 20 20 -4
v 25 0 -4
v 25 0 -5
v 25 4 -3
v 25 4 -4
v 25 16 -3
v 25 16 -4
v 25 20 -4
v 25 20 -5
v -25 4 -3
v -25 16 -3
v -24 4 -3
v -24 16 -3
v -22 8 -3
v -22 9 -3
v -22 11 -3
v -22 12 -3
v -20 0 -3
v -20 1 -3
v -20 4 -3
v -20 16 -3
v -20 19 -3
v -20 20 -3
v -19 8 -3
v -19 9 -3
v -19 11 -3
v -19 12 -3
v -18 2 -3
v -18 3 -3
v -18 17 -3
v -18 18 -3
v -15 6 -3
v -15 7 -3
v -15 13 -3
v -15 14 -3
v -9 2 -3
v -9 3 -3
v -9 17 -3
v -9 18 -3
v -8 9 -3
v -8 11 -3
v -5 6 -3
v -5 7 -3
v -5 13 -3
v -5 14 -3
v -2 4 -3
v -2 5 -3
v -2 15 -3
v -2 16 -3
v 2 4 -3
v 2 5 -3
v 2 15 -3
v 2 16 -3
v 5 6 -3
v 5 7 -3
v 5 13 -3
v 5 14 -3
v 8 9 -3
v 8 11 -3
v 9 2 -3
v 9 3 -3
v 9 17 -3
v 9 18 -3
v 15 6 -3
v 15 7 -3
v 15 13 -3
v 15 14 -3
v 18 2 -3
v 18 3 -3
v 18 17 -3
v 18 18 -3
v 19 8 -3
v 19 9 -3
v 19 11 -3
v 19 12 -3
v 20 0 -3
v 20 1 -3
v 20 4 -3
v 20 16 -3
v 20 19 -3
v 20 20 -3
v 22 8 -3
v 22 9 -3
v 22 11 -3
v 22 12 -3
v 24 4 -3
v 24 16 -3
v 25 4 -3
v 25 16 -3
v -25 0 -4
v -25 4 -4
v -25 16 -4
v -25 20 -4
v -24 1 -4
v -24 4 -4
v -24 16 -4
v -24 19 -4
v -20 0 -4
v -20 1 -4
v -20 4 -4
v -20 16 -4
v -20 19 -4
v -20 20 -4
v 20 0 -4
v 20 1 -4
v 20 4 -4
v 20 16 -4
v 20 19 -4
v 20 20 -4
v 24 1 -4
v 24 4 -4
v 24 16 -4
v 24 19 -4
v 25 0 -4
v 25 4 -4
v 25 16 -4
v 25 20 -4
v -25 0 -5
v -25 20 -5
v -24 1 -5
v -24 19 -5
v 24 1 -5
v 24 19 -5
v 25 0 -5
v 25 20 -5
v -20 0 -3
v 20 0 -3
v -25 0 -4
v -20 0 -4
v 20 0 -4
v 25 0 -4
v -25 0 -5
v 25 0 -5
v -25 4 -3
v -24 4 -3
v -20 4 -3
v 20 4 -3
v 24 4 -3
v 25 4 -3
v -25 4 -4
v -24 4 -4
v -20 4 -4
v 20 4 -4
v 24 4 -4
v 25 4 -4
v -25 16 -3
v -24 16 -3
v -20 16 -3
v 20 16 -3
v 24 16 -3
v 25 16 -3
v -25 16 -4
v -24 16 -4
v -20 16 -4
v 20 16 -4
v 24 16 -4
v 25 16 -4
v -20 20 -3
v 20 20 -3
v -25 20 -4
v -20 20 -4
v 20 20 -4
v 25 20 -4
v -25 20 -5
v 25 20 -5

# faces
f 4/1/1 2/1/1 1/1/1
f 5/1/1 4/1/1 3/1/1
f 6/1/1 2/1/1 4/1/1
f 6/1/1 4/1/1 5/1/1
f 7/1/1 2/1/1 6/1/1
f 8/1/1 2/1/1 7/1/1
f 11/1/1 10/1/1 9/1/1
f 12/1/1 10/1/1 11/1/1
f 13/3/1 12/3/1 11/3/1
f 14/3/1 12/3/1 13/3/1
f 17/3/1 16/3/1 15/3/1
f 18/3/1 16/3/1 17/3/1
f 19/1/1 18/1/1 17/1/1
f 20/1/1 18/1/1 19/1/1
f 21/1/2 22/1/2 23/1/2
f 23/1/2 22/1/2 24/1/2
f 23/3/2 24/3/2 25/3/2
f 25/3/2 24/3/2 26/3/2
f 27/3/2 28/3/2 29/3/2
f 29/3/2 28/3/2 30/3/2
f 29/1/2 30/1/2 31/1/2
f 31/1/2 30/1/2 32/1/2
f 33/1/2 34/1/2 36/1/2
f 35/1/2 36/1/2 37/1/2
f 36/1/2 34/1/2 38/1/2
f 37/1/2 36/1/2 38/1/2
f 38/1/2 34/1/2 39/1/2
f 39/1/2 34/1/2 40/1/2
f 43/1/3 42/1/3 41/1/3
f 44/1/3 42/1/3 43/1/3
f 45/3/3 44/3/3 43/3/3
f 46/3/3 44/3/3 45/3/3
f 47/3/3 44/3/3 46/3/3
f 48/3/3 44/3/3 47/3/3
f 51/3/3 45/3/3 43/3/3
f 52/3/3 44/3/3 48/3/3
f 55/2/3 46/2/3 45/2/3
f 55/3/3 51/3/3 50/3/3
f 55/3/3 45/3/3 51/3/3
f 56/3/3 47/3/3 46/3/3
f 56/2/3 46/2/3 55/2/3
f 57/2/3 48/2/3 47/2/3
f 57/3/3 47/3/3 56/3/3
f 58/3/3 52/3/3 48/3/3
f 58/2/3 48/2/3 57/2/3
f 58/3/3 53/3/3 52/3/3
f 59/3/3 57/3/3 56/3/3
f 59/3/3 55/3/3 50/3/3
f 59/3/3 58/3/3 57/3/3
f 59/3/3 56/3/3 55/3/3
f 60/3/3 58/3/3 59/3/3
f 61/3/3 53/3/3 58/3/3
f 61/3/3 58/3/3 60/3/3
f 62/3/3 53/3/3 61/3/3
f 63/3/3 61/3/3 60/3/3
f 64/3/3 61/3/3 63/3/3
f 65/3/3 61/3/3 64/3/3
f 66/3/3 61/3/3 65/3/3
f 67/2/3 60/2/3 59/2/3
f 67/3/3 59/3/3 50/3/3
f 68/3/3 63/3/3 60/3/3
f 68/2/3 60/2/3 67/2/3
f 69/3/3 61/3/3 66/3/3
f 69/2/3 62/2/3 61/2/3
f 70/3/3 53/3/3 62/3/3
f 70/2/3 62/2/3 69/2/3
f 71/3/3 65/3/3 64/3/3
f 72/3/3 65/3/3 71/3/3
f 73/3/3 63/3/3 68/3/3
f 73/3/3 68/3/3 67/3/3
f 73/2/3 64/2/3 63/2/3
f 74/3/3 71/3/3 64/3/3
f 74/2/3 64/2/3 73/2/3
f 75/3/3 65/3/3 72/3/3
f 75/2/3 66/2/3 65/2/3
f 76/3/3 69/3/3 66/3/3
f 76/2/3 66/2/3 75/2/3
f 76/3/3 70/3/3 69/3/3
f 77/3/3 74/3/3 73/3/3
f 77/3/3 73/3/3 67/3/3
f 78/3/3 74/3/3 77/3/3
f 79/3/3 70/3/3 76/3/3
f 79/3/3 76/3/3 75/3/3
f 80/3/3 70/3/3 79/3/3
f 81/2/3 78/2/3 77/2/3
f 81/3/3 77/3/3 67/3/3
f 82/3/3 74/3/3 78/3/3
f 82/2/3 78/2/3 81/2/3
f 83/2/3 80/2/3 79/2/3
f 83/3/3 79/3/3 75/3/3
f 84/3/3 70/3/3 80/3/3
f 84/2/3 80/2/3 83/2/3
f 85/3/3 74/3/3 82/3/3
f 85/3/3 82/3/3 81/3/3
f 86/3/3 71/3/3 74/3/3
f 86/3/3 74/3/3 85/3/3
f 87/3/3 75/3/3 72/3/3
f 87/3/3 83/3/3 75/3/3
f 87/3/3 84/3/3 83/3/3
f 88/3/3 84/3/3 87/3/3
f 89/3/3 71/3/3 86/3/3
f 89/2/3 72/2/3 71/2/3
f 90/3/3 87/3/3 72/3/3
f 90/2/3 72/2/3 89/2/3
f 91/3/3 85/3/3 81/3/3
f 91/3/3 81/3/3 67/3/3
f 91/3/3 67/3/3 50/3/3
f 92/3/3 85/3/3 91/3/3
f 93/3/3 84/3/3 88/3/3
f 93/3/3 70/3/3 84/3/3
f 94/3/3 53/3/3 70/3/3
f 94/3/3 70/3/3 93/3/3
f 95/3/3 85/3/3 92/3/3
f 95/2/3 86/2/3 85/2/3
f 96/3/3 90/3/3 89/3/3
f 96/2/3 86/2/3 95/2/3
f 96/3/3 89/3/3 86/3/3
f 97/3/3 87/3/3 90/3/3
f 97/3/3 90/3/3 96/3/3
f 97/2/3 88/2/3 87/2/3
f 98/3/3 93/3/3 88/3/3
f 98/2/3 88/2/3 97/2/3
f 99/2/3 92/2/3 91/2/3
f 99/3/3 91/3/3 50/3/3
f 100/3/3 96/3/3 95/3/3
f 100/2/3 92/2/3 99/2/3
f 100/3/3 95/3/3 92/3/3
f 100/3/3 97/3/3 96/3/3
f 100/3/3 98/3/3 97/3/3
f 101/2/3 94/2/3 93/2/3
f 101/3/3 98/3/3 100/3/3
f 101/3/3 93/3/3 98/3/3
f 102/3/3 53/3/3 94/3/3
f 102/2/3 94/2/3 101/2/3
f 103/3/3 100/3/3 99/3/3
f 103/3/3 101/3/3 100/3/3
f 103/3/3 102/3/3 101/3/3
f 104/3/3 102/3/3 103/3/3
f 105/3/3 102/3/3 104/3/3
f 106/3/3 102/3/3 105/3/3
f 107/1/3 50/1/3 49/1/3
f 108/3/3 99/3/3 50/3/3
f 108/1/3 50/1/3 107/1/3
f 108/3/3 103/3/3 99/3/3
f 109/3/3 103/3/3 108/3/3
f 110/3/3 102/3/3 106/3/3
f 111/1/3 54/1/3 53/1/3
f 111/3/3 102/3/3 110/3/3
f 111/3/3 53/3/3 102/3/3
f 112/1/3 54/1/3 111/1/3
f 113/3/3 103/3/3 109/3/3
f 113/2/3 104/2/3 103/2/3
f 114/3/3 105/3/3 104/3/3
f 114/2/3 104/2/3 113/2/3
f 115/2/3 106/2/3 105/2/3
f 115/3/3 105/3/3 114/3/3
f 116/3/3 110/3/3 106/3/3
f 116/2/3 106/2/3 115/2/3
f 117/3/3 115/3/3 114/3/3
f 117/3/3 113/3/3 109/3/3
f 117/3/3 116/3/3 115/3/3
f 117/3/3 114/3/3 113/3/3
f 118/3/3 110/3/3 116/3/3
f 118/3/3 116/3/3 117/3/3
f 119/1/3 118/1/3 117/1/3
f 120/1/3 118/1/3 119/1/3
f 125/1/3 122/1/3 121/1/3
f 126/1/3 122/1/3 125/1/3
f 127/1/3 124/1/3 123/1/3
f 128/1/3 124/1/3 127/1/3
f 129/1/3 125/1/3 121/1/3
f 130/2/3 126/2/3 125/2/3
f 130/1/3 125/1/3 129/1/3
f 131/2/3 126/2/3 130/2/3
f 132/2/3 128/2/3 127/2/3
f 133/1/3 124/1/3 128/1/3
f 133/2/3 128/2/3 132/2/3
f 134/1/3 124/1/3 133/1/3
f 141/1/3 136/1/3 135/1/3
f 141/2/3 137/2/3 136/2/3
f 142/2/3 137/2/3 141/2/3
f 143/2/3 139/2/3 138/2/3
f 144/1/3 140/1/3 139/1/3
f 144/2/3 139/2/3 143/2/3
f 145/1/3 142/1/3 141/1/3
f 145/1/3 141/1/3 135/1/3
f 146/1/3 142/1/3 145/1/3
f 147/1/3 144/1/3 143/1/3
f 148/1/3 140/1/3 144/1/3
f 148/1/3 144/1/3 147/1/3
f 149/1/4 150/1/4 151/1/4
f 151/1/4 150/1/4 152/1/4
f 149/1/4 151/1/4 153/1/4
f 151/2/4 152/2/4 153/2/4
f 152/1/4 150/1/4 154/1/4
f 153/2/4 152/2/4 154/2/4
f 149/1/4 153/1/4 155/1/4
f 153/1/4 154/1/4 155/1/4
f 154/1/4 150/1/4 156/1/4
f 155/1/4 154/1/4 156/1/4
f 160/1/5 158/1/5 157/1/5
f 161/1/5 158/1/5 160/1/5
f 163/1/5 160/1/5 159/1/5
f 163/1/5 162/1/5 161/1/5
f 163/1/5 161/1/5 160/1/5
f 164/1/5 162/1/5 163/1/5
f 171/1/5 166/1/5 165/1/5
f 172/3/5 167/3/5 166/3/5
f 172/1/5 166/1/5 171/1/5
f 173/3/5 167/3/5 172/3/5
f 174/3/5 169/3/5 168/3/5
f 175/1/5 170/1/5 169/1/5
f 175/3/5 169/3/5 174/3/5
f 176/1/5 170/1/5 175/1/5
f 177/1/6 178/1/6 183/1/6
f 178/3/6 179/3/6 184/3/6
f 183/1/6 178/1/6 184/1/6
f 184/3/6 179/3/6 185/3/6
f 180/3/6 181/3/6 186/3/6
f 181/1/6 182/1/6 187/1/6
f 186/3/6 181/3/6 187/3/6
f 187/1/6 182/1/6 188/1/6
f 189/1/6 190/1/6 192/1/6
f 192/1/6 190/1/6 193/1/6
f 191/1/6 192/1/6 195/1/6
f 193/1/6 194/1/6 195/1/6
f 192/1/6 193/1/6 195/1/6
f 195/1/6 194/1/6 196/1/6
